<svg xmlns="http://www.w3.org/2000/svg" xmlns:xlink="http://www.w3.org/1999/xlink" version="1.1" class="marks" width="942" height="270" viewBox="0 0 942 270"><rect width="942" height="270" fill="white"/><g fill="none" stroke-miterlimit="10" transform="translate(225,8)"><g class="mark-group role-frame root" role="graphics-object" aria-roledescription="group mark container"><g transform="translate(0,0)"><path class="background" aria-hidden="true" d="M0,0h0v0h0Z"/><g><g class="mark-group role-row-header row_header" role="graphics-object" aria-roledescription="group mark container"><g transform="translate(0,0)"><path class="background" aria-hidden="true" d="M0,0h0v70h0Z"/><g><g class="mark-group role-axis" role="graphics-symbol" aria-roledescription="axis" aria-label="Y-axis for a linear scale with values from −2.0 to 0.0"><g transform="translate(0.5,0.5)"><path class="background" aria-hidden="true" d="M0,0h0v0h0Z" pointer-events="none"/><g><g class="mark-rule role-axis-tick" pointer-events="none"><line transform="translate(0,0)" x2="-5" y2="0" stroke="#888" stroke-width="1" opacity="1"/></g><g class="mark-rule role-axis-domain" pointer-events="none"><line transform="translate(0,70)" x2="0" y2="-70" stroke="#888" stroke-width="1" opacity="1"/></g></g><path class="foreground" aria-hidden="true" d="" pointer-events="none" display="none"/></g></g><g class="mark-group role-title"><g transform="translate(-189.681640625,35)"><path class="background" aria-hidden="true" d="M0,0h0v0h0Z" pointer-events="none"/><g><g class="mark-text role-title-text" role="graphics-symbol" aria-roledescription="title" aria-label="Title text 'A/Perth/16/2009 (144K/189K)'" pointer-events="none"><text text-anchor="start" transform="translate(0,4)" font-family="sans-serif" font-size="14px" fill="#000" opacity="1">A/Perth/16/2009 (144K/189K)</text></g></g><path class="foreground" aria-hidden="true" d="" pointer-events="none" display="none"/></g></g></g><path class="foreground" aria-hidden="true" d="" display="none"/></g><g transform="translate(0,76)"><path class="background" aria-hidden="true" d="M0,0h0v70h0Z"/><g><g class="mark-group role-axis" role="graphics-symbol" aria-roledescription="axis" aria-label="Y-axis for a linear scale with values from −2.0 to 0.0"><g transform="translate(0.5,0.5)"><path class="background" aria-hidden="true" d="M0,0h0v0h0Z" pointer-events="none"/><g><g class="mark-rule role-axis-tick" pointer-events="none"><line transform="translate(0,0)" x2="-5" y2="0" stroke="#888" stroke-width="1" opacity="1"/></g><g class="mark-rule role-axis-domain" pointer-events="none"><line transform="translate(0,70)" x2="0" y2="-70" stroke="#888" stroke-width="1" opacity="1"/></g></g><path class="foreground" aria-hidden="true" d="" pointer-events="none" display="none"/></g></g><g class="mark-group role-title"><g transform="translate(-169.4404296875,35)"><path class="background" aria-hidden="true" d="M0,0h0v0h0Z" pointer-events="none"/><g><g class="mark-text role-title-text" role="graphics-symbol" aria-roledescription="title" aria-label="Title text 'A/Brisbane/10/2007 (140I)'" pointer-events="none"><text text-anchor="start" transform="translate(0,4)" font-family="sans-serif" font-size="14px" fill="#000" opacity="1">A/Brisbane/10/2007 (140I)</text></g></g><path class="foreground" aria-hidden="true" d="" pointer-events="none" display="none"/></g></g></g><path class="foreground" aria-hidden="true" d="" display="none"/></g><g transform="translate(0,152)"><path class="background" aria-hidden="true" d="M0,0h0v70h0Z"/><g><g class="mark-group role-axis" role="graphics-symbol" aria-roledescription="axis" aria-label="Y-axis for a linear scale with values from −2.0 to 0.0"><g transform="translate(0.5,0.5)"><path class="background" aria-hidden="true" d="M0,0h0v0h0Z" pointer-events="none"/><g><g class="mark-rule role-axis-tick" pointer-events="none"><line transform="translate(0,0)" x2="-5" y2="0" stroke="#888" stroke-width="1" opacity="1"/></g><g class="mark-rule role-axis-domain" pointer-events="none"><line transform="translate(0,70)" x2="0" y2="-70" stroke="#888" stroke-width="1" opacity="1"/></g></g><path class="foreground" aria-hidden="true" d="" pointer-events="none" display="none"/></g></g><g class="mark-group role-title"><g transform="translate(-219.9990234375,35)"><path class="background" aria-hidden="true" d="M0,0h0v0h0Z" pointer-events="none"/><g><g class="mark-text role-title-text" role="graphics-symbol" aria-roledescription="title" aria-label="Title text 'A/Wisconsin/67/2005 (193F/225N)'" pointer-events="none"><text text-anchor="start" transform="translate(0,4)" font-family="sans-serif" font-size="14px" fill="#000" opacity="1">A/Wisconsin/67/2005 (193F/225N)</text></g></g><path class="foreground" aria-hidden="true" d="" pointer-events="none" display="none"/></g></g></g><path class="foreground" aria-hidden="true" d="" display="none"/></g></g><g class="mark-group role-column-footer column_footer" role="graphics-object" aria-roledescription="group mark container"><g transform="translate(0,225)"><path class="background" aria-hidden="true" d="M0,0h600v0h-600Z"/><g><g class="mark-group role-axis" role="graphics-symbol" aria-roledescription="axis" aria-label="X-axis titled 'log2 normalized titer' for a linear scale with values from −2 to 6"><g transform="translate(0.5,0.5)"><path class="background" aria-hidden="true" d="M0,0h0v0h0Z" pointer-events="none"/><g><g class="mark-rule role-axis-tick" pointer-events="none"><line transform="translate(0,0)" x2="0" y2="5" stroke="#888" stroke-width="1" opacity="1"/><line transform="translate(38,0)" x2="0" y2="5" stroke="#888" stroke-width="1" opacity="1"/><line transform="translate(75,0)" x2="0" y2="5" stroke="#888" stroke-width="1" opacity="1"/><line transform="translate(113,0)" x2="0" y2="5" stroke="#888" stroke-width="1" opacity="1"/><line transform="translate(150,0)" x2="0" y2="5" stroke="#888" stroke-width="1" opacity="1"/><line transform="translate(188,0)" x2="0" y2="5" stroke="#888" stroke-width="1" opacity="1"/><line transform="translate(225,0)" x2="0" y2="5" stroke="#888" stroke-width="1" opacity="1"/><line transform="translate(263,0)" x2="0" y2="5" stroke="#888" stroke-width="1" opacity="1"/><line transform="translate(300,0)" x2="0" y2="5" stroke="#888" stroke-width="1" opacity="1"/><line transform="translate(338,0)" x2="0" y2="5" stroke="#888" stroke-width="1" opacity="1"/><line transform="translate(375,0)" x2="0" y2="5" stroke="#888" stroke-width="1" opacity="1"/><line transform="translate(413,0)" x2="0" y2="5" stroke="#888" stroke-width="1" opacity="1"/><line transform="translate(450,0)" x2="0" y2="5" stroke="#888" stroke-width="1" opacity="1"/><line transform="translate(488,0)" x2="0" y2="5" stroke="#888" stroke-width="1" opacity="1"/><line transform="translate(525,0)" x2="0" y2="5" stroke="#888" stroke-width="1" opacity="1"/><line transform="translate(563,0)" x2="0" y2="5" stroke="#888" stroke-width="1" opacity="1"/><line transform="translate(600,0)" x2="0" y2="5" stroke="#888" stroke-width="1" opacity="1"/></g><g class="mark-text role-axis-label" pointer-events="none"><text text-anchor="start" transform="translate(0,15)" font-family="sans-serif" font-size="10px" fill="#000" opacity="1">−2.0</text><text text-anchor="middle" transform="translate(37.5,15)" font-family="sans-serif" font-size="10px" fill="#000" opacity="1">−1.5</text><text text-anchor="middle" transform="translate(75,15)" font-family="sans-serif" font-size="10px" fill="#000" opacity="1">−1.0</text><text text-anchor="middle" transform="translate(112.5,15)" font-family="sans-serif" font-size="10px" fill="#000" opacity="1">−0.5</text><text text-anchor="middle" transform="translate(150,15)" font-family="sans-serif" font-size="10px" fill="#000" opacity="1">0.0</text><text text-anchor="middle" transform="translate(187.5,15)" font-family="sans-serif" font-size="10px" fill="#000" opacity="1">0.5</text><text text-anchor="middle" transform="translate(225,15)" font-family="sans-serif" font-size="10px" fill="#000" opacity="1">1.0</text><text text-anchor="middle" transform="translate(262.5,15)" font-family="sans-serif" font-size="10px" fill="#000" opacity="1">1.5</text><text text-anchor="middle" transform="translate(300,15)" font-family="sans-serif" font-size="10px" fill="#000" opacity="1">2.0</text><text text-anchor="middle" transform="translate(337.5,15)" font-family="sans-serif" font-size="10px" fill="#000" opacity="1">2.5</text><text text-anchor="middle" transform="translate(375,15)" font-family="sans-serif" font-size="10px" fill="#000" opacity="1">3.0</text><text text-anchor="middle" transform="translate(412.5,15)" font-family="sans-serif" font-size="10px" fill="#000" opacity="1">3.5</text><text text-anchor="middle" transform="translate(450,15)" font-family="sans-serif" font-size="10px" fill="#000" opacity="1">4.0</text><text text-anchor="middle" transform="translate(487.5,15)" font-family="sans-serif" font-size="10px" fill="#000" opacity="1">4.5</text><text text-anchor="middle" transform="translate(525,15)" font-family="sans-serif" font-size="10px" fill="#000" opacity="1">5.0</text><text text-anchor="middle" transform="translate(562.5,15)" font-family="sans-serif" font-size="10px" fill="#000" opacity="1">5.5</text><text text-anchor="end" transform="translate(600,15)" font-family="sans-serif" font-size="10px" fill="#000" opacity="1">6.0</text></g><g class="mark-rule role-axis-domain" pointer-events="none"><line transform="translate(0,0)" x2="600" y2="0" stroke="#888" stroke-width="1" opacity="1"/></g><g class="mark-text role-axis-title" pointer-events="none"><text text-anchor="middle" transform="translate(300,30)" font-family="sans-serif" font-size="11px" font-weight="bold" fill="#000" opacity="1">log2 normalized titer</text></g></g><path class="foreground" aria-hidden="true" d="" pointer-events="none" display="none"/></g></g></g><path class="foreground" aria-hidden="true" d="" display="none"/></g></g><g class="mark-group role-scope cell" role="graphics-object" aria-roledescription="group mark container"><g transform="translate(0,0)"><path class="background" aria-hidden="true" d="M0,0h600v70h-600Z"/><g><g class="mark-symbol role-mark child_layer_0_layer_0_marks" role="graphics-object" aria-roledescription="symbol mark container"><path aria-label="meanJitter: −1; log2 normalized titer: 0.765154545455; clade_test: 158N/189K/212A" role="graphics-symbol" aria-roledescription="circle" transform="translate(207.3865909090909,35)" d="M2.7386127875258306,0A2.7386127875258306,2.7386127875258306,0,1,1,-2.7386127875258306,0A2.7386127875258306,2.7386127875258306,0,1,1,2.7386127875258306,0" fill="#9c9ede" stroke-width="2"/><path aria-label="meanJitter: 0; log2 normalized titer: −0.05729375; clade_test: 144K/189K" role="graphics-symbol" aria-roledescription="circle" transform="translate(145.70296875,0)" d="M2.7386127875258306,0A2.7386127875258306,2.7386127875258306,0,1,1,-2.7386127875258306,0A2.7386127875258306,2.7386127875258306,0,1,1,2.7386127875258306,0" fill="#5254a3" stroke-width="2"/></g><g class="mark-rule role-mark child_layer_0_layer_1_marks" role="graphics-object" aria-roledescription="rule mark container"><line aria-label="log2 normalized titer: −0.0804347536306; upper_log2_titer: 1.61074384454; meanJitter: −1; clade_test: 158N/189K/212A; Mean of log2 normalized titer: 0.765154545455; Mean + stdev of log2 normalized titer: 1.61074384454; Mean - stdev of log2 normalized titer: −0.0804347536306" role="graphics-symbol" aria-roledescription="errorbar" transform="translate(143.96739347770657,35)" x2="126.8383948627687" y2="0" stroke="#9c9ede"/><line aria-label="log2 normalized titer: −0.80309736532; upper_log2_titer: 0.68850986532; meanJitter: 0; clade_test: 144K/189K; Mean of log2 normalized titer: −0.05729375; Mean + stdev of log2 normalized titer: 0.68850986532; Mean - stdev of log2 normalized titer: −0.80309736532" role="graphics-symbol" aria-roledescription="errorbar" transform="translate(89.76769760096894,0)" x2="111.8705422980621" y2="0" stroke="#5254a3"/></g><g class="mark-rule role-mark child_layer_1_marks" role="graphics-object" aria-roledescription="rule mark container"><line aria-label="threshold: 2" role="graphics-symbol" aria-roledescription="rule mark" transform="translate(300,0)" x2="0" y2="70" stroke="#CCCCCC"/><line aria-label="threshold: 2" role="graphics-symbol" aria-roledescription="rule mark" transform="translate(300,0)" x2="0" y2="70" stroke="#CCCCCC"/><line aria-label="threshold: 2" role="graphics-symbol" aria-roledescription="rule mark" transform="translate(300,0)" x2="0" y2="70" stroke="#CCCCCC"/><line aria-label="threshold: 2" role="graphics-symbol" aria-roledescription="rule mark" transform="translate(300,0)" x2="0" y2="70" stroke="#CCCCCC"/><line aria-label="threshold: 2" role="graphics-symbol" aria-roledescription="rule mark" transform="translate(300,0)" x2="0" y2="70" stroke="#CCCCCC"/><line aria-label="threshold: 2" role="graphics-symbol" aria-roledescription="rule mark" transform="translate(300,0)" x2="0" y2="70" stroke="#CCCCCC"/><line aria-label="threshold: 2" role="graphics-symbol" aria-roledescription="rule mark" transform="translate(300,0)" x2="0" y2="70" stroke="#CCCCCC"/><line aria-label="threshold: 2" role="graphics-symbol" aria-roledescription="rule mark" transform="translate(300,0)" x2="0" y2="70" stroke="#CCCCCC"/><line aria-label="threshold: 2" role="graphics-symbol" aria-roledescription="rule mark" transform="translate(300,0)" x2="0" y2="70" stroke="#CCCCCC"/><line aria-label="threshold: 2" role="graphics-symbol" aria-roledescription="rule mark" transform="translate(300,0)" x2="0" y2="70" stroke="#CCCCCC"/><line aria-label="threshold: 2" role="graphics-symbol" aria-roledescription="rule mark" transform="translate(300,0)" x2="0" y2="70" stroke="#CCCCCC"/><line aria-label="threshold: 2" role="graphics-symbol" aria-roledescription="rule mark" transform="translate(300,0)" x2="0" y2="70" stroke="#CCCCCC"/><line aria-label="threshold: 2" role="graphics-symbol" aria-roledescription="rule mark" transform="translate(300,0)" x2="0" y2="70" stroke="#CCCCCC"/><line aria-label="threshold: 2" role="graphics-symbol" aria-roledescription="rule mark" transform="translate(300,0)" x2="0" y2="70" stroke="#CCCCCC"/><line aria-label="threshold: 2" role="graphics-symbol" aria-roledescription="rule mark" transform="translate(300,0)" x2="0" y2="70" stroke="#CCCCCC"/><line aria-label="threshold: 2" role="graphics-symbol" aria-roledescription="rule mark" transform="translate(300,0)" x2="0" y2="70" stroke="#CCCCCC"/><line aria-label="threshold: 2" role="graphics-symbol" aria-roledescription="rule mark" transform="translate(300,0)" x2="0" y2="70" stroke="#CCCCCC"/><line aria-label="threshold: 2" role="graphics-symbol" aria-roledescription="rule mark" transform="translate(300,0)" x2="0" y2="70" stroke="#CCCCCC"/><line aria-label="threshold: 2" role="graphics-symbol" aria-roledescription="rule mark" transform="translate(300,0)" x2="0" y2="70" stroke="#CCCCCC"/><line aria-label="threshold: 2" role="graphics-symbol" aria-roledescription="rule mark" transform="translate(300,0)" x2="0" y2="70" stroke="#CCCCCC"/><line aria-label="threshold: 2" role="graphics-symbol" aria-roledescription="rule mark" transform="translate(300,0)" x2="0" y2="70" stroke="#CCCCCC"/><line aria-label="threshold: 2" role="graphics-symbol" aria-roledescription="rule mark" transform="translate(300,0)" x2="0" y2="70" stroke="#CCCCCC"/><line aria-label="threshold: 2" role="graphics-symbol" aria-roledescription="rule mark" transform="translate(300,0)" x2="0" y2="70" stroke="#CCCCCC"/><line aria-label="threshold: 2" role="graphics-symbol" aria-roledescription="rule mark" transform="translate(300,0)" x2="0" y2="70" stroke="#CCCCCC"/><line aria-label="threshold: 2" role="graphics-symbol" aria-roledescription="rule mark" transform="translate(300,0)" x2="0" y2="70" stroke="#CCCCCC"/><line aria-label="threshold: 2" role="graphics-symbol" aria-roledescription="rule mark" transform="translate(300,0)" x2="0" y2="70" stroke="#CCCCCC"/><line aria-label="threshold: 2" role="graphics-symbol" aria-roledescription="rule mark" transform="translate(300,0)" x2="0" y2="70" stroke="#CCCCCC"/></g></g><path class="foreground" aria-hidden="true" d="" display="none"/></g><g transform="translate(0,76)"><path class="background" aria-hidden="true" d="M0,0h600v70h-600Z"/><g><g class="mark-symbol role-mark child_layer_0_layer_0_marks" role="graphics-object" aria-roledescription="symbol mark container"><path aria-label="meanJitter: −2; log2 normalized titer: 0.839285714286; clade_test: 173Q" role="graphics-symbol" aria-roledescription="circle" transform="translate(212.94642857142856,70)" d="M2.7386127875258306,0A2.7386127875258306,2.7386127875258306,0,1,1,-2.7386127875258306,0A2.7386127875258306,2.7386127875258306,0,1,1,2.7386127875258306,0" fill="#8ca252" stroke-width="2"/><path aria-label="meanJitter: −1; log2 normalized titer: 3.8125; clade_test: 158N/189K/212A" role="graphics-symbol" aria-roledescription="circle" transform="translate(435.9375,35)" d="M2.7386127875258306,0A2.7386127875258306,2.7386127875258306,0,1,1,-2.7386127875258306,0A2.7386127875258306,2.7386127875258306,0,1,1,2.7386127875258306,0" fill="#9c9ede" stroke-width="2"/><path aria-label="meanJitter: 0; log2 normalized titer: 4.12179230769; clade_test: 144K/189K" role="graphics-symbol" aria-roledescription="circle" transform="translate(459.1344230769231,0)" d="M2.7386127875258306,0A2.7386127875258306,2.7386127875258306,0,1,1,-2.7386127875258306,0A2.7386127875258306,2.7386127875258306,0,1,1,2.7386127875258306,0" fill="#5254a3" stroke-width="2"/></g><g class="mark-rule role-mark child_layer_0_layer_1_marks" role="graphics-object" aria-roledescription="rule mark container"><line aria-label="log2 normalized titer: −0.411126305722; upper_log2_titer: 2.08969773429; meanJitter: −2; clade_test: 173Q; Mean of log2 normalized titer: 0.839285714286; Mean + stdev of log2 normalized titer: 2.08969773429; Mean - stdev of log2 normalized titer: −0.411126305722" role="graphics-symbol" aria-roledescription="errorbar" transform="translate(119.16552707083657,70)" x2="187.56180300118393" y2="0" stroke="#8ca252"/><line aria-label="log2 normalized titer: 2.62007599823; upper_log2_titer: 5.00492400177; meanJitter: −1; clade_test: 158N/189K/212A; Mean of log2 normalized titer: 3.8125; Mean + stdev of log2 normalized titer: 5.00492400177; Mean - stdev of log2 normalized titer: 2.62007599823" role="graphics-symbol" aria-roledescription="errorbar" transform="translate(346.50569986716135,35)" x2="178.86360026567723" y2="0" stroke="#9c9ede"/><line aria-label="log2 normalized titer: 3.00137180891; upper_log2_titer: 5.24221280648; meanJitter: 0; clade_test: 144K/189K; Mean of log2 normalized titer: 4.12179230769; Mean + stdev of log2 normalized titer: 5.24221280648; Mean - stdev of log2 normalized titer: 3.00137180891" role="graphics-symbol" aria-roledescription="errorbar" transform="translate(375.1028856678829,0)" x2="168.0630748180804" y2="0" stroke="#5254a3"/></g><g class="mark-rule role-mark child_layer_1_marks" role="graphics-object" aria-roledescription="rule mark container"><line aria-label="threshold: 2" role="graphics-symbol" aria-roledescription="rule mark" transform="translate(300,0)" x2="0" y2="70" stroke="#CCCCCC"/><line aria-label="threshold: 2" role="graphics-symbol" aria-roledescription="rule mark" transform="translate(300,0)" x2="0" y2="70" stroke="#CCCCCC"/><line aria-label="threshold: 2" role="graphics-symbol" aria-roledescription="rule mark" transform="translate(300,0)" x2="0" y2="70" stroke="#CCCCCC"/><line aria-label="threshold: 2" role="graphics-symbol" aria-roledescription="rule mark" transform="translate(300,0)" x2="0" y2="70" stroke="#CCCCCC"/><line aria-label="threshold: 2" role="graphics-symbol" aria-roledescription="rule mark" transform="translate(300,0)" x2="0" y2="70" stroke="#CCCCCC"/><line aria-label="threshold: 2" role="graphics-symbol" aria-roledescription="rule mark" transform="translate(300,0)" x2="0" y2="70" stroke="#CCCCCC"/><line aria-label="threshold: 2" role="graphics-symbol" aria-roledescription="rule mark" transform="translate(300,0)" x2="0" y2="70" stroke="#CCCCCC"/><line aria-label="threshold: 2" role="graphics-symbol" aria-roledescription="rule mark" transform="translate(300,0)" x2="0" y2="70" stroke="#CCCCCC"/><line aria-label="threshold: 2" role="graphics-symbol" aria-roledescription="rule mark" transform="translate(300,0)" x2="0" y2="70" stroke="#CCCCCC"/><line aria-label="threshold: 2" role="graphics-symbol" aria-roledescription="rule mark" transform="translate(300,0)" x2="0" y2="70" stroke="#CCCCCC"/><line aria-label="threshold: 2" role="graphics-symbol" aria-roledescription="rule mark" transform="translate(300,0)" x2="0" y2="70" stroke="#CCCCCC"/><line aria-label="threshold: 2" role="graphics-symbol" aria-roledescription="rule mark" transform="translate(300,0)" x2="0" y2="70" stroke="#CCCCCC"/><line aria-label="threshold: 2" role="graphics-symbol" aria-roledescription="rule mark" transform="translate(300,0)" x2="0" y2="70" stroke="#CCCCCC"/><line aria-label="threshold: 2" role="graphics-symbol" aria-roledescription="rule mark" transform="translate(300,0)" x2="0" y2="70" stroke="#CCCCCC"/><line aria-label="threshold: 2" role="graphics-symbol" aria-roledescription="rule mark" transform="translate(300,0)" x2="0" y2="70" stroke="#CCCCCC"/><line aria-label="threshold: 2" role="graphics-symbol" aria-roledescription="rule mark" transform="translate(300,0)" x2="0" y2="70" stroke="#CCCCCC"/><line aria-label="threshold: 2" role="graphics-symbol" aria-roledescription="rule mark" transform="translate(300,0)" x2="0" y2="70" stroke="#CCCCCC"/><line aria-label="threshold: 2" role="graphics-symbol" aria-roledescription="rule mark" transform="translate(300,0)" x2="0" y2="70" stroke="#CCCCCC"/><line aria-label="threshold: 2" role="graphics-symbol" aria-roledescription="rule mark" transform="translate(300,0)" x2="0" y2="70" stroke="#CCCCCC"/><line aria-label="threshold: 2" role="graphics-symbol" aria-roledescription="rule mark" transform="translate(300,0)" x2="0" y2="70" stroke="#CCCCCC"/><line aria-label="threshold: 2" role="graphics-symbol" aria-roledescription="rule mark" transform="translate(300,0)" x2="0" y2="70" stroke="#CCCCCC"/><line aria-label="threshold: 2" role="graphics-symbol" aria-roledescription="rule mark" transform="translate(300,0)" x2="0" y2="70" stroke="#CCCCCC"/><line aria-label="threshold: 2" role="graphics-symbol" aria-roledescription="rule mark" transform="translate(300,0)" x2="0" y2="70" stroke="#CCCCCC"/><line aria-label="threshold: 2" role="graphics-symbol" aria-roledescription="rule mark" transform="translate(300,0)" x2="0" y2="70" stroke="#CCCCCC"/><line aria-label="threshold: 2" role="graphics-symbol" aria-roledescription="rule mark" transform="translate(300,0)" x2="0" y2="70" stroke="#CCCCCC"/><line aria-label="threshold: 2" role="graphics-symbol" aria-roledescription="rule mark" transform="translate(300,0)" x2="0" y2="70" stroke="#CCCCCC"/><line aria-label="threshold: 2" role="graphics-symbol" aria-roledescription="rule mark" transform="translate(300,0)" x2="0" y2="70" stroke="#CCCCCC"/><line aria-label="threshold: 2" role="graphics-symbol" aria-roledescription="rule mark" transform="translate(300,0)" x2="0" y2="70" stroke="#CCCCCC"/><line aria-label="threshold: 2" role="graphics-symbol" aria-roledescription="rule mark" transform="translate(300,0)" x2="0" y2="70" stroke="#CCCCCC"/><line aria-label="threshold: 2" role="graphics-symbol" aria-roledescription="rule mark" transform="translate(300,0)" x2="0" y2="70" stroke="#CCCCCC"/><line aria-label="threshold: 2" role="graphics-symbol" aria-roledescription="rule mark" transform="translate(300,0)" x2="0" y2="70" stroke="#CCCCCC"/><line aria-label="threshold: 2" role="graphics-symbol" aria-roledescription="rule mark" transform="translate(300,0)" x2="0" y2="70" stroke="#CCCCCC"/><line aria-label="threshold: 2" role="graphics-symbol" aria-roledescription="rule mark" transform="translate(300,0)" x2="0" y2="70" stroke="#CCCCCC"/><line aria-label="threshold: 2" role="graphics-symbol" aria-roledescription="rule mark" transform="translate(300,0)" x2="0" y2="70" stroke="#CCCCCC"/><line aria-label="threshold: 2" role="graphics-symbol" aria-roledescription="rule mark" transform="translate(300,0)" x2="0" y2="70" stroke="#CCCCCC"/><line aria-label="threshold: 2" role="graphics-symbol" aria-roledescription="rule mark" transform="translate(300,0)" x2="0" y2="70" stroke="#CCCCCC"/><line aria-label="threshold: 2" role="graphics-symbol" aria-roledescription="rule mark" transform="translate(300,0)" x2="0" y2="70" stroke="#CCCCCC"/><line aria-label="threshold: 2" role="graphics-symbol" aria-roledescription="rule mark" transform="translate(300,0)" x2="0" y2="70" stroke="#CCCCCC"/><line aria-label="threshold: 2" role="graphics-symbol" aria-roledescription="rule mark" transform="translate(300,0)" x2="0" y2="70" stroke="#CCCCCC"/></g></g><path class="foreground" aria-hidden="true" d="" display="none"/></g><g transform="translate(0,152)"><path class="background" aria-hidden="true" d="M0,0h600v70h-600Z"/><g><g class="mark-symbol role-mark child_layer_0_layer_0_marks" role="graphics-object" aria-roledescription="symbol mark container"><path aria-label="meanJitter: −2; log2 normalized titer: 0.55955; clade_test: 173Q" role="graphics-symbol" aria-roledescription="circle" transform="translate(191.96624999999997,70)" d="M2.7386127875258306,0A2.7386127875258306,2.7386127875258306,0,1,1,-2.7386127875258306,0A2.7386127875258306,2.7386127875258306,0,1,1,2.7386127875258306,0" fill="#8ca252" stroke-width="2"/><path aria-label="meanJitter: 0; log2 normalized titer: 3.96665454545; clade_test: 144K/189K" role="graphics-symbol" aria-roledescription="circle" transform="translate(447.4990909090909,0)" d="M2.7386127875258306,0A2.7386127875258306,2.7386127875258306,0,1,1,-2.7386127875258306,0A2.7386127875258306,2.7386127875258306,0,1,1,2.7386127875258306,0" fill="#5254a3" stroke-width="2"/><path aria-label="meanJitter: −1; log2 normalized titer: 4.3708125; clade_test: 158N/189K/212A" role="graphics-symbol" aria-roledescription="circle" transform="translate(477.8109375,35)" d="M2.7386127875258306,0A2.7386127875258306,2.7386127875258306,0,1,1,-2.7386127875258306,0A2.7386127875258306,2.7386127875258306,0,1,1,2.7386127875258306,0" fill="#9c9ede" stroke-width="2"/></g><g class="mark-rule role-mark child_layer_0_layer_1_marks" role="graphics-object" aria-roledescription="rule mark container"><line aria-label="log2 normalized titer: −1.45173988377; upper_log2_titer: 2.57083988377; meanJitter: −2; clade_test: 173Q; Mean of log2 normalized titer: 0.55955; Mean + stdev of log2 normalized titer: 2.57083988377; Mean - stdev of log2 normalized titer: −1.45173988377" role="graphics-symbol" aria-roledescription="errorbar" transform="translate(41.119508717568415,70)" x2="301.69348256486313" y2="0" stroke="#8ca252"/><line aria-label="log2 normalized titer: 2.86817832781; upper_log2_titer: 5.0651307631; meanJitter: 0; clade_test: 144K/189K; Mean of log2 normalized titer: 3.96665454545; Mean + stdev of log2 normalized titer: 5.0651307631; Mean - stdev of log2 normalized titer: 2.86817832781" role="graphics-symbol" aria-roledescription="errorbar" transform="translate(365.1133745858658,0)" x2="164.77143264645008" y2="0" stroke="#5254a3"/><line aria-label="log2 normalized titer: 3.09649324483; upper_log2_titer: 5.64513175517; meanJitter: −1; clade_test: 158N/189K/212A; Mean of log2 normalized titer: 4.3708125; Mean + stdev of log2 normalized titer: 5.64513175517; Mean - stdev of log2 normalized titer: 3.09649324483" role="graphics-symbol" aria-roledescription="errorbar" transform="translate(382.2369933619523,35)" x2="191.1478882760955" y2="0" stroke="#9c9ede"/></g><g class="mark-rule role-mark child_layer_1_marks" role="graphics-object" aria-roledescription="rule mark container"><line aria-label="threshold: 2" role="graphics-symbol" aria-roledescription="rule mark" transform="translate(300,0)" x2="0" y2="70" stroke="#CCCCCC"/><line aria-label="threshold: 2" role="graphics-symbol" aria-roledescription="rule mark" transform="translate(300,0)" x2="0" y2="70" stroke="#CCCCCC"/><line aria-label="threshold: 2" role="graphics-symbol" aria-roledescription="rule mark" transform="translate(300,0)" x2="0" y2="70" stroke="#CCCCCC"/><line aria-label="threshold: 2" role="graphics-symbol" aria-roledescription="rule mark" transform="translate(300,0)" x2="0" y2="70" stroke="#CCCCCC"/><line aria-label="threshold: 2" role="graphics-symbol" aria-roledescription="rule mark" transform="translate(300,0)" x2="0" y2="70" stroke="#CCCCCC"/><line aria-label="threshold: 2" role="graphics-symbol" aria-roledescription="rule mark" transform="translate(300,0)" x2="0" y2="70" stroke="#CCCCCC"/><line aria-label="threshold: 2" role="graphics-symbol" aria-roledescription="rule mark" transform="translate(300,0)" x2="0" y2="70" stroke="#CCCCCC"/><line aria-label="threshold: 2" role="graphics-symbol" aria-roledescription="rule mark" transform="translate(300,0)" x2="0" y2="70" stroke="#CCCCCC"/><line aria-label="threshold: 2" role="graphics-symbol" aria-roledescription="rule mark" transform="translate(300,0)" x2="0" y2="70" stroke="#CCCCCC"/><line aria-label="threshold: 2" role="graphics-symbol" aria-roledescription="rule mark" transform="translate(300,0)" x2="0" y2="70" stroke="#CCCCCC"/><line aria-label="threshold: 2" role="graphics-symbol" aria-roledescription="rule mark" transform="translate(300,0)" x2="0" y2="70" stroke="#CCCCCC"/><line aria-label="threshold: 2" role="graphics-symbol" aria-roledescription="rule mark" transform="translate(300,0)" x2="0" y2="70" stroke="#CCCCCC"/><line aria-label="threshold: 2" role="graphics-symbol" aria-roledescription="rule mark" transform="translate(300,0)" x2="0" y2="70" stroke="#CCCCCC"/><line aria-label="threshold: 2" role="graphics-symbol" aria-roledescription="rule mark" transform="translate(300,0)" x2="0" y2="70" stroke="#CCCCCC"/><line aria-label="threshold: 2" role="graphics-symbol" aria-roledescription="rule mark" transform="translate(300,0)" x2="0" y2="70" stroke="#CCCCCC"/><line aria-label="threshold: 2" role="graphics-symbol" aria-roledescription="rule mark" transform="translate(300,0)" x2="0" y2="70" stroke="#CCCCCC"/><line aria-label="threshold: 2" role="graphics-symbol" aria-roledescription="rule mark" transform="translate(300,0)" x2="0" y2="70" stroke="#CCCCCC"/><line aria-label="threshold: 2" role="graphics-symbol" aria-roledescription="rule mark" transform="translate(300,0)" x2="0" y2="70" stroke="#CCCCCC"/><line aria-label="threshold: 2" role="graphics-symbol" aria-roledescription="rule mark" transform="translate(300,0)" x2="0" y2="70" stroke="#CCCCCC"/><line aria-label="threshold: 2" role="graphics-symbol" aria-roledescription="rule mark" transform="translate(300,0)" x2="0" y2="70" stroke="#CCCCCC"/><line aria-label="threshold: 2" role="graphics-symbol" aria-roledescription="rule mark" transform="translate(300,0)" x2="0" y2="70" stroke="#CCCCCC"/><line aria-label="threshold: 2" role="graphics-symbol" aria-roledescription="rule mark" transform="translate(300,0)" x2="0" y2="70" stroke="#CCCCCC"/><line aria-label="threshold: 2" role="graphics-symbol" aria-roledescription="rule mark" transform="translate(300,0)" x2="0" y2="70" stroke="#CCCCCC"/><line aria-label="threshold: 2" role="graphics-symbol" aria-roledescription="rule mark" transform="translate(300,0)" x2="0" y2="70" stroke="#CCCCCC"/><line aria-label="threshold: 2" role="graphics-symbol" aria-roledescription="rule mark" transform="translate(300,0)" x2="0" y2="70" stroke="#CCCCCC"/><line aria-label="threshold: 2" role="graphics-symbol" aria-roledescription="rule mark" transform="translate(300,0)" x2="0" y2="70" stroke="#CCCCCC"/><line aria-label="threshold: 2" role="graphics-symbol" aria-roledescription="rule mark" transform="translate(300,0)" x2="0" y2="70" stroke="#CCCCCC"/><line aria-label="threshold: 2" role="graphics-symbol" aria-roledescription="rule mark" transform="translate(300,0)" x2="0" y2="70" stroke="#CCCCCC"/><line aria-label="threshold: 2" role="graphics-symbol" aria-roledescription="rule mark" transform="translate(300,0)" x2="0" y2="70" stroke="#CCCCCC"/><line aria-label="threshold: 2" role="graphics-symbol" aria-roledescription="rule mark" transform="translate(300,0)" x2="0" y2="70" stroke="#CCCCCC"/><line aria-label="threshold: 2" role="graphics-symbol" aria-roledescription="rule mark" transform="translate(300,0)" x2="0" y2="70" stroke="#CCCCCC"/><line aria-label="threshold: 2" role="graphics-symbol" aria-roledescription="rule mark" transform="translate(300,0)" x2="0" y2="70" stroke="#CCCCCC"/><line aria-label="threshold: 2" role="graphics-symbol" aria-roledescription="rule mark" transform="translate(300,0)" x2="0" y2="70" stroke="#CCCCCC"/></g></g><path class="foreground" aria-hidden="true" d="" display="none"/></g></g><g class="mark-group role-legend" role="graphics-symbol" aria-roledescription="legend" aria-label="Symbol legend titled 'clade_test' for fill color and stroke color with 9 values: 140I, 144K/189K, 145N, 158N/189K/212A, 173N, ending with unassigned"><g transform="translate(619,0)"><path class="background" aria-hidden="true" d="M0,0h93v61h-93Z" pointer-events="none"/><g><g class="mark-group role-legend-entry"><g transform="translate(0,16)"><path class="background" aria-hidden="true" d="M0,0h0v0h0Z" pointer-events="none"/><g><g class="mark-group role-scope" role="graphics-object" aria-roledescription="group mark container"><g transform="translate(0,0)"><path class="background" aria-hidden="true" d="M0,0h92.171875v12.5h-92.171875Z" pointer-events="none" opacity="1"/><g><g class="mark-symbol role-legend-symbol" pointer-events="none"><path transform="translate(6,6)" d="M5,0A5,5,0,1,1,-5,0A5,5,0,1,1,5,0" fill="#5254a3" stroke="#5254a3" stroke-width="1.5" opacity="1"/></g><g class="mark-text role-legend-label" pointer-events="none"><text text-anchor="start" transform="translate(16,9)" font-family="sans-serif" font-size="10px" fill="#000" opacity="1">144K/189K</text></g></g><path class="foreground" aria-hidden="true" d="" pointer-events="none" display="none"/></g><g transform="translate(0,16)"><path class="background" aria-hidden="true" d="M0,0h92.171875v12.5h-92.171875Z" pointer-events="none" opacity="1"/><g><g class="mark-symbol role-legend-symbol" pointer-events="none"><path transform="translate(6,6)" d="M5,0A5,5,0,1,1,-5,0A5,5,0,1,1,5,0" fill="#9c9ede" stroke="#9c9ede" stroke-width="1.5" opacity="1"/></g><g class="mark-text role-legend-label" pointer-events="none"><text text-anchor="start" transform="translate(16,9)" font-family="sans-serif" font-size="10px" fill="#000" opacity="1">158N/189K/212A</text></g></g><path class="foreground" aria-hidden="true" d="" pointer-events="none" display="none"/></g><g transform="translate(0,32)"><path class="background" aria-hidden="true" d="M0,0h92.171875v12.5h-92.171875Z" pointer-events="none" opacity="1"/><g><g class="mark-symbol role-legend-symbol" pointer-events="none"><path transform="translate(6,6)" d="M5,0A5,5,0,1,1,-5,0A5,5,0,1,1,5,0" fill="#8ca252" stroke="#8ca252" stroke-width="1.5" opacity="1"/></g><g class="mark-text role-legend-label" pointer-events="none"><text text-anchor="start" transform="translate(16,9)" font-family="sans-serif" font-size="10px" fill="#000" opacity="1">173Q</text></g></g><path class="foreground" aria-hidden="true" d="" pointer-events="none" display="none"/></g></g></g><path class="foreground" aria-hidden="true" d="" pointer-events="none" display="none"/></g></g><g class="mark-text role-legend-title" pointer-events="none"><text text-anchor="start" transform="translate(0,9)" font-family="sans-serif" font-size="11px" font-weight="bold" fill="#000" opacity="1">clade_test</text></g></g><path class="foreground" aria-hidden="true" d="" pointer-events="none" display="none"/></g></g></g><path class="foreground" aria-hidden="true" d="" display="none"/></g></g></g></svg>