<svg xmlns="http://www.w3.org/2000/svg" xmlns:xlink="http://www.w3.org/1999/xlink" version="1.1" class="marks" width="410" height="312" viewBox="0 0 410 312"><rect width="410" height="312" fill="white"/><g fill="none" stroke-miterlimit="10" transform="translate(5,5)"><g class="mark-group role-frame root" role="graphics-object" aria-roledescription="group mark container"><g transform="translate(0,0)"><path class="background" aria-hidden="true" d="M0.5,0.5h400v300h-400Z"/><g><g class="mark-group role-axis"><g transform="translate(0.5,300.5)"><path class="background" aria-hidden="true" d="M0,0h0v0h0Z" pointer-events="none"/><g/><path class="foreground" aria-hidden="true" d="" pointer-events="none" display="none"/></g></g><g class="mark-group role-axis"><g transform="translate(0.5,0.5)"><path class="background" aria-hidden="true" d="M0,0h0v0h0Z" pointer-events="none"/><g/><path class="foreground" aria-hidden="true" d="" pointer-events="none" display="none"/></g></g><g class="mark-rule role-mark layer_0_marks" role="graphics-object" aria-roledescription="rule mark container"><line aria-label="timepoint (year-month): Sep 1996; timepoint_other (year-month): Sep 1997; y_position: 0.3548; y_position_other: 0.8718; flow: 0.012" role="graphics-symbol" aria-roledescription="rule mark" transform="translate(100,193.56)" x2="200" y2="-155.10000000000002" stroke="#999999" stroke-width="0" opacity="0.3119047619047619"/><line aria-label="timepoint (year-month): Sep 1996; timepoint_other (year-month): Sep 1997; y_position: 0.3871; y_position_other: 0.5128; flow: 0.012" role="graphics-symbol" aria-roledescription="rule mark" transform="translate(100,183.87)" x2="200" y2="-37.71000000000001" stroke="#999999" stroke-width="0" opacity="0.3119047619047619"/><line aria-label="timepoint (year-month): Sep 1996; timepoint_other (year-month): Sep 1997; y_position: 0.4516; y_position_other: 0.8718; flow: 0.012" role="graphics-symbol" aria-roledescription="rule mark" transform="translate(100,164.52)" x2="200" y2="-126.06000000000002" stroke="#999999" stroke-width="0" opacity="0.3119047619047619"/><line aria-label="timepoint (year-month): Sep 1996; timepoint_other (year-month): Sep 1997; y_position: 0.4839; y_position_other: 0.9744; flow: 0.013" role="graphics-symbol" aria-roledescription="rule mark" transform="translate(100,154.83)" x2="200" y2="-147.15000000000003" stroke="#999999" stroke-width="0" opacity="0.32380952380952377"/><line aria-label="timepoint (year-month): Sep 1996; timepoint_other (year-month): Sep 1997; y_position: 0.5161; y_position_other: 0.9231; flow: 0.018" role="graphics-symbol" aria-roledescription="rule mark" transform="translate(100,145.17)" x2="200" y2="-122.1" stroke="#999999" stroke-width="0" opacity="0.3833333333333333"/><line aria-label="timepoint (year-month): Sep 1996; timepoint_other (year-month): Sep 1997; y_position: 0.5484; y_position_other: 0.5641; flow: 0.014" role="graphics-symbol" aria-roledescription="rule mark" transform="translate(100,135.48)" x2="200" y2="-4.710000000000008" stroke="#999999" stroke-width="0" opacity="0.33571428571428574"/><line aria-label="timepoint (year-month): Sep 1996; timepoint_other (year-month): Sep 1997; y_position: 0.5806; y_position_other: 0.4359; flow: 0.016" role="graphics-symbol" aria-roledescription="rule mark" transform="translate(100,125.82)" x2="200" y2="43.410000000000025" stroke="#999999" stroke-width="0" opacity="0.3595238095238096"/><line aria-label="timepoint (year-month): Sep 1996; timepoint_other (year-month): Sep 1997; y_position: 0.5806; y_position_other: 0.4872; flow: 0.014" role="graphics-symbol" aria-roledescription="rule mark" transform="translate(100,125.82)" x2="200" y2="28.019999999999982" stroke="#999999" stroke-width="0" opacity="0.33571428571428574"/><line aria-label="timepoint (year-month): Sep 1996; timepoint_other (year-month): Sep 1997; y_position: 0.6129; y_position_other: 0.8974; flow: 0.022" role="graphics-symbol" aria-roledescription="rule mark" transform="translate(100,116.13)" x2="200" y2="-85.35" stroke="#999999" stroke-width="0" opacity="0.430952380952381"/><line aria-label="timepoint (year-month): Sep 1996; timepoint_other (year-month): Sep 1997; y_position: 0.6129; y_position_other: 0.9744; flow: 0.011" role="graphics-symbol" aria-roledescription="rule mark" transform="translate(100,116.13)" x2="200" y2="-108.45" stroke="#999999" stroke-width="0" opacity="0.3"/><line aria-label="timepoint (year-month): Sep 1996; timepoint_other (year-month): Sep 1997; y_position: 0.6452; y_position_other: 0.2308; flow: 0.012" role="graphics-symbol" aria-roledescription="rule mark" transform="translate(100,106.44)" x2="200" y2="124.32" stroke="#999999" stroke-width="0" opacity="0.3119047619047619"/><line aria-label="timepoint (year-month): Sep 1996; timepoint_other (year-month): Sep 1997; y_position: 0.6452; y_position_other: 0.3077; flow: 0.013" role="graphics-symbol" aria-roledescription="rule mark" transform="translate(100,106.44)" x2="200" y2="101.25" stroke="#999999" stroke-width="0" opacity="0.32380952380952377"/><line aria-label="timepoint (year-month): Sep 1996; timepoint_other (year-month): Sep 1997; y_position: 0.6774; y_position_other: 0.9744; flow: 0.031" role="graphics-symbol" aria-roledescription="rule mark" transform="translate(100,96.78)" x2="200" y2="-89.10000000000001" stroke="#999999" stroke-width="0" opacity="0.5380952380952382"/><line aria-label="timepoint (year-month): Sep 1996; timepoint_other (year-month): Sep 1997; y_position: 0.6774; y_position_other: 0.7436; flow: 0.014" role="graphics-symbol" aria-roledescription="rule mark" transform="translate(100,96.78)" x2="200" y2="-19.860000000000014" stroke="#999999" stroke-width="0" opacity="0.33571428571428574"/><line aria-label="timepoint (year-month): Sep 1996; timepoint_other (year-month): Sep 1997; y_position: 0.7097; y_position_other: 0.8718; flow: 0.022" role="graphics-symbol" aria-roledescription="rule mark" transform="translate(100,87.09)" x2="200" y2="-48.63000000000001" stroke="#999999" stroke-width="0" opacity="0.430952380952381"/><line aria-label="timepoint (year-month): Sep 1996; timepoint_other (year-month): Sep 1997; y_position: 0.7097; y_position_other: 0.8974; flow: 0.026" role="graphics-symbol" aria-roledescription="rule mark" transform="translate(100,87.09)" x2="200" y2="-56.309999999999995" stroke="#999999" stroke-width="0" opacity="0.4785714285714286"/><line aria-label="timepoint (year-month): Sep 1996; timepoint_other (year-month): Sep 1997; y_position: 0.7419; y_position_other: 0.4615; flow: 0.022" role="graphics-symbol" aria-roledescription="rule mark" transform="translate(100,77.42999999999999)" x2="200" y2="84.11999999999999" stroke="#999999" stroke-width="0" opacity="0.430952380952381"/><line aria-label="timepoint (year-month): Sep 1996; timepoint_other (year-month): Sep 1997; y_position: 0.7419; y_position_other: 0.7436; flow: 0.026" role="graphics-symbol" aria-roledescription="rule mark" transform="translate(100,77.42999999999999)" x2="200" y2="-0.5100000000000051" stroke="#999999" stroke-width="0" opacity="0.4785714285714286"/><line aria-label="timepoint (year-month): Sep 1996; timepoint_other (year-month): Sep 1997; y_position: 0.7742; y_position_other: 0.6923; flow: 0.038" role="graphics-symbol" aria-roledescription="rule mark" transform="translate(100,67.74)" x2="200" y2="24.569999999999993" stroke="#999999" stroke-width="0" opacity="0.6214285714285714"/><line aria-label="timepoint (year-month): Sep 1996; timepoint_other (year-month): Sep 1997; y_position: 0.8065; y_position_other: 0.9231; flow: 0.015" role="graphics-symbol" aria-roledescription="rule mark" transform="translate(100,58.050000000000004)" x2="200" y2="-34.98000000000002" stroke="#999999" stroke-width="0" opacity="0.3476190476190476"/><line aria-label="timepoint (year-month): Sep 1996; timepoint_other (year-month): Sep 1997; y_position: 0.8065; y_position_other: 0.2821; flow: 0.014" role="graphics-symbol" aria-roledescription="rule mark" transform="translate(100,58.050000000000004)" x2="200" y2="157.32" stroke="#999999" stroke-width="0" opacity="0.33571428571428574"/><line aria-label="timepoint (year-month): Sep 1996; timepoint_other (year-month): Sep 1997; y_position: 0.8065; y_position_other: 0.3333; flow: 0.016" role="graphics-symbol" aria-roledescription="rule mark" transform="translate(100,58.050000000000004)" x2="200" y2="141.96" stroke="#999999" stroke-width="0" opacity="0.3595238095238096"/><line aria-label="timepoint (year-month): Sep 1996; timepoint_other (year-month): Sep 1997; y_position: 0.8065; y_position_other: 0.4103; flow: 0.019" role="graphics-symbol" aria-roledescription="rule mark" transform="translate(100,58.050000000000004)" x2="200" y2="118.85999999999999" stroke="#999999" stroke-width="0" opacity="0.3952380952380953"/><line aria-label="timepoint (year-month): Sep 1996; timepoint_other (year-month): Sep 1997; y_position: 0.8065; y_position_other: 0.8205; flow: 0.017" role="graphics-symbol" aria-roledescription="rule mark" transform="translate(100,58.050000000000004)" x2="200" y2="-4.20000000000001" stroke="#999999" stroke-width="0" opacity="0.37142857142857144"/><line aria-label="timepoint (year-month): Sep 1996; timepoint_other (year-month): Sep 1997; y_position: 0.8387; y_position_other: 0.5897; flow: 0.024" role="graphics-symbol" aria-roledescription="rule mark" transform="translate(100,48.39)" x2="200" y2="74.7" stroke="#999999" stroke-width="0" opacity="0.4547619047619048"/><line aria-label="timepoint (year-month): Sep 1996; timepoint_other (year-month): Sep 1997; y_position: 0.8387; y_position_other: 0.6667; flow: 0.035" role="graphics-symbol" aria-roledescription="rule mark" transform="translate(100,48.39)" x2="200" y2="51.60000000000001" stroke="#999999" stroke-width="0" opacity="0.5857142857142859"/><line aria-label="timepoint (year-month): Sep 1996; timepoint_other (year-month): Sep 1997; y_position: 0.8387; y_position_other: 0.7692; flow: 0.03" role="graphics-symbol" aria-roledescription="rule mark" transform="translate(100,48.39)" x2="200" y2="20.849999999999994" stroke="#999999" stroke-width="0" opacity="0.5261904761904762"/><line aria-label="timepoint (year-month): Sep 1996; timepoint_other (year-month): Sep 1997; y_position: 0.871; y_position_other: 0.7179; flow: 0.014" role="graphics-symbol" aria-roledescription="rule mark" transform="translate(100,38.7)" x2="200" y2="45.93000000000001" stroke="#999999" stroke-width="0" opacity="0.33571428571428574"/><line aria-label="timepoint (year-month): Sep 1996; timepoint_other (year-month): Sep 1997; y_position: 0.871; y_position_other: 0.2564; flow: 0.014" role="graphics-symbol" aria-roledescription="rule mark" transform="translate(100,38.7)" x2="200" y2="184.38" stroke="#999999" stroke-width="0" opacity="0.33571428571428574"/><line aria-label="timepoint (year-month): Sep 1996; timepoint_other (year-month): Sep 1997; y_position: 0.871; y_position_other: 0.6154; flow: 0.033" role="graphics-symbol" aria-roledescription="rule mark" transform="translate(100,38.7)" x2="200" y2="76.68" stroke="#999999" stroke-width="0" opacity="0.561904761904762"/><line aria-label="timepoint (year-month): Sep 1996; timepoint_other (year-month): Sep 1997; y_position: 0.871; y_position_other: 0.3846; flow: 0.018" role="graphics-symbol" aria-roledescription="rule mark" transform="translate(100,38.7)" x2="200" y2="145.91999999999996" stroke="#999999" stroke-width="0" opacity="0.3833333333333333"/><line aria-label="timepoint (year-month): Sep 1996; timepoint_other (year-month): Sep 1997; y_position: 0.9032; y_position_other: 0.359; flow: 0.018" role="graphics-symbol" aria-roledescription="rule mark" transform="translate(100,29.04)" x2="200" y2="163.26000000000002" stroke="#999999" stroke-width="0" opacity="0.3833333333333333"/><line aria-label="timepoint (year-month): Sep 1996; timepoint_other (year-month): Sep 1997; y_position: 0.9032; y_position_other: 0.7692; flow: 0.011" role="graphics-symbol" aria-roledescription="rule mark" transform="translate(100,29.04)" x2="200" y2="40.199999999999996" stroke="#999999" stroke-width="0" opacity="0.3"/><line aria-label="timepoint (year-month): Sep 1996; timepoint_other (year-month): Sep 1997; y_position: 0.9032; y_position_other: 0.7949; flow: 0.04" role="graphics-symbol" aria-roledescription="rule mark" transform="translate(100,29.04)" x2="200" y2="32.48999999999999" stroke="#999999" stroke-width="0" opacity="0.6452380952380954"/><line aria-label="timepoint (year-month): Sep 1996; timepoint_other (year-month): Sep 1997; y_position: 0.9032; y_position_other: 0.8205; flow: 0.026" role="graphics-symbol" aria-roledescription="rule mark" transform="translate(100,29.04)" x2="200" y2="24.809999999999995" stroke="#999999" stroke-width="0" opacity="0.4785714285714286"/><line aria-label="timepoint (year-month): Sep 1996; timepoint_other (year-month): Sep 1997; y_position: 0.9355; y_position_other: 0.7179; flow: 0.025" role="graphics-symbol" aria-roledescription="rule mark" transform="translate(100,19.35)" x2="200" y2="65.28" stroke="#999999" stroke-width="0" opacity="0.46666666666666673"/><line aria-label="timepoint (year-month): Sep 1996; timepoint_other (year-month): Sep 1997; y_position: 0.9355; y_position_other: 0.5385; flow: 0.024" role="graphics-symbol" aria-roledescription="rule mark" transform="translate(100,19.35)" x2="200" y2="119.10000000000002" stroke="#999999" stroke-width="0" opacity="0.4547619047619048"/><line aria-label="timepoint (year-month): Sep 1996; timepoint_other (year-month): Sep 1997; y_position: 0.9355; y_position_other: 0.8462; flow: 0.044" role="graphics-symbol" aria-roledescription="rule mark" transform="translate(100,19.35)" x2="200" y2="26.790000000000013" stroke="#999999" stroke-width="0" opacity="0.692857142857143"/><line aria-label="timepoint (year-month): Sep 1996; timepoint_other (year-month): Sep 1997; y_position: 0.9677; y_position_other: 0.9487; flow: 0.053" role="graphics-symbol" aria-roledescription="rule mark" transform="translate(100,9.689999999999998)" x2="200" y2="5.700000000000006" stroke="#999999" stroke-width="0" opacity="0.8"/><line aria-label="timepoint (year-month): Sep 1996; timepoint_other (year-month): Sep 1997; y_position: 0.9677; y_position_other: 0.641; flow: 0.035" role="graphics-symbol" aria-roledescription="rule mark" transform="translate(100,9.689999999999998)" x2="200" y2="98.00999999999999" stroke="#999999" stroke-width="0" opacity="0.5857142857142859"/></g><g class="mark-symbol role-mark layer_1_marks" role="graphics-object" aria-roledescription="symbol mark container"><path aria-label="timepoint (year-month): Sep 1996; y_position: 0; frequency: 0.0011" role="graphics-symbol" aria-roledescription="circle" transform="translate(100,300)" d="M1.005970960765856,0A1.005970960765856,1.005970960765856,0,1,1,-1.005970960765856,0A1.005970960765856,1.005970960765856,0,1,1,1.005970960765856,0" fill="#4c78a8" stroke-width="2" opacity="0.7"/><path aria-label="timepoint (year-month): Sep 1996; y_position: 0.0323; frequency: 0.0011" role="graphics-symbol" aria-roledescription="circle" transform="translate(100,290.31)" d="M1.005970960765856,0A1.005970960765856,1.005970960765856,0,1,1,-1.005970960765856,0A1.005970960765856,1.005970960765856,0,1,1,1.005970960765856,0" fill="#4c78a8" stroke-width="2" opacity="0.7"/><path aria-label="timepoint (year-month): Sep 1996; y_position: 0.0645; frequency: 0.0013" role="graphics-symbol" aria-roledescription="circle" transform="translate(100,280.65)" d="M1.0936057317114847,0A1.0936057317114847,1.0936057317114847,0,1,1,-1.0936057317114847,0A1.0936057317114847,1.0936057317114847,0,1,1,1.0936057317114847,0" fill="#4c78a8" stroke-width="2" opacity="0.7"/><path aria-label="timepoint (year-month): Sep 1996; y_position: 0.0968; frequency: 0.0014" role="graphics-symbol" aria-roledescription="circle" transform="translate(100,270.96)" d="M1.1348883018589222,0A1.1348883018589222,1.1348883018589222,0,1,1,-1.1348883018589222,0A1.1348883018589222,1.1348883018589222,0,1,1,1.1348883018589222,0" fill="#4c78a8" stroke-width="2" opacity="0.7"/><path aria-label="timepoint (year-month): Sep 1996; y_position: 0.129; frequency: 0.0016" role="graphics-symbol" aria-roledescription="circle" transform="translate(100,261.3)" d="M1.2132466279467917,0A1.2132466279467917,1.2132466279467917,0,1,1,-1.2132466279467917,0A1.2132466279467917,1.2132466279467917,0,1,1,1.2132466279467917,0" fill="#4c78a8" stroke-width="2" opacity="0.7"/><path aria-label="timepoint (year-month): Sep 1996; y_position: 0.1613; frequency: 0.0026" role="graphics-symbol" aria-roledescription="circle" transform="translate(100,251.61)" d="M1.546592057675334,0A1.546592057675334,1.546592057675334,0,1,1,-1.546592057675334,0A1.546592057675334,1.546592057675334,0,1,1,1.546592057675334,0" fill="#4c78a8" stroke-width="2" opacity="0.7"/><path aria-label="timepoint (year-month): Sep 1996; y_position: 0.1935; frequency: 0.003" role="graphics-symbol" aria-roledescription="circle" transform="translate(100,241.95)" d="M1.6613063648588389,0A1.6613063648588389,1.6613063648588389,0,1,1,-1.6613063648588389,0A1.6613063648588389,1.6613063648588389,0,1,1,1.6613063648588389,0" fill="#4c78a8" stroke-width="2" opacity="0.7"/><path aria-label="timepoint (year-month): Sep 1996; y_position: 0.2258; frequency: 0.0044" role="graphics-symbol" aria-roledescription="circle" transform="translate(100,232.26)" d="M2.011941921531712,0A2.011941921531712,2.011941921531712,0,1,1,-2.011941921531712,0A2.011941921531712,2.011941921531712,0,1,1,2.011941921531712,0" fill="#4c78a8" stroke-width="2" opacity="0.7"/><path aria-label="timepoint (year-month): Sep 1996; y_position: 0.2581; frequency: 0.0068" role="graphics-symbol" aria-roledescription="circle" transform="translate(100,222.57)" d="M2.501171998474537,0A2.501171998474537,2.501171998474537,0,1,1,-2.501171998474537,0A2.501171998474537,2.501171998474537,0,1,1,2.501171998474537,0" fill="#4c78a8" stroke-width="2" opacity="0.7"/><path aria-label="timepoint (year-month): Sep 1996; y_position: 0.2903; frequency: 0.0091" role="graphics-symbol" aria-roledescription="circle" transform="translate(100,212.91)" d="M2.893408798463412,0A2.893408798463412,2.893408798463412,0,1,1,-2.893408798463412,0A2.893408798463412,2.893408798463412,0,1,1,2.893408798463412,0" fill="#4c78a8" stroke-width="2" opacity="0.7"/><path aria-label="timepoint (year-month): Sep 1996; y_position: 0.3226; frequency: 0.0105" role="graphics-symbol" aria-roledescription="circle" transform="translate(100,203.22)" d="M3.1080196158843196,0A3.1080196158843196,3.1080196158843196,0,1,1,-3.1080196158843196,0A3.1080196158843196,3.1080196158843196,0,1,1,3.1080196158843196,0" fill="#4c78a8" stroke-width="2" opacity="0.7"/><path aria-label="timepoint (year-month): Sep 1996; y_position: 0.3548; frequency: 0.0116" role="graphics-symbol" aria-roledescription="circle" transform="translate(100,193.56)" d="M3.266766521596836,0A3.266766521596836,3.266766521596836,0,1,1,-3.266766521596836,0A3.266766521596836,3.266766521596836,0,1,1,3.266766521596836,0" fill="#4c78a8" stroke-width="2" opacity="0.7"/><path aria-label="timepoint (year-month): Sep 1996; y_position: 0.3871; frequency: 0.0116" role="graphics-symbol" aria-roledescription="circle" transform="translate(100,183.87)" d="M3.266766521596836,0A3.266766521596836,3.266766521596836,0,1,1,-3.266766521596836,0A3.266766521596836,3.266766521596836,0,1,1,3.266766521596836,0" fill="#4c78a8" stroke-width="2" opacity="0.7"/><path aria-label="timepoint (year-month): Sep 1996; y_position: 0.4194; frequency: 0.0116" role="graphics-symbol" aria-roledescription="circle" transform="translate(100,174.18)" d="M3.266766521596836,0A3.266766521596836,3.266766521596836,0,1,1,-3.266766521596836,0A3.266766521596836,3.266766521596836,0,1,1,3.266766521596836,0" fill="#4c78a8" stroke-width="2" opacity="0.7"/><path aria-label="timepoint (year-month): Sep 1996; y_position: 0.4516; frequency: 0.0116" role="graphics-symbol" aria-roledescription="circle" transform="translate(100,164.52)" d="M3.266766521596836,0A3.266766521596836,3.266766521596836,0,1,1,-3.266766521596836,0A3.266766521596836,3.266766521596836,0,1,1,3.266766521596836,0" fill="#4c78a8" stroke-width="2" opacity="0.7"/><path aria-label="timepoint (year-month): Sep 1996; y_position: 0.4839; frequency: 0.0128" role="graphics-symbol" aria-roledescription="circle" transform="translate(100,154.83)" d="M3.431579671491555,0A3.431579671491555,3.431579671491555,0,1,1,-3.431579671491555,0A3.431579671491555,3.431579671491555,0,1,1,3.431579671491555,0" fill="#4c78a8" stroke-width="2" opacity="0.7"/><path aria-label="timepoint (year-month): Sep 1996; y_position: 0.5161; frequency: 0.0176" role="graphics-symbol" aria-roledescription="circle" transform="translate(100,145.17)" d="M4.023883843063424,0A4.023883843063424,4.023883843063424,0,1,1,-4.023883843063424,0A4.023883843063424,4.023883843063424,0,1,1,4.023883843063424,0" fill="#4c78a8" stroke-width="2" opacity="0.7"/><path aria-label="timepoint (year-month): Sep 1996; y_position: 0.5484; frequency: 0.0236" role="graphics-symbol" aria-roledescription="circle" transform="translate(100,135.48)" d="M4.659562088684713,0A4.659562088684713,4.659562088684713,0,1,1,-4.659562088684713,0A4.659562088684713,4.659562088684713,0,1,1,4.659562088684713,0" fill="#4c78a8" stroke-width="2" opacity="0.7"/><path aria-label="timepoint (year-month): Sep 1996; y_position: 0.5806; frequency: 0.0331" role="graphics-symbol" aria-roledescription="circle" transform="translate(100,125.82)" d="M5.518271937698376,0A5.518271937698376,5.518271937698376,0,1,1,-5.518271937698376,0A5.518271937698376,5.518271937698376,0,1,1,5.518271937698376,0" fill="#4c78a8" stroke-width="2" opacity="0.7"/><path aria-label="timepoint (year-month): Sep 1996; y_position: 0.6129; frequency: 0.0331" role="graphics-symbol" aria-roledescription="circle" transform="translate(100,116.13)" d="M5.518271937698376,0A5.518271937698376,5.518271937698376,0,1,1,-5.518271937698376,0A5.518271937698376,5.518271937698376,0,1,1,5.518271937698376,0" fill="#4c78a8" stroke-width="2" opacity="0.7"/><path aria-label="timepoint (year-month): Sep 1996; y_position: 0.6452; frequency: 0.0339" role="graphics-symbol" aria-roledescription="circle" transform="translate(100,106.44)" d="M5.584559863454015,0A5.584559863454015,5.584559863454015,0,1,1,-5.584559863454015,0A5.584559863454015,5.584559863454015,0,1,1,5.584559863454015,0" fill="#4c78a8" stroke-width="2" opacity="0.7"/><path aria-label="timepoint (year-month): Sep 1996; y_position: 0.6774; frequency: 0.0462" role="graphics-symbol" aria-roledescription="circle" transform="translate(100,96.78)" d="M6.519436946851739,0A6.519436946851739,6.519436946851739,0,1,1,-6.519436946851739,0A6.519436946851739,6.519436946851739,0,1,1,6.519436946851739,0" fill="#4c78a8" stroke-width="2" opacity="0.7"/><path aria-label="timepoint (year-month): Sep 1996; y_position: 0.7097; frequency: 0.048" role="graphics-symbol" aria-roledescription="circle" transform="translate(100,87.09)" d="M6.6452254594353555,0A6.6452254594353555,6.6452254594353555,0,1,1,-6.6452254594353555,0A6.6452254594353555,6.6452254594353555,0,1,1,6.6452254594353555,0" fill="#4c78a8" stroke-width="2" opacity="0.7"/><path aria-label="timepoint (year-month): Sep 1996; y_position: 0.7419; frequency: 0.048" role="graphics-symbol" aria-roledescription="circle" transform="translate(100,77.42999999999999)" d="M6.6452254594353555,0A6.6452254594353555,6.6452254594353555,0,1,1,-6.6452254594353555,0A6.6452254594353555,6.6452254594353555,0,1,1,6.6452254594353555,0" fill="#4c78a8" stroke-width="2" opacity="0.7"/><path aria-label="timepoint (year-month): Sep 1996; y_position: 0.7742; frequency: 0.0538" role="graphics-symbol" aria-roledescription="circle" transform="translate(100,67.74)" d="M7.035261413767136,0A7.035261413767136,7.035261413767136,0,1,1,-7.035261413767136,0A7.035261413767136,7.035261413767136,0,1,1,7.035261413767136,0" fill="#4c78a8" stroke-width="2" opacity="0.7"/><path aria-label="timepoint (year-month): Sep 1996; y_position: 0.8065; frequency: 0.0835" role="graphics-symbol" aria-roledescription="circle" transform="translate(100,58.050000000000004)" d="M8.764604820267348,0A8.764604820267348,8.764604820267348,0,1,1,-8.764604820267348,0A8.764604820267348,8.764604820267348,0,1,1,8.764604820267348,0" fill="#4c78a8" stroke-width="2" opacity="0.7"/><path aria-label="timepoint (year-month): Sep 1996; y_position: 0.8387; frequency: 0.0886" role="graphics-symbol" aria-roledescription="circle" transform="translate(100,48.39)" d="M9.028299600695496,0A9.028299600695496,9.028299600695496,0,1,1,-9.028299600695496,0A9.028299600695496,9.028299600695496,0,1,1,9.028299600695496,0" fill="#4c78a8" stroke-width="2" opacity="0.7"/><path aria-label="timepoint (year-month): Sep 1996; y_position: 0.871; frequency: 0.0947" role="graphics-symbol" aria-roledescription="circle" transform="translate(100,38.7)" d="M9.333920361617805,0A9.333920361617805,9.333920361617805,0,1,1,-9.333920361617805,0A9.333920361617805,9.333920361617805,0,1,1,9.333920361617805,0" fill="#4c78a8" stroke-width="2" opacity="0.7"/><path aria-label="timepoint (year-month): Sep 1996; y_position: 0.9032; frequency: 0.0959" role="graphics-symbol" aria-roledescription="circle" transform="translate(100,29.04)" d="M9.392872023624703,0A9.392872023624703,9.392872023624703,0,1,1,-9.392872023624703,0A9.392872023624703,9.392872023624703,0,1,1,9.392872023624703,0" fill="#4c78a8" stroke-width="2" opacity="0.7"/><path aria-label="timepoint (year-month): Sep 1996; y_position: 0.9355; frequency: 0.0981" role="graphics-symbol" aria-roledescription="circle" transform="translate(100,19.35)" d="M9.5,0A9.5,9.5,0,1,1,-9.5,0A9.5,9.5,0,1,1,9.5,0" fill="#4c78a8" stroke-width="2" opacity="0.7"/><path aria-label="timepoint (year-month): Sep 1996; y_position: 0.9677; frequency: 0.0981" role="graphics-symbol" aria-roledescription="circle" transform="translate(100,9.689999999999998)" d="M9.5,0A9.5,9.5,0,1,1,-9.5,0A9.5,9.5,0,1,1,9.5,0" fill="#4c78a8" stroke-width="2" opacity="0.7"/><path aria-label="timepoint (year-month): Sep 1997; y_position: 0; frequency: 0.001" role="graphics-symbol" aria-roledescription="circle" transform="translate(300,300)" d="M0.9591556769576892,0A0.9591556769576892,0.9591556769576892,0,1,1,-0.9591556769576892,0A0.9591556769576892,0.9591556769576892,0,1,1,0.9591556769576892,0" fill="#4c78a8" stroke-width="2" opacity="0.7"/><path aria-label="timepoint (year-month): Sep 1997; y_position: 0.0256; frequency: 0.0015" role="graphics-symbol" aria-roledescription="circle" transform="translate(300,292.32)" d="M1.1747209962200578,0A1.1747209962200578,1.1747209962200578,0,1,1,-1.1747209962200578,0A1.1747209962200578,1.1747209962200578,0,1,1,1.1747209962200578,0" fill="#4c78a8" stroke-width="2" opacity="0.7"/><path aria-label="timepoint (year-month): Sep 1997; y_position: 0.0513; frequency: 0.004" role="graphics-symbol" aria-roledescription="circle" transform="translate(300,284.61)" d="M1.9183113539153784,0A1.9183113539153784,1.9183113539153784,0,1,1,-1.9183113539153784,0A1.9183113539153784,1.9183113539153784,0,1,1,1.9183113539153784,0" fill="#4c78a8" stroke-width="2" opacity="0.7"/><path aria-label="timepoint (year-month): Sep 1997; y_position: 0.0769; frequency: 0.004" role="graphics-symbol" aria-roledescription="circle" transform="translate(300,276.93)" d="M1.9183113539153784,0A1.9183113539153784,1.9183113539153784,0,1,1,-1.9183113539153784,0A1.9183113539153784,1.9183113539153784,0,1,1,1.9183113539153784,0" fill="#4c78a8" stroke-width="2" opacity="0.7"/><path aria-label="timepoint (year-month): Sep 1997; y_position: 0.1026; frequency: 0.0091" role="graphics-symbol" aria-roledescription="circle" transform="translate(300,269.21999999999997)" d="M2.893408798463412,0A2.893408798463412,2.893408798463412,0,1,1,-2.893408798463412,0A2.893408798463412,2.893408798463412,0,1,1,2.893408798463412,0" fill="#4c78a8" stroke-width="2" opacity="0.7"/><path aria-label="timepoint (year-month): Sep 1997; y_position: 0.1282; frequency: 0.0091" role="graphics-symbol" aria-roledescription="circle" transform="translate(300,261.54)" d="M2.893408798463412,0A2.893408798463412,2.893408798463412,0,1,1,-2.893408798463412,0A2.893408798463412,2.893408798463412,0,1,1,2.893408798463412,0" fill="#4c78a8" stroke-width="2" opacity="0.7"/><path aria-label="timepoint (year-month): Sep 1997; y_position: 0.1538; frequency: 0.0091" role="graphics-symbol" aria-roledescription="circle" transform="translate(300,253.86)" d="M2.893408798463412,0A2.893408798463412,2.893408798463412,0,1,1,-2.893408798463412,0A2.893408798463412,2.893408798463412,0,1,1,2.893408798463412,0" fill="#4c78a8" stroke-width="2" opacity="0.7"/><path aria-label="timepoint (year-month): Sep 1997; y_position: 0.1795; frequency: 0.0094" role="graphics-symbol" aria-roledescription="circle" transform="translate(300,246.15)" d="M2.940715620187973,0A2.940715620187973,2.940715620187973,0,1,1,-2.940715620187973,0A2.940715620187973,2.940715620187973,0,1,1,2.940715620187973,0" fill="#4c78a8" stroke-width="2" opacity="0.7"/><path aria-label="timepoint (year-month): Sep 1997; y_position: 0.2051; frequency: 0.0104" role="graphics-symbol" aria-roledescription="circle" transform="translate(300,238.46999999999997)" d="M3.093184115350668,0A3.093184115350668,3.093184115350668,0,1,1,-3.093184115350668,0A3.093184115350668,3.093184115350668,0,1,1,3.093184115350668,0" fill="#4c78a8" stroke-width="2" opacity="0.7"/><path aria-label="timepoint (year-month): Sep 1997; y_position: 0.2308; frequency: 0.0121" role="graphics-symbol" aria-roledescription="circle" transform="translate(300,230.76)" d="M3.3364282268536773,0A3.3364282268536773,3.3364282268536773,0,1,1,-3.3364282268536773,0A3.3364282268536773,3.3364282268536773,0,1,1,3.3364282268536773,0" fill="#4c78a8" stroke-width="2" opacity="0.7"/><path aria-label="timepoint (year-month): Sep 1997; y_position: 0.2564; frequency: 0.0136" role="graphics-symbol" aria-roledescription="circle" transform="translate(300,223.08)" d="M3.537191362070508,0A3.537191362070508,3.537191362070508,0,1,1,-3.537191362070508,0A3.537191362070508,3.537191362070508,0,1,1,3.537191362070508,0" fill="#4c78a8" stroke-width="2" opacity="0.7"/><path aria-label="timepoint (year-month): Sep 1997; y_position: 0.2821; frequency: 0.0144" role="graphics-symbol" aria-roledescription="circle" transform="translate(300,215.37)" d="M3.639739883840375,0A3.639739883840375,3.639739883840375,0,1,1,-3.639739883840375,0A3.639739883840375,3.639739883840375,0,1,1,3.639739883840375,0" fill="#4c78a8" stroke-width="2" opacity="0.7"/><path aria-label="timepoint (year-month): Sep 1997; y_position: 0.3077; frequency: 0.0153" role="graphics-symbol" aria-roledescription="circle" transform="translate(300,207.69)" d="M3.751757997711805,0A3.751757997711805,3.751757997711805,0,1,1,-3.751757997711805,0A3.751757997711805,3.751757997711805,0,1,1,3.751757997711805,0" fill="#4c78a8" stroke-width="2" opacity="0.7"/><path aria-label="timepoint (year-month): Sep 1997; y_position: 0.3333; frequency: 0.0157" role="graphics-symbol" aria-roledescription="circle" transform="translate(300,200.01000000000002)" d="M3.8004841689514457,0A3.8004841689514457,3.8004841689514457,0,1,1,-3.8004841689514457,0A3.8004841689514457,3.8004841689514457,0,1,1,3.8004841689514457,0" fill="#4c78a8" stroke-width="2" opacity="0.7"/><path aria-label="timepoint (year-month): Sep 1997; y_position: 0.359; frequency: 0.0175" role="graphics-symbol" aria-roledescription="circle" transform="translate(300,192.3)" d="M4.012436070668648,0A4.012436070668648,4.012436070668648,0,1,1,-4.012436070668648,0A4.012436070668648,4.012436070668648,0,1,1,4.012436070668648,0" fill="#4c78a8" stroke-width="2" opacity="0.7"/><path aria-label="timepoint (year-month): Sep 1997; y_position: 0.3846; frequency: 0.0175" role="graphics-symbol" aria-roledescription="circle" transform="translate(300,184.61999999999998)" d="M4.012436070668648,0A4.012436070668648,4.012436070668648,0,1,1,-4.012436070668648,0A4.012436070668648,4.012436070668648,0,1,1,4.012436070668648,0" fill="#4c78a8" stroke-width="2" opacity="0.7"/><path aria-label="timepoint (year-month): Sep 1997; y_position: 0.4103; frequency: 0.019" role="graphics-symbol" aria-roledescription="circle" transform="translate(300,176.91)" d="M4.180862666981911,0A4.180862666981911,4.180862666981911,0,1,1,-4.180862666981911,0A4.180862666981911,4.180862666981911,0,1,1,4.180862666981911,0" fill="#4c78a8" stroke-width="2" opacity="0.7"/><path aria-label="timepoint (year-month): Sep 1997; y_position: 0.4359; frequency: 0.022" role="graphics-symbol" aria-roledescription="circle" transform="translate(300,169.23000000000002)" d="M4.4988389033264555,0A4.4988389033264555,4.4988389033264555,0,1,1,-4.4988389033264555,0A4.4988389033264555,4.4988389033264555,0,1,1,4.4988389033264555,0" fill="#4c78a8" stroke-width="2" opacity="0.7"/><path aria-label="timepoint (year-month): Sep 1997; y_position: 0.4615; frequency: 0.022" role="graphics-symbol" aria-roledescription="circle" transform="translate(300,161.54999999999998)" d="M4.4988389033264555,0A4.4988389033264555,4.4988389033264555,0,1,1,-4.4988389033264555,0A4.4988389033264555,4.4988389033264555,0,1,1,4.4988389033264555,0" fill="#4c78a8" stroke-width="2" opacity="0.7"/><path aria-label="timepoint (year-month): Sep 1997; y_position: 0.4872; frequency: 0.022" role="graphics-symbol" aria-roledescription="circle" transform="translate(300,153.83999999999997)" d="M4.4988389033264555,0A4.4988389033264555,4.4988389033264555,0,1,1,-4.4988389033264555,0A4.4988389033264555,4.4988389033264555,0,1,1,4.4988389033264555,0" fill="#4c78a8" stroke-width="2" opacity="0.7"/><path aria-label="timepoint (year-month): Sep 1997; y_position: 0.5128; frequency: 0.022" role="graphics-symbol" aria-roledescription="circle" transform="translate(300,146.16)" d="M4.4988389033264555,0A4.4988389033264555,4.4988389033264555,0,1,1,-4.4988389033264555,0A4.4988389033264555,4.4988389033264555,0,1,1,4.4988389033264555,0" fill="#4c78a8" stroke-width="2" opacity="0.7"/><path aria-label="timepoint (year-month): Sep 1997; y_position: 0.5385; frequency: 0.0237" role="graphics-symbol" aria-roledescription="circle" transform="translate(300,138.45000000000002)" d="M4.669423606781876,0A4.669423606781876,4.669423606781876,0,1,1,-4.669423606781876,0A4.669423606781876,4.669423606781876,0,1,1,4.669423606781876,0" fill="#4c78a8" stroke-width="2" opacity="0.7"/><path aria-label="timepoint (year-month): Sep 1997; y_position: 0.5641; frequency: 0.0242" role="graphics-symbol" aria-roledescription="circle" transform="translate(300,130.76999999999998)" d="M4.718422048300888,0A4.718422048300888,4.718422048300888,0,1,1,-4.718422048300888,0A4.718422048300888,4.718422048300888,0,1,1,4.718422048300888,0" fill="#4c78a8" stroke-width="2" opacity="0.7"/><path aria-label="timepoint (year-month): Sep 1997; y_position: 0.5897; frequency: 0.0242" role="graphics-symbol" aria-roledescription="circle" transform="translate(300,123.09)" d="M4.718422048300888,0A4.718422048300888,4.718422048300888,0,1,1,-4.718422048300888,0A4.718422048300888,4.718422048300888,0,1,1,4.718422048300888,0" fill="#4c78a8" stroke-width="2" opacity="0.7"/><path aria-label="timepoint (year-month): Sep 1997; y_position: 0.6154; frequency: 0.0327" role="graphics-symbol" aria-roledescription="circle" transform="translate(300,115.38000000000001)" d="M5.484827557301444,0A5.484827557301444,5.484827557301444,0,1,1,-5.484827557301444,0A5.484827557301444,5.484827557301444,0,1,1,5.484827557301444,0" fill="#4c78a8" stroke-width="2" opacity="0.7"/><path aria-label="timepoint (year-month): Sep 1997; y_position: 0.641; frequency: 0.0346" role="graphics-symbol" aria-roledescription="circle" transform="translate(300,107.69999999999999)" d="M5.641922952092632,0A5.641922952092632,5.641922952092632,0,1,1,-5.641922952092632,0A5.641922952092632,5.641922952092632,0,1,1,5.641922952092632,0" fill="#4c78a8" stroke-width="2" opacity="0.7"/><path aria-label="timepoint (year-month): Sep 1997; y_position: 0.6667; frequency: 0.0346" role="graphics-symbol" aria-roledescription="circle" transform="translate(300,99.99000000000001)" d="M5.641922952092632,0A5.641922952092632,5.641922952092632,0,1,1,-5.641922952092632,0A5.641922952092632,5.641922952092632,0,1,1,5.641922952092632,0" fill="#4c78a8" stroke-width="2" opacity="0.7"/><path aria-label="timepoint (year-month): Sep 1997; y_position: 0.6923; frequency: 0.0385" role="graphics-symbol" aria-roledescription="circle" transform="translate(300,92.30999999999999)" d="M5.951404463372177,0A5.951404463372177,5.951404463372177,0,1,1,-5.951404463372177,0A5.951404463372177,5.951404463372177,0,1,1,5.951404463372177,0" fill="#4c78a8" stroke-width="2" opacity="0.7"/><path aria-label="timepoint (year-month): Sep 1997; y_position: 0.7179; frequency: 0.0398" role="graphics-symbol" aria-roledescription="circle" transform="translate(300,84.63000000000001)" d="M6.051048552364994,0A6.051048552364994,6.051048552364994,0,1,1,-6.051048552364994,0A6.051048552364994,6.051048552364994,0,1,1,6.051048552364994,0" fill="#4c78a8" stroke-width="2" opacity="0.7"/><path aria-label="timepoint (year-month): Sep 1997; y_position: 0.7436; frequency: 0.0398" role="graphics-symbol" aria-roledescription="circle" transform="translate(300,76.91999999999999)" d="M6.051048552364994,0A6.051048552364994,6.051048552364994,0,1,1,-6.051048552364994,0A6.051048552364994,6.051048552364994,0,1,1,6.051048552364994,0" fill="#4c78a8" stroke-width="2" opacity="0.7"/><path aria-label="timepoint (year-month): Sep 1997; y_position: 0.7692; frequency: 0.0404" role="graphics-symbol" aria-roledescription="circle" transform="translate(300,69.24)" d="M6.096488854304795,0A6.096488854304795,6.096488854304795,0,1,1,-6.096488854304795,0A6.096488854304795,6.096488854304795,0,1,1,6.096488854304795,0" fill="#4c78a8" stroke-width="2" opacity="0.7"/><path aria-label="timepoint (year-month): Sep 1997; y_position: 0.7949; frequency: 0.0404" role="graphics-symbol" aria-roledescription="circle" transform="translate(300,61.52999999999999)" d="M6.096488854304795,0A6.096488854304795,6.096488854304795,0,1,1,-6.096488854304795,0A6.096488854304795,6.096488854304795,0,1,1,6.096488854304795,0" fill="#4c78a8" stroke-width="2" opacity="0.7"/><path aria-label="timepoint (year-month): Sep 1997; y_position: 0.8205; frequency: 0.043" role="graphics-symbol" aria-roledescription="circle" transform="translate(300,53.849999999999994)" d="M6.2896043868853155,0A6.2896043868853155,6.2896043868853155,0,1,1,-6.2896043868853155,0A6.2896043868853155,6.2896043868853155,0,1,1,6.2896043868853155,0" fill="#4c78a8" stroke-width="2" opacity="0.7"/><path aria-label="timepoint (year-month): Sep 1997; y_position: 0.8462; frequency: 0.0469" role="graphics-symbol" aria-roledescription="circle" transform="translate(300,46.140000000000015)" d="M6.568640942601723,0A6.568640942601723,6.568640942601723,0,1,1,-6.568640942601723,0A6.568640942601723,6.568640942601723,0,1,1,6.568640942601723,0" fill="#4c78a8" stroke-width="2" opacity="0.7"/><path aria-label="timepoint (year-month): Sep 1997; y_position: 0.8718; frequency: 0.0475" role="graphics-symbol" aria-roledescription="circle" transform="translate(300,38.459999999999994)" d="M6.610524306014444,0A6.610524306014444,6.610524306014444,0,1,1,-6.610524306014444,0A6.610524306014444,6.610524306014444,0,1,1,6.610524306014444,0" fill="#4c78a8" stroke-width="2" opacity="0.7"/><path aria-label="timepoint (year-month): Sep 1997; y_position: 0.8974; frequency: 0.0481" role="graphics-symbol" aria-roledescription="circle" transform="translate(300,30.78000000000001)" d="M6.652143967773987,0A6.652143967773987,6.652143967773987,0,1,1,-6.652143967773987,0A6.652143967773987,6.652143967773987,0,1,1,6.652143967773987,0" fill="#4c78a8" stroke-width="2" opacity="0.7"/><path aria-label="timepoint (year-month): Sep 1997; y_position: 0.9231; frequency: 0.0512" role="graphics-symbol" aria-roledescription="circle" transform="translate(300,23.06999999999999)" d="M6.86315934298311,0A6.86315934298311,6.86315934298311,0,1,1,-6.86315934298311,0A6.86315934298311,6.86315934298311,0,1,1,6.86315934298311,0" fill="#4c78a8" stroke-width="2" opacity="0.7"/><path aria-label="timepoint (year-month): Sep 1997; y_position: 0.9487; frequency: 0.0535" role="graphics-symbol" aria-roledescription="circle" transform="translate(300,15.390000000000004)" d="M7.015618951756767,0A7.015618951756767,7.015618951756767,0,1,1,-7.015618951756767,0A7.015618951756767,7.015618951756767,0,1,1,7.015618951756767,0" fill="#4c78a8" stroke-width="2" opacity="0.7"/><path aria-label="timepoint (year-month): Sep 1997; y_position: 0.9744; frequency: 0.0625" role="graphics-symbol" aria-roledescription="circle" transform="translate(300,7.679999999999987)" d="M7.582791424667448,0A7.582791424667448,7.582791424667448,0,1,1,-7.582791424667448,0A7.582791424667448,7.582791424667448,0,1,1,7.582791424667448,0" fill="#4c78a8" stroke-width="2" opacity="0.7"/></g></g><path class="foreground" aria-hidden="true" d="" display="none"/></g></g></g></svg>