<svg xmlns="http://www.w3.org/2000/svg" xmlns:xlink="http://www.w3.org/1999/xlink" version="1.1" class="marks" width="973" height="471" viewBox="0 0 973 471"><rect width="973" height="471" fill="white"/><g fill="none" stroke-miterlimit="10" transform="translate(59,15)"><g class="mark-group role-frame root" role="graphics-object" aria-roledescription="group mark container"><g transform="translate(0,0)"><path class="background" aria-hidden="true" d="M0.5,0.5h600v400h-600Z" stroke="#ddd"/><g><g class="mark-group role-axis" aria-hidden="true"><g transform="translate(0.5,400.5)"><path class="background" aria-hidden="true" d="M0,0h0v0h0Z" pointer-events="none"/><g><g class="mark-rule role-axis-grid" pointer-events="none"><line transform="translate(10,-400)" x2="0" y2="400" stroke="#ddd" stroke-width="1" opacity="1"/><line transform="translate(50,-400)" x2="0" y2="400" stroke="#ddd" stroke-width="1" opacity="1"/><line transform="translate(90,-400)" x2="0" y2="400" stroke="#ddd" stroke-width="1" opacity="1"/><line transform="translate(130,-400)" x2="0" y2="400" stroke="#ddd" stroke-width="1" opacity="1"/><line transform="translate(170,-400)" x2="0" y2="400" stroke="#ddd" stroke-width="1" opacity="1"/><line transform="translate(210,-400)" x2="0" y2="400" stroke="#ddd" stroke-width="1" opacity="1"/><line transform="translate(250,-400)" x2="0" y2="400" stroke="#ddd" stroke-width="1" opacity="1"/><line transform="translate(290,-400)" x2="0" y2="400" stroke="#ddd" stroke-width="1" opacity="1"/><line transform="translate(330,-400)" x2="0" y2="400" stroke="#ddd" stroke-width="1" opacity="1"/><line transform="translate(370,-400)" x2="0" y2="400" stroke="#ddd" stroke-width="1" opacity="1"/><line transform="translate(410,-400)" x2="0" y2="400" stroke="#ddd" stroke-width="1" opacity="1"/><line transform="translate(450,-400)" x2="0" y2="400" stroke="#ddd" stroke-width="1" opacity="1"/><line transform="translate(490,-400)" x2="0" y2="400" stroke="#ddd" stroke-width="1" opacity="1"/><line transform="translate(530,-400)" x2="0" y2="400" stroke="#ddd" stroke-width="1" opacity="1"/><line transform="translate(570,-400)" x2="0" y2="400" stroke="#ddd" stroke-width="1" opacity="1"/></g></g><path class="foreground" aria-hidden="true" d="" pointer-events="none" display="none"/></g></g><g class="mark-group role-axis" aria-hidden="true"><g transform="translate(0.5,0.5)"><path class="background" aria-hidden="true" d="M0,0h0v0h0Z" pointer-events="none"/><g><g class="mark-rule role-axis-grid" pointer-events="none"><line transform="translate(0,400)" x2="600" y2="0" stroke="#ddd" stroke-width="1" opacity="1"/><line transform="translate(0,356)" x2="600" y2="0" stroke="#ddd" stroke-width="1" opacity="1"/><line transform="translate(0,311)" x2="600" y2="0" stroke="#ddd" stroke-width="1" opacity="1"/><line transform="translate(0,267)" x2="600" y2="0" stroke="#ddd" stroke-width="1" opacity="1"/><line transform="translate(0,222)" x2="600" y2="0" stroke="#ddd" stroke-width="1" opacity="1"/><line transform="translate(0,178)" x2="600" y2="0" stroke="#ddd" stroke-width="1" opacity="1"/><line transform="translate(0,133)" x2="600" y2="0" stroke="#ddd" stroke-width="1" opacity="1"/><line transform="translate(0,89)" x2="600" y2="0" stroke="#ddd" stroke-width="1" opacity="1"/><line transform="translate(0,44)" x2="600" y2="0" stroke="#ddd" stroke-width="1" opacity="1"/><line transform="translate(0,0)" x2="600" y2="0" stroke="#ddd" stroke-width="1" opacity="1"/></g></g><path class="foreground" aria-hidden="true" d="" pointer-events="none" display="none"/></g></g><g class="mark-group role-axis" role="graphics-symbol" aria-roledescription="axis" aria-label="X-axis titled 'Date' for a time scale with values from Tuesday, 30 September 2003, 5:00:00 PM to Sunday, 30 September 2018, 5:00:00 PM"><g transform="translate(0.5,400.5)"><path class="background" aria-hidden="true" d="M0,0h0v0h0Z" pointer-events="none"/><g><g class="mark-rule role-axis-tick" pointer-events="none"><line transform="translate(10,0)" x2="0" y2="5" stroke="#888" stroke-width="1" opacity="1"/><line transform="translate(50,0)" x2="0" y2="5" stroke="#888" stroke-width="1" opacity="1"/><line transform="translate(90,0)" x2="0" y2="5" stroke="#888" stroke-width="1" opacity="1"/><line transform="translate(130,0)" x2="0" y2="5" stroke="#888" stroke-width="1" opacity="1"/><line transform="translate(170,0)" x2="0" y2="5" stroke="#888" stroke-width="1" opacity="1"/><line transform="translate(210,0)" x2="0" y2="5" stroke="#888" stroke-width="1" opacity="1"/><line transform="translate(250,0)" x2="0" y2="5" stroke="#888" stroke-width="1" opacity="1"/><line transform="translate(290,0)" x2="0" y2="5" stroke="#888" stroke-width="1" opacity="1"/><line transform="translate(330,0)" x2="0" y2="5" stroke="#888" stroke-width="1" opacity="1"/><line transform="translate(370,0)" x2="0" y2="5" stroke="#888" stroke-width="1" opacity="1"/><line transform="translate(410,0)" x2="0" y2="5" stroke="#888" stroke-width="1" opacity="1"/><line transform="translate(450,0)" x2="0" y2="5" stroke="#888" stroke-width="1" opacity="1"/><line transform="translate(490,0)" x2="0" y2="5" stroke="#888" stroke-width="1" opacity="1"/><line transform="translate(530,0)" x2="0" y2="5" stroke="#888" stroke-width="1" opacity="1"/><line transform="translate(570,0)" x2="0" y2="5" stroke="#888" stroke-width="1" opacity="1"/></g><g class="mark-text role-axis-label" pointer-events="none"><text text-anchor="middle" transform="translate(10.11133418507027,23)" font-family="sans-serif" font-size="20px" fill="#000" opacity="1">2004</text><text text-anchor="middle" transform="translate(50.191640810366856,23)" font-family="sans-serif" font-size="20px" fill="#000" opacity="0">2005</text><text text-anchor="middle" transform="translate(90.16243840116809,23)" font-family="sans-serif" font-size="20px" fill="#000" opacity="1">2006</text><text text-anchor="middle" transform="translate(130.13323599196934,23)" font-family="sans-serif" font-size="20px" fill="#000" opacity="0">2007</text><text text-anchor="middle" transform="translate(170.10403358277057,23)" font-family="sans-serif" font-size="20px" fill="#000" opacity="1">2008</text><text text-anchor="middle" transform="translate(210.18434020806717,23)" font-family="sans-serif" font-size="20px" fill="#000" opacity="0">2009</text><text text-anchor="middle" transform="translate(250.15513779886842,23)" font-family="sans-serif" font-size="20px" fill="#000" opacity="1">2010</text><text text-anchor="middle" transform="translate(290.1259353896696,23)" font-family="sans-serif" font-size="20px" fill="#000" opacity="0">2011</text><text text-anchor="middle" transform="translate(330.0967329804709,23)" font-family="sans-serif" font-size="20px" fill="#000" opacity="1">2012</text><text text-anchor="middle" transform="translate(370.17703960576745,23)" font-family="sans-serif" font-size="20px" fill="#000" opacity="0">2013</text><text text-anchor="middle" transform="translate(410.14783719656873,23)" font-family="sans-serif" font-size="20px" fill="#000" opacity="1">2014</text><text text-anchor="middle" transform="translate(450.11863478736996,23)" font-family="sans-serif" font-size="20px" fill="#000" opacity="0">2015</text><text text-anchor="middle" transform="translate(490.0894323781712,23)" font-family="sans-serif" font-size="20px" fill="#000" opacity="1">2016</text><text text-anchor="middle" transform="translate(530.1697390034677,23)" font-family="sans-serif" font-size="20px" fill="#000" opacity="0">2017</text><text text-anchor="middle" transform="translate(570.1405365942691,23)" font-family="sans-serif" font-size="20px" fill="#000" opacity="1">2018</text></g><g class="mark-rule role-axis-domain" pointer-events="none"><line transform="translate(0,0)" x2="600" y2="0" stroke="#888" stroke-width="1" opacity="1"/></g><g class="mark-text role-axis-title" pointer-events="none"><text text-anchor="middle" transform="translate(300,47)" font-family="sans-serif" font-size="20px" font-weight="bold" fill="#000" opacity="1">Date</text></g></g><path class="foreground" aria-hidden="true" d="" pointer-events="none" display="none"/></g></g><g class="mark-group role-axis" role="graphics-symbol" aria-roledescription="axis" aria-label="Y-axis titled 'Distance to the future (AAs)' for a linear scale with values from 0 to 18"><g transform="translate(0.5,0.5)"><path class="background" aria-hidden="true" d="M0,0h0v0h0Z" pointer-events="none"/><g><g class="mark-rule role-axis-tick" pointer-events="none"><line transform="translate(0,400)" x2="-5" y2="0" stroke="#888" stroke-width="1" opacity="1"/><line transform="translate(0,356)" x2="-5" y2="0" stroke="#888" stroke-width="1" opacity="1"/><line transform="translate(0,311)" x2="-5" y2="0" stroke="#888" stroke-width="1" opacity="1"/><line transform="translate(0,267)" x2="-5" y2="0" stroke="#888" stroke-width="1" opacity="1"/><line transform="translate(0,222)" x2="-5" y2="0" stroke="#888" stroke-width="1" opacity="1"/><line transform="translate(0,178)" x2="-5" y2="0" stroke="#888" stroke-width="1" opacity="1"/><line transform="translate(0,133)" x2="-5" y2="0" stroke="#888" stroke-width="1" opacity="1"/><line transform="translate(0,89)" x2="-5" y2="0" stroke="#888" stroke-width="1" opacity="1"/><line transform="translate(0,44)" x2="-5" y2="0" stroke="#888" stroke-width="1" opacity="1"/><line transform="translate(0,0)" x2="-5" y2="0" stroke="#888" stroke-width="1" opacity="1"/></g><g class="mark-text role-axis-label" pointer-events="none"><text text-anchor="end" transform="translate(-7,406)" font-family="sans-serif" font-size="20px" fill="#000" opacity="1">0</text><text text-anchor="end" transform="translate(-7,361.55555555555554)" font-family="sans-serif" font-size="20px" fill="#000" opacity="1">2</text><text text-anchor="end" transform="translate(-7,317.11111111111114)" font-family="sans-serif" font-size="20px" fill="#000" opacity="1">4</text><text text-anchor="end" transform="translate(-7,272.6666666666667)" font-family="sans-serif" font-size="20px" fill="#000" opacity="1">6</text><text text-anchor="end" transform="translate(-7,228.22222222222223)" font-family="sans-serif" font-size="20px" fill="#000" opacity="1">8</text><text text-anchor="end" transform="translate(-7,183.77777777777777)" font-family="sans-serif" font-size="20px" fill="#000" opacity="1">10</text><text text-anchor="end" transform="translate(-7,139.33333333333334)" font-family="sans-serif" font-size="20px" fill="#000" opacity="1">12</text><text text-anchor="end" transform="translate(-7,94.88888888888889)" font-family="sans-serif" font-size="20px" fill="#000" opacity="1">14</text><text text-anchor="end" transform="translate(-7,50.444444444444464)" font-family="sans-serif" font-size="20px" fill="#000" opacity="1">16</text><text text-anchor="end" transform="translate(-7,6)" font-family="sans-serif" font-size="20px" fill="#000" opacity="1">18</text></g><g class="mark-rule role-axis-domain" pointer-events="none"><line transform="translate(0,400)" x2="0" y2="-400" stroke="#888" stroke-width="1" opacity="1"/></g><g class="mark-text role-axis-title" pointer-events="none"><text text-anchor="middle" transform="translate(-33.24609375,200) rotate(-90) translate(0,-4)" font-family="sans-serif" font-size="20px" font-weight="bold" fill="#000" opacity="1">Distance to the future (AAs)</text></g></g><path class="foreground" aria-hidden="true" d="" pointer-events="none" display="none"/></g></g><g class="mark-group role-scope layer_0_pathgroup" role="graphics-object" aria-roledescription="group mark container"><g transform="translate(0,0)"><path class="background" aria-hidden="true" d="M0,0h600v400h-600Z"/><g><g class="mark-line role-mark layer_0_marks" role="graphics-object" aria-roledescription="line mark container"><path aria-label="Date: Sep 30, 2003; Distance to the future (AAs): 7.031; model: epitope antigenic novelty" role="graphics-symbol" aria-roledescription="line mark" d="M0,243.7555555555556L20.040153312648293,275.6222222222222L40.080306625296586,284.84444444444443L60.01095090344953,273.26666666666665L80.05110421609784,229.57777777777778L99.98174849425078,208.04444444444448L120.02190180689907,266.3777777777778L139.952546085052,220.77777777777777L159.9926993977003,213.48888888888888L180.0328527103486,261.7555555555556L200.0730060229969,195.3777777777778L220.00365030114983,266.08888888888885L240.04380361379813,238.48888888888888L259.9744478919511,249.2L280.0146012045994,250.53333333333336L299.94524548275234,196.75555555555553L319.9853987954006,292L340.0255521080489,246.91111111111113L360.0657054206972,171.20000000000002L379.99634969885017,264.68888888888887L400.03650301149844,273.31111111111113L419.9671472896514,232.71111111111108L440.00730060229967,199.4888888888889L459.9379448804526,296.8888888888889L479.97809819310095,249.11111111111111L500.0182515057492,284.68888888888887L520.0584048183975,260.5111111111111L539.9890490965504,246.71111111111114L560.0292024091988,260.44444444444446L579.9598466873517,218.8222222222222L600,192.46666666666664" stroke-width="2"/></g></g><path class="foreground" aria-hidden="true" d="" display="none"/></g><g transform="translate(0,0)"><path class="background" aria-hidden="true" d="M0,0h600v400h-600Z"/><g><g class="mark-line role-mark layer_0_marks" role="graphics-object" aria-roledescription="line mark container"><path aria-label="Date: Sep 30, 2003; Distance to the future (AAs): 7.319; model: oracle antigenic novelty" role="graphics-symbol" aria-roledescription="line mark" d="M0,237.35555555555558L20.040153312648293,262.1555555555555L40.080306625296586,301.26666666666665L60.01095090344953,292.35555555555555L80.05110421609784,297L99.98174849425078,257.35555555555555L120.02190180689907,279.3777777777778L139.952546085052,288.4222222222222L159.9926993977003,303.9111111111111L180.0328527103486,270.73333333333335L200.0730060229969,190.55555555555554L220.00365030114983,242.19999999999996L240.04380361379813,278.8666666666667L259.9744478919511,263.2444444444444L280.0146012045994,271L299.94524548275234,237.77777777777777L319.9853987954006,306.33333333333337L340.0255521080489,275.35555555555555L360.0657054206972,273.6666666666667L379.99634969885017,307.5777777777778L400.03650301149844,270.7777777777777L419.9671472896514,311.3777777777778L440.00730060229967,265.02222222222224L459.9379448804526,307.84444444444443L479.97809819310095,257.5111111111111L500.0182515057492,279.0888888888889L520.0584048183975,172.00000000000003L539.9890490965504,223L560.0292024091988,191.0888888888889L579.9598466873517,179.02222222222218L600,157.26666666666665" stroke-width="2"/></g></g><path class="foreground" aria-hidden="true" d="" display="none"/></g><g transform="translate(0,0)"><path class="background" aria-hidden="true" d="M0,0h600v400h-600Z"/><g><g class="mark-line role-mark layer_0_marks" role="graphics-object" aria-roledescription="line mark container"><path aria-label="Date: Sep 30, 2003; Distance to the future (AAs): 7.386; model: HI antigenic novelty" role="graphics-symbol" aria-roledescription="line mark" d="M0,235.86666666666667L20.040153312648293,276.0888888888889L40.080306625296586,268L60.01095090344953,271.9555555555556L80.05110421609784,315.6222222222222L99.98174849425078,270.8222222222222L120.02190180689907,285.1111111111111L139.952546085052,316.48888888888894L159.9926993977003,304.77777777777777L180.0328527103486,312.68888888888887L200.0730060229969,207.53333333333336L220.00365030114983,287.26666666666665L240.04380361379813,230.97777777777776L259.9744478919511,253.11111111111111L280.0146012045994,245.22222222222223L299.94524548275234,209.6222222222222L319.9853987954006,289.6222222222222L340.0255521080489,240.35555555555553L360.0657054206972,236.51111111111112L379.99634969885017,296.97777777777776L400.03650301149844,292.35555555555555L419.9671472896514,257.5555555555556L440.00730060229967,225.08888888888885L459.9379448804526,297.15555555555557L479.97809819310095,263.35555555555555L500.0182515057492,277.8666666666667L520.0584048183975,255.6888888888889L539.9890490965504,250.28888888888892L560.0292024091988,295.4L579.9598466873517,261.0444444444444L600,195.5111111111111" stroke-width="2"/></g></g><path class="foreground" aria-hidden="true" d="" display="none"/></g><g transform="translate(0,0)"><path class="background" aria-hidden="true" d="M0,0h600v400h-600Z"/><g><g class="mark-line role-mark layer_0_marks" role="graphics-object" aria-roledescription="line mark container"><path aria-label="Date: Sep 30, 2003; Distance to the future (AAs): 7.861; model: mutational load" role="graphics-symbol" aria-roledescription="line mark" d="M0,225.3111111111111L20.040153312648293,272.26666666666665L40.080306625296586,291.35555555555555L60.01095090344953,293.6L80.05110421609784,293.4222222222222L99.98174849425078,272.33333333333337L120.02190180689907,308.7111111111111L139.952546085052,244.17777777777778L159.9926993977003,276.02222222222224L180.0328527103486,310.7333333333333L200.0730060229969,256.44444444444446L220.00365030114983,264.9555555555556L240.04380361379813,247.35555555555555L259.9744478919511,253.15555555555554L280.0146012045994,267.7777777777778L299.94524548275234,189.46666666666667L319.9853987954006,267.40000000000003L340.0255521080489,255.0222222222222L360.0657054206972,228.2L379.99634969885017,299.2222222222222L400.03650301149844,286.48888888888894L419.9671472896514,228.11111111111111L440.00730060229967,231.26666666666668L459.9379448804526,292.0888888888889L479.97809819310095,264.84444444444443L500.0182515057492,245.53333333333333L520.0584048183975,264.68888888888887L539.9890490965504,265.2L560.0292024091988,286.02222222222224L579.9598466873517,212.31111111111113L600,208.71111111111108" stroke-width="2"/></g></g><path class="foreground" aria-hidden="true" d="" display="none"/></g><g transform="translate(0,0)"><path class="background" aria-hidden="true" d="M0,0h600v400h-600Z"/><g><g class="mark-line role-mark layer_0_marks" role="graphics-object" aria-roledescription="line mark container"><path aria-label="Date: Sep 30, 2003; Distance to the future (AAs): 7.445; model: DMS mutational effects" role="graphics-symbol" aria-roledescription="line mark" d="M0,234.55555555555554L20.040153312648293,214.44444444444449L40.080306625296586,252.82222222222225L60.01095090344953,125.24444444444444L80.05110421609784,305L99.98174849425078,259.0888888888889L120.02190180689907,276.40000000000003L139.952546085052,324L159.9926993977003,252.35555555555553L180.0328527103486,292.8L200.0730060229969,236.00000000000003L220.00365030114983,266.8222222222222L240.04380361379813,244.28888888888886L259.9744478919511,256.02222222222224L280.0146012045994,262.9555555555556L299.94524548275234,189.75555555555553L319.9853987954006,275.51111111111106L340.0255521080489,250.26666666666665L360.0657054206972,202.0888888888889L379.99634969885017,298.37777777777774L400.03650301149844,287.44444444444446L419.9671472896514,239.2444444444444L440.00730060229967,205.95555555555558L459.9379448804526,234.73333333333332L479.97809819310095,268.3777777777778L500.0182515057492,238.64444444444445L520.0584048183975,254.77777777777777L539.9890490965504,265.64444444444445L560.0292024091988,300.1333333333333L579.9598466873517,137.4L600,113.57777777777778" stroke-width="2"/></g></g><path class="foreground" aria-hidden="true" d="" display="none"/></g><g transform="translate(0,0)"><path class="background" aria-hidden="true" d="M0,0h600v400h-600Z"/><g><g class="mark-line role-mark layer_0_marks" role="graphics-object" aria-roledescription="line mark container"><path aria-label="Date: Sep 30, 2003; Distance to the future (AAs): 8.192; model: LBI" role="graphics-symbol" aria-roledescription="line mark" d="M0,217.95555555555555L20.040153312648293,251.13333333333335L40.080306625296586,283.28888888888895L60.01095090344953,284.1333333333333L80.05110421609784,310.9111111111111L99.98174849425078,267.4888888888889L120.02190180689907,304.15555555555557L139.952546085052,327.0444444444444L159.9926993977003,311.5777777777778L180.0328527103486,341.2L200.0730060229969,261.48888888888894L220.00365030114983,259.7555555555556L240.04380361379813,278.4222222222222L259.9744478919511,265.4888888888889L280.0146012045994,248.04444444444442L299.94524548275234,184.82222222222222L319.9853987954006,257.3777777777778L340.0255521080489,320.0444444444444L360.0657054206972,325.2666666666667L379.99634969885017,322.0888888888889L400.03650301149844,250.9333333333333L419.9671472896514,198.28888888888886L440.00730060229967,227.15555555555557L459.9379448804526,293.82222222222225L479.97809819310095,232.73333333333332L500.0182515057492,282.1777777777778L520.0584048183975,243.17777777777775L539.9890490965504,215.24444444444444L560.0292024091988,272.3111111111111L579.9598466873517,133.7111111111111L600,33.577777777777754" stroke-width="2"/></g></g><path class="foreground" aria-hidden="true" d="" display="none"/></g><g transform="translate(0,0)"><path class="background" aria-hidden="true" d="M0,0h600v400h-600Z"/><g><g class="mark-line role-mark layer_0_marks" role="graphics-object" aria-roledescription="line mark container"><path aria-label="Date: Sep 30, 2003; Distance to the future (AAs): 8.316; model: delta frequency" role="graphics-symbol" aria-roledescription="line mark" d="M0,215.20000000000002L20.040153312648293,260.68888888888887L40.080306625296586,289.20000000000005L60.01095090344953,290.44444444444446L80.05110421609784,296.91111111111115L99.98174849425078,258.55555555555554L120.02190180689907,305.1333333333333L139.952546085052,302.44444444444446L159.9926993977003,278.02222222222224L180.0328527103486,327.6666666666667L200.0730060229969,207.2222222222222L220.00365030114983,245.86666666666667L240.04380361379813,266L259.9744478919511,253.5333333333333L280.0146012045994,240.33333333333334L299.94524548275234,176.86666666666665L319.9853987954006,300.8888888888889L340.0255521080489,278.6666666666667L360.0657054206972,223.35555555555553L379.99634969885017,308.66666666666663L400.03650301149844,278.8L419.9671472896514,241.86666666666667L440.00730060229967,222.48888888888888L459.9379448804526,300.64444444444445L479.97809819310095,261.02222222222224L500.0182515057492,271.4888888888889L520.0584048183975,234.4444444444444L539.9890490965504,245.5111111111111L560.0292024091988,306.24444444444447L579.9598466873517,153.40000000000003L600,200.02222222222218" stroke-width="2"/></g></g><path class="foreground" aria-hidden="true" d="" display="none"/></g><g transform="translate(0,0)"><path class="background" aria-hidden="true" d="M0,0h600v400h-600Z"/><g><g class="mark-line role-mark layer_0_marks" role="graphics-object" aria-roledescription="line mark container"><path aria-label="Date: Sep 30, 2003; Distance to the future (AAs): 7.855; model: mutational load + LBI" role="graphics-symbol" aria-roledescription="line mark" d="M0,225.44444444444443L20.040153312648293,276.79999999999995L40.080306625296586,297.4222222222222L60.01095090344953,293.84444444444443L80.05110421609784,313.2888888888889L99.98174849425078,274.26666666666665L120.02190180689907,312.6222222222222L139.952546085052,313.97777777777776L159.9926993977003,311.73333333333335L180.0328527103486,344.11111111111114L200.0730060229969,269.15555555555557L220.00365030114983,260.7333333333333L240.04380361379813,271.4666666666667L259.9744478919511,273.4222222222222L280.0146012045994,249.93333333333334L299.94524548275234,184.6888888888889L319.9853987954006,268.2888888888889L340.0255521080489,317.82222222222225L360.0657054206972,320.06666666666666L379.99634969885017,322.6L400.03650301149844,254.75555555555553L419.9671472896514,198.28888888888886L440.00730060229967,262.73333333333335L459.9379448804526,296.37777777777774L479.97809819310095,239.35555555555555L500.0182515057492,281.5333333333333L520.0584048183975,258.22222222222223L539.9890490965504,216.6888888888889L560.0292024091988,306.5111111111111L579.9598466873517,155.64444444444442L600,76.24444444444443" stroke-width="2"/></g></g><path class="foreground" aria-hidden="true" d="" display="none"/></g><g transform="translate(0,0)"><path class="background" aria-hidden="true" d="M0,0h600v400h-600Z"/><g><g class="mark-line role-mark layer_0_marks" role="graphics-object" aria-roledescription="line mark container"><path aria-label="Date: Sep 30, 2003; Distance to the future (AAs): 6.964; model: HI antigenic novelty + mutational load" role="graphics-symbol" aria-roledescription="line mark" d="M0,245.24444444444447L20.040153312648293,288.4222222222222L40.080306625296586,278.8222222222222L60.01095090344953,278.08888888888885L80.05110421609784,327.1333333333333L99.98174849425078,279.68888888888887L120.02190180689907,293.84444444444443L139.952546085052,284.1111111111111L159.9926993977003,310.24444444444447L180.0328527103486,326.1333333333333L200.0730060229969,220.08888888888887L220.00365030114983,293.82222222222225L240.04380361379813,233.08888888888885L259.9744478919511,266.59999999999997L280.0146012045994,254.60000000000002L299.94524548275234,196.62222222222226L319.9853987954006,288.0888888888889L340.0255521080489,245.97777777777782L360.0657054206972,237.26666666666665L379.99634969885017,300.6222222222222L400.03650301149844,286.6888888888889L419.9671472896514,240.62222222222226L440.00730060229967,247.66666666666666L459.9379448804526,310.26666666666665L479.97809819310095,268.2L500.0182515057492,254.4888888888889L520.0584048183975,269.8666666666667L539.9890490965504,260.22222222222223L560.0292024091988,299.88888888888886L579.9598466873517,274.48888888888894L600,201.9333333333333" stroke-width="2"/></g></g><path class="foreground" aria-hidden="true" d="" display="none"/></g><g transform="translate(0,0)"><path class="background" aria-hidden="true" d="M0,0h600v400h-600Z"/><g><g class="mark-line role-mark layer_0_marks" role="graphics-object" aria-roledescription="line mark container"><path aria-label="Date: Sep 30, 2003; Distance to the future (AAs): 6.942; model: HI antigenic novelty + mutational load + LBI" role="graphics-symbol" aria-roledescription="line mark" d="M0,245.73333333333335L20.040153312648293,289.4666666666667L40.080306625296586,275.8444444444445L60.01095090344953,278.4L80.05110421609784,327.7555555555556L99.98174849425078,279.6666666666667L120.02190180689907,294.22222222222223L139.952546085052,284.1333333333333L159.9926993977003,310.1333333333333L180.0328527103486,326.2888888888889L200.0730060229969,217.60000000000002L220.00365030114983,293.33333333333337L240.04380361379813,232.24444444444444L259.9744478919511,266.31111111111113L280.0146012045994,256.8666666666667L299.94524548275234,198.73333333333335L319.9853987954006,283.40000000000003L340.0255521080489,245.62222222222223L360.0657054206972,231.95555555555555L379.99634969885017,300.4222222222222L400.03650301149844,287.9777777777778L419.9671472896514,243.48888888888888L440.00730060229967,246.11111111111111L459.9379448804526,309.3111111111111L479.97809819310095,268.15555555555557L500.0182515057492,253.17777777777778L520.0584048183975,268.8888888888889L539.9890490965504,260.02222222222224L560.0292024091988,298.84444444444443L579.9598466873517,275.0444444444445L600,201.55555555555554" stroke-width="2"/></g></g><path class="foreground" aria-hidden="true" d="" display="none"/></g></g><g class="mark-line role-mark layer_1_marks" role="graphics-object" aria-roledescription="line mark container" pointer-events="none"><path aria-label="timepoint: Sep 30, 2003; optimal_distance_to_future: 3.784" role="graphics-symbol" aria-roledescription="line mark" d="M0,315.9111111111111L0,315.9111111111111L0,315.9111111111111L0,315.9111111111111L0,315.9111111111111L0,315.9111111111111L0,315.9111111111111L0,315.9111111111111L0,315.9111111111111L0,315.9111111111111L20.040153312648293,332.53333333333336L20.040153312648293,332.53333333333336L20.040153312648293,332.53333333333336L20.040153312648293,332.53333333333336L20.040153312648293,332.53333333333336L20.040153312648293,332.53333333333336L20.040153312648293,332.53333333333336L20.040153312648293,332.53333333333336L20.040153312648293,332.53333333333336L20.040153312648293,332.53333333333336L40.080306625296586,359.37777777777774L40.080306625296586,359.37777777777774L40.080306625296586,359.37777777777774L40.080306625296586,359.37777777777774L40.080306625296586,359.37777777777774L40.080306625296586,359.37777777777774L40.080306625296586,359.37777777777774L40.080306625296586,359.37777777777774L40.080306625296586,359.37777777777774L40.080306625296586,359.37777777777774L60.01095090344953,352.8888888888889L60.01095090344953,352.8888888888889L60.01095090344953,352.8888888888889L60.01095090344953,352.8888888888889L60.01095090344953,352.8888888888889L60.01095090344953,352.8888888888889L60.01095090344953,352.8888888888889L60.01095090344953,352.8888888888889L60.01095090344953,352.8888888888889L60.01095090344953,352.8888888888889L80.05110421609784,346.20000000000005L80.05110421609784,346.20000000000005L80.05110421609784,346.20000000000005L80.05110421609784,346.20000000000005L80.05110421609784,346.20000000000005L80.05110421609784,346.20000000000005L80.05110421609784,346.20000000000005L80.05110421609784,346.20000000000005L80.05110421609784,346.20000000000005L80.05110421609784,346.20000000000005L99.98174849425078,308.26666666666665L99.98174849425078,308.26666666666665L99.98174849425078,308.26666666666665L99.98174849425078,308.26666666666665L99.98174849425078,308.26666666666665L99.98174849425078,308.26666666666665L99.98174849425078,308.26666666666665L99.98174849425078,308.26666666666665L99.98174849425078,308.26666666666665L99.98174849425078,308.26666666666665L120.02190180689907,344.6888888888889L120.02190180689907,344.6888888888889L120.02190180689907,344.6888888888889L120.02190180689907,344.6888888888889L120.02190180689907,344.6888888888889L120.02190180689907,344.6888888888889L120.02190180689907,344.6888888888889L120.02190180689907,344.6888888888889L120.02190180689907,344.6888888888889L120.02190180689907,344.6888888888889L139.952546085052,348.02222222222224L139.952546085052,348.02222222222224L139.952546085052,348.02222222222224L139.952546085052,348.02222222222224L139.952546085052,348.02222222222224L139.952546085052,348.02222222222224L139.952546085052,348.02222222222224L139.952546085052,348.02222222222224L139.952546085052,348.02222222222224L139.952546085052,348.02222222222224L159.9926993977003,353.6666666666667L159.9926993977003,353.6666666666667L159.9926993977003,353.6666666666667L159.9926993977003,353.6666666666667L159.9926993977003,353.6666666666667L159.9926993977003,353.6666666666667L159.9926993977003,353.6666666666667L159.9926993977003,353.6666666666667L159.9926993977003,353.6666666666667L159.9926993977003,353.6666666666667L180.0328527103486,354.77777777777777L180.0328527103486,354.77777777777777L180.0328527103486,354.77777777777777L180.0328527103486,354.77777777777777L180.0328527103486,354.77777777777777L180.0328527103486,354.77777777777777L180.0328527103486,354.77777777777777L180.0328527103486,354.77777777777777L180.0328527103486,354.77777777777777L180.0328527103486,354.77777777777777L200.0730060229969,294.0444444444444L200.0730060229969,294.0444444444444L200.0730060229969,294.0444444444444L200.0730060229969,294.0444444444444L200.0730060229969,294.0444444444444L200.0730060229969,294.0444444444444L200.0730060229969,294.0444444444444L200.0730060229969,294.0444444444444L200.0730060229969,294.0444444444444L200.0730060229969,294.0444444444444L220.00365030114983,333.24444444444447L220.00365030114983,333.24444444444447L220.00365030114983,333.24444444444447L220.00365030114983,333.24444444444447L220.00365030114983,333.24444444444447L220.00365030114983,333.24444444444447L220.00365030114983,333.24444444444447L220.00365030114983,333.24444444444447L220.00365030114983,333.24444444444447L220.00365030114983,333.24444444444447L240.04380361379813,319.5333333333333L240.04380361379813,319.5333333333333L240.04380361379813,319.5333333333333L240.04380361379813,319.5333333333333L240.04380361379813,319.5333333333333L240.04380361379813,319.5333333333333L240.04380361379813,319.5333333333333L240.04380361379813,319.5333333333333L240.04380361379813,319.5333333333333L240.04380361379813,319.5333333333333L259.9744478919511,346.55555555555554L259.9744478919511,346.55555555555554L259.9744478919511,346.55555555555554L259.9744478919511,346.55555555555554L259.9744478919511,346.55555555555554L259.9744478919511,346.55555555555554L259.9744478919511,346.55555555555554L259.9744478919511,346.55555555555554L259.9744478919511,346.55555555555554L259.9744478919511,346.55555555555554L280.0146012045994,325.91111111111115L280.0146012045994,325.91111111111115L280.0146012045994,325.91111111111115L280.0146012045994,325.91111111111115L280.0146012045994,325.91111111111115L280.0146012045994,325.91111111111115L280.0146012045994,325.91111111111115L280.0146012045994,325.91111111111115L280.0146012045994,325.91111111111115L280.0146012045994,325.91111111111115L299.94524548275234,336.4888888888889L299.94524548275234,336.4888888888889L299.94524548275234,336.4888888888889L299.94524548275234,336.4888888888889L299.94524548275234,336.4888888888889L299.94524548275234,336.4888888888889L299.94524548275234,336.4888888888889L299.94524548275234,336.4888888888889L299.94524548275234,336.4888888888889L299.94524548275234,336.4888888888889L319.9853987954006,360.8888888888889L319.9853987954006,360.8888888888889L319.9853987954006,360.8888888888889L319.9853987954006,360.8888888888889L319.9853987954006,360.8888888888889L319.9853987954006,360.8888888888889L319.9853987954006,360.8888888888889L319.9853987954006,360.8888888888889L319.9853987954006,360.8888888888889L319.9853987954006,360.8888888888889L340.0255521080489,352.0444444444444L340.0255521080489,352.0444444444444L340.0255521080489,352.0444444444444L340.0255521080489,352.0444444444444L340.0255521080489,352.0444444444444L340.0255521080489,352.0444444444444L340.0255521080489,352.0444444444444L340.0255521080489,352.0444444444444L340.0255521080489,352.0444444444444L340.0255521080489,352.0444444444444L360.0657054206972,369.8666666666667L360.0657054206972,369.8666666666667L360.0657054206972,369.8666666666667L360.0657054206972,369.8666666666667L360.0657054206972,369.8666666666667L360.0657054206972,369.8666666666667L360.0657054206972,369.8666666666667L360.0657054206972,369.8666666666667L360.0657054206972,369.8666666666667L360.0657054206972,369.8666666666667L379.99634969885017,346.4L379.99634969885017,346.4L379.99634969885017,346.4L379.99634969885017,346.4L379.99634969885017,346.4L379.99634969885017,346.4L379.99634969885017,346.4L379.99634969885017,346.4L379.99634969885017,346.4L379.99634969885017,346.4L400.03650301149844,332.06666666666666L400.03650301149844,332.06666666666666L400.03650301149844,332.06666666666666L400.03650301149844,332.06666666666666L400.03650301149844,332.06666666666666L400.03650301149844,332.06666666666666L400.03650301149844,332.06666666666666L400.03650301149844,332.06666666666666L400.03650301149844,332.06666666666666L400.03650301149844,332.06666666666666L419.9671472896514,367.7777777777778L419.9671472896514,367.7777777777778L419.9671472896514,367.7777777777778L419.9671472896514,367.7777777777778L419.9671472896514,367.7777777777778L419.9671472896514,367.7777777777778L419.9671472896514,367.7777777777778L419.9671472896514,367.7777777777778L419.9671472896514,367.7777777777778L419.9671472896514,367.7777777777778L440.00730060229967,368.8L440.00730060229967,368.8L440.00730060229967,368.8L440.00730060229967,368.8L440.00730060229967,368.8L440.00730060229967,368.8L440.00730060229967,368.8L440.00730060229967,368.8L440.00730060229967,368.8L440.00730060229967,368.8L459.9379448804526,356.68888888888887L459.9379448804526,356.68888888888887L459.9379448804526,356.68888888888887L459.9379448804526,356.68888888888887L459.9379448804526,356.68888888888887L459.9379448804526,356.68888888888887L459.9379448804526,356.68888888888887L459.9379448804526,356.68888888888887L459.9379448804526,356.68888888888887L459.9379448804526,356.68888888888887L479.97809819310095,348L479.97809819310095,348L479.97809819310095,348L479.97809819310095,348L479.97809819310095,348L479.97809819310095,348L479.97809819310095,348L479.97809819310095,348L479.97809819310095,348L479.97809819310095,348L500.0182515057492,352.4L500.0182515057492,352.4L500.0182515057492,352.4L500.0182515057492,352.4L500.0182515057492,352.4L500.0182515057492,352.4L500.0182515057492,352.4L500.0182515057492,352.4L500.0182515057492,352.4L500.0182515057492,352.4L520.0584048183975,345.2888888888889L520.0584048183975,345.2888888888889L520.0584048183975,345.2888888888889L520.0584048183975,345.2888888888889L520.0584048183975,345.2888888888889L520.0584048183975,345.2888888888889L520.0584048183975,345.2888888888889L520.0584048183975,345.2888888888889L520.0584048183975,345.2888888888889L520.0584048183975,345.2888888888889L539.9890490965504,368.2L539.9890490965504,368.2L539.9890490965504,368.2L539.9890490965504,368.2L539.9890490965504,368.2L539.9890490965504,368.2L539.9890490965504,368.2L539.9890490965504,368.2L539.9890490965504,368.2L539.9890490965504,368.2L560.0292024091988,357.8L560.0292024091988,357.8L560.0292024091988,357.8L560.0292024091988,357.8L560.0292024091988,357.8L560.0292024091988,357.8L560.0292024091988,357.8L560.0292024091988,357.8L560.0292024091988,357.8L560.0292024091988,357.8L579.9598466873517,343.7111111111111L579.9598466873517,343.7111111111111L579.9598466873517,343.7111111111111L579.9598466873517,343.7111111111111L579.9598466873517,343.7111111111111L579.9598466873517,343.7111111111111L579.9598466873517,343.7111111111111L579.9598466873517,343.7111111111111L579.9598466873517,343.7111111111111L579.9598466873517,343.7111111111111L600,322.31111111111113L600,322.31111111111113L600,322.31111111111113L600,322.31111111111113L600,322.31111111111113L600,322.31111111111113L600,322.31111111111113L600,322.31111111111113L600,322.31111111111113L600,322.31111111111113" stroke="#999999" stroke-width="2"/></g><g class="mark-line role-mark layer_2_marks" role="graphics-object" aria-roledescription="line mark container" pointer-events="none"><path aria-label="timepoint: Sep 30, 2003; naive_distance_to_future: 8.188" role="graphics-symbol" aria-roledescription="line mark" d="M0,218.04444444444445L20.040153312648293,250.88888888888889L40.080306625296586,282.97777777777776L60.01095090344953,278.26666666666665L80.05110421609784,281.15555555555557L99.98174849425078,255.95555555555558L120.02190180689907,296.71111111111117L139.952546085052,272.4222222222222L159.9926993977003,280.37777777777774L180.0328527103486,301.5555555555556L200.0730060229969,236.79999999999998L220.00365030114983,252.04444444444442L240.04380361379813,251.66666666666666L259.9744478919511,252.0888888888889L280.0146012045994,258.31111111111113L299.94524548275234,192.71111111111114L319.9853987954006,286.0666666666667L340.0255521080489,245.75555555555556L360.0657054206972,213.60000000000002L379.99634969885017,294.22222222222223L400.03650301149844,283.4888888888889L419.9671472896514,235.84444444444443L440.00730060229967,208.26666666666665L459.9379448804526,279.35555555555555L479.97809819310095,260.15555555555557L500.0182515057492,270.75555555555553L520.0584048183975,247.97777777777776L539.9890490965504,261.88888888888886L560.0292024091988,288.15555555555557L579.9598466873517,197.2666666666667L600,181.79999999999995" stroke="#CCCCCC" stroke-width="2"/></g><g class="mark-group role-scope layer_3_layer_0_pathgroup" role="graphics-object" aria-roledescription="group mark container"><g transform="translate(0,0)"><path class="background" aria-hidden="true" d="M0,0h600v400h-600Z"/><g><g class="mark-line role-mark layer_3_layer_0_marks" role="graphics-object" aria-roledescription="line mark container" pointer-events="none"><path aria-label="Date: Sep 30, 2003; Distance to the future (AAs): 6.942; model: HI antigenic novelty + mutational load + LBI" role="graphics-symbol" aria-roledescription="line mark" d="M0,245.73333333333335L20.040153312648293,289.4666666666667L40.080306625296586,275.8444444444445L60.01095090344953,278.4L80.05110421609784,327.7555555555556L99.98174849425078,279.6666666666667L120.02190180689907,294.22222222222223L139.952546085052,284.1333333333333L159.9926993977003,310.1333333333333L180.0328527103486,326.2888888888889L200.0730060229969,217.60000000000002L220.00365030114983,293.33333333333337L240.04380361379813,232.24444444444444L259.9744478919511,266.31111111111113L280.0146012045994,256.8666666666667L299.94524548275234,198.73333333333335L319.9853987954006,283.40000000000003L340.0255521080489,245.62222222222223L360.0657054206972,231.95555555555555L379.99634969885017,300.4222222222222L400.03650301149844,287.9777777777778L419.9671472896514,243.48888888888888L440.00730060229967,246.11111111111111" stroke="#bab0ac" stroke-width="2"/></g></g><path class="foreground" aria-hidden="true" d="" display="none"/></g><g transform="translate(0,0)"><path class="background" aria-hidden="true" d="M0,0h600v400h-600Z"/><g><g class="mark-line role-mark layer_3_layer_0_marks" role="graphics-object" aria-roledescription="line mark container" pointer-events="none"><path aria-label="Date: Sep 30, 2003; Distance to the future (AAs): 6.964; model: HI antigenic novelty + mutational load" role="graphics-symbol" aria-roledescription="line mark" d="M0,245.24444444444447L20.040153312648293,288.4222222222222L40.080306625296586,278.8222222222222L60.01095090344953,278.08888888888885L80.05110421609784,327.1333333333333L99.98174849425078,279.68888888888887L120.02190180689907,293.84444444444443L139.952546085052,284.1111111111111L159.9926993977003,310.24444444444447L180.0328527103486,326.1333333333333L200.0730060229969,220.08888888888887L220.00365030114983,293.82222222222225L240.04380361379813,233.08888888888885L259.9744478919511,266.59999999999997L280.0146012045994,254.60000000000002L299.94524548275234,196.62222222222226L319.9853987954006,288.0888888888889L340.0255521080489,245.97777777777782L360.0657054206972,237.26666666666665L379.99634969885017,300.6222222222222L400.03650301149844,286.6888888888889L419.9671472896514,240.62222222222226L440.00730060229967,247.66666666666666" stroke="#ff9da6" stroke-width="2"/></g></g><path class="foreground" aria-hidden="true" d="" display="none"/></g><g transform="translate(0,0)"><path class="background" aria-hidden="true" d="M0,0h600v400h-600Z"/><g><g class="mark-line role-mark layer_3_layer_0_marks" role="graphics-object" aria-roledescription="line mark container" pointer-events="none"><path aria-label="Date: Sep 30, 2003; Distance to the future (AAs): 7.855; model: mutational load + LBI" role="graphics-symbol" aria-roledescription="line mark" d="M0,225.44444444444443L20.040153312648293,276.79999999999995L40.080306625296586,297.4222222222222L60.01095090344953,293.84444444444443L80.05110421609784,313.2888888888889L99.98174849425078,274.26666666666665L120.02190180689907,312.6222222222222L139.952546085052,313.97777777777776L159.9926993977003,311.73333333333335L180.0328527103486,344.11111111111114L200.0730060229969,269.15555555555557L220.00365030114983,260.7333333333333L240.04380361379813,271.4666666666667L259.9744478919511,273.4222222222222L280.0146012045994,249.93333333333334L299.94524548275234,184.6888888888889L319.9853987954006,268.2888888888889L340.0255521080489,317.82222222222225L360.0657054206972,320.06666666666666L379.99634969885017,322.6L400.03650301149844,254.75555555555553L419.9671472896514,198.28888888888886L440.00730060229967,262.73333333333335" stroke="#9d755d" stroke-width="2"/></g></g><path class="foreground" aria-hidden="true" d="" display="none"/></g></g><g class="mark-symbol role-mark layer_3_layer_1_marks" role="graphics-object" aria-roledescription="symbol mark container" pointer-events="none"><path aria-label="Date: Sep 30, 2003; Distance to the future (AAs): 6.942; model: HI antigenic novelty + mutational load + LBI" role="graphics-symbol" aria-roledescription="point" transform="translate(0,245.73333333333335)" d="M5,0A5,5,0,1,1,-5,0A5,5,0,1,1,5,0" fill="#bab0ac" stroke-width="2" opacity="1"/><path aria-label="Date: Mar 31, 2004; Distance to the future (AAs): 4.974; model: HI antigenic novelty + mutational load + LBI" role="graphics-symbol" aria-roledescription="point" transform="translate(20.040153312648293,289.4666666666667)" d="M5,0A5,5,0,1,1,-5,0A5,5,0,1,1,5,0" fill="#bab0ac" stroke-width="2" opacity="1"/><path aria-label="Date: Sep 30, 2004; Distance to the future (AAs): 5.587; model: HI antigenic novelty + mutational load + LBI" role="graphics-symbol" aria-roledescription="point" transform="translate(40.080306625296586,275.8444444444445)" d="M5,0A5,5,0,1,1,-5,0A5,5,0,1,1,5,0" fill="#bab0ac" stroke-width="2" opacity="1"/><path aria-label="Date: Mar 31, 2005; Distance to the future (AAs): 5.472; model: HI antigenic novelty + mutational load + LBI" role="graphics-symbol" aria-roledescription="point" transform="translate(60.01095090344953,278.4)" d="M5,0A5,5,0,1,1,-5,0A5,5,0,1,1,5,0" fill="#bab0ac" stroke-width="2" opacity="1"/><path aria-label="Date: Sep 30, 2005; Distance to the future (AAs): 3.251; model: HI antigenic novelty + mutational load + LBI" role="graphics-symbol" aria-roledescription="point" transform="translate(80.05110421609784,327.7555555555556)" d="M5,0A5,5,0,1,1,-5,0A5,5,0,1,1,5,0" fill="#bab0ac" stroke-width="2" opacity="1"/><path aria-label="Date: Mar 31, 2006; Distance to the future (AAs): 5.415; model: HI antigenic novelty + mutational load + LBI" role="graphics-symbol" aria-roledescription="point" transform="translate(99.98174849425078,279.6666666666667)" d="M5,0A5,5,0,1,1,-5,0A5,5,0,1,1,5,0" fill="#bab0ac" stroke-width="2" opacity="1"/><path aria-label="Date: Sep 30, 2006; Distance to the future (AAs): 4.76; model: HI antigenic novelty + mutational load + LBI" role="graphics-symbol" aria-roledescription="point" transform="translate(120.02190180689907,294.22222222222223)" d="M5,0A5,5,0,1,1,-5,0A5,5,0,1,1,5,0" fill="#bab0ac" stroke-width="2" opacity="1"/><path aria-label="Date: Mar 31, 2007; Distance to the future (AAs): 5.214; model: HI antigenic novelty + mutational load + LBI" role="graphics-symbol" aria-roledescription="point" transform="translate(139.952546085052,284.1333333333333)" d="M5,0A5,5,0,1,1,-5,0A5,5,0,1,1,5,0" fill="#bab0ac" stroke-width="2" opacity="1"/><path aria-label="Date: Sep 30, 2007; Distance to the future (AAs): 4.044; model: HI antigenic novelty + mutational load + LBI" role="graphics-symbol" aria-roledescription="point" transform="translate(159.9926993977003,310.1333333333333)" d="M5,0A5,5,0,1,1,-5,0A5,5,0,1,1,5,0" fill="#bab0ac" stroke-width="2" opacity="1"/><path aria-label="Date: Mar 31, 2008; Distance to the future (AAs): 3.317; model: HI antigenic novelty + mutational load + LBI" role="graphics-symbol" aria-roledescription="point" transform="translate(180.0328527103486,326.2888888888889)" d="M5,0A5,5,0,1,1,-5,0A5,5,0,1,1,5,0" fill="#bab0ac" stroke-width="2" opacity="1"/><path aria-label="Date: Sep 30, 2008; Distance to the future (AAs): 8.208; model: HI antigenic novelty + mutational load + LBI" role="graphics-symbol" aria-roledescription="point" transform="translate(200.0730060229969,217.60000000000002)" d="M5,0A5,5,0,1,1,-5,0A5,5,0,1,1,5,0" fill="#bab0ac" stroke-width="2" opacity="1"/><path aria-label="Date: Mar 31, 2009; Distance to the future (AAs): 4.8; model: HI antigenic novelty + mutational load + LBI" role="graphics-symbol" aria-roledescription="point" transform="translate(220.00365030114983,293.33333333333337)" d="M5,0A5,5,0,1,1,-5,0A5,5,0,1,1,5,0" fill="#bab0ac" stroke-width="2" opacity="1"/><path aria-label="Date: Sep 30, 2009; Distance to the future (AAs): 7.549; model: HI antigenic novelty + mutational load + LBI" role="graphics-symbol" aria-roledescription="point" transform="translate(240.04380361379813,232.24444444444444)" d="M5,0A5,5,0,1,1,-5,0A5,5,0,1,1,5,0" fill="#bab0ac" stroke-width="2" opacity="1"/><path aria-label="Date: Mar 31, 2010; Distance to the future (AAs): 6.016; model: HI antigenic novelty + mutational load + LBI" role="graphics-symbol" aria-roledescription="point" transform="translate(259.9744478919511,266.31111111111113)" d="M5,0A5,5,0,1,1,-5,0A5,5,0,1,1,5,0" fill="#bab0ac" stroke-width="2" opacity="1"/><path aria-label="Date: Sep 30, 2010; Distance to the future (AAs): 6.441; model: HI antigenic novelty + mutational load + LBI" role="graphics-symbol" aria-roledescription="point" transform="translate(280.0146012045994,256.8666666666667)" d="M5,0A5,5,0,1,1,-5,0A5,5,0,1,1,5,0" fill="#bab0ac" stroke-width="2" opacity="1"/><path aria-label="Date: Mar 31, 2011; Distance to the future (AAs): 9.057; model: HI antigenic novelty + mutational load + LBI" role="graphics-symbol" aria-roledescription="point" transform="translate(299.94524548275234,198.73333333333335)" d="M5,0A5,5,0,1,1,-5,0A5,5,0,1,1,5,0" fill="#bab0ac" stroke-width="2" opacity="1"/><path aria-label="Date: Sep 30, 2011; Distance to the future (AAs): 5.247; model: HI antigenic novelty + mutational load + LBI" role="graphics-symbol" aria-roledescription="point" transform="translate(319.9853987954006,283.40000000000003)" d="M5,0A5,5,0,1,1,-5,0A5,5,0,1,1,5,0" fill="#bab0ac" stroke-width="2" opacity="1"/><path aria-label="Date: Mar 31, 2012; Distance to the future (AAs): 6.947; model: HI antigenic novelty + mutational load + LBI" role="graphics-symbol" aria-roledescription="point" transform="translate(340.0255521080489,245.62222222222223)" d="M5,0A5,5,0,1,1,-5,0A5,5,0,1,1,5,0" fill="#bab0ac" stroke-width="2" opacity="1"/><path aria-label="Date: Sep 30, 2012; Distance to the future (AAs): 7.562; model: HI antigenic novelty + mutational load + LBI" role="graphics-symbol" aria-roledescription="point" transform="translate(360.0657054206972,231.95555555555555)" d="M5,0A5,5,0,1,1,-5,0A5,5,0,1,1,5,0" fill="#bab0ac" stroke-width="2" opacity="1"/><path aria-label="Date: Mar 31, 2013; Distance to the future (AAs): 4.481; model: HI antigenic novelty + mutational load + LBI" role="graphics-symbol" aria-roledescription="point" transform="translate(379.99634969885017,300.4222222222222)" d="M5,0A5,5,0,1,1,-5,0A5,5,0,1,1,5,0" fill="#bab0ac" stroke-width="2" opacity="1"/><path aria-label="Date: Sep 30, 2013; Distance to the future (AAs): 5.041; model: HI antigenic novelty + mutational load + LBI" role="graphics-symbol" aria-roledescription="point" transform="translate(400.03650301149844,287.9777777777778)" d="M5,0A5,5,0,1,1,-5,0A5,5,0,1,1,5,0" fill="#bab0ac" stroke-width="2" opacity="1"/><path aria-label="Date: Mar 31, 2014; Distance to the future (AAs): 7.043; model: HI antigenic novelty + mutational load + LBI" role="graphics-symbol" aria-roledescription="point" transform="translate(419.9671472896514,243.48888888888888)" d="M5,0A5,5,0,1,1,-5,0A5,5,0,1,1,5,0" fill="#bab0ac" stroke-width="2" opacity="1"/><path aria-label="Date: Sep 30, 2014; Distance to the future (AAs): 6.925; model: HI antigenic novelty + mutational load + LBI" role="graphics-symbol" aria-roledescription="point" transform="translate(440.00730060229967,246.11111111111111)" d="M5,0A5,5,0,1,1,-5,0A5,5,0,1,1,5,0" fill="#bab0ac" stroke-width="2" opacity="1"/><path aria-label="Date: Sep 30, 2003; Distance to the future (AAs): 6.964; model: HI antigenic novelty + mutational load" role="graphics-symbol" aria-roledescription="point" transform="translate(0,245.24444444444447)" d="M5,0A5,5,0,1,1,-5,0A5,5,0,1,1,5,0" fill="#ff9da6" stroke-width="2" opacity="1"/><path aria-label="Date: Mar 31, 2004; Distance to the future (AAs): 5.021; model: HI antigenic novelty + mutational load" role="graphics-symbol" aria-roledescription="point" transform="translate(20.040153312648293,288.4222222222222)" d="M5,0A5,5,0,1,1,-5,0A5,5,0,1,1,5,0" fill="#ff9da6" stroke-width="2" opacity="1"/><path aria-label="Date: Sep 30, 2004; Distance to the future (AAs): 5.453; model: HI antigenic novelty + mutational load" role="graphics-symbol" aria-roledescription="point" transform="translate(40.080306625296586,278.8222222222222)" d="M5,0A5,5,0,1,1,-5,0A5,5,0,1,1,5,0" fill="#ff9da6" stroke-width="2" opacity="1"/><path aria-label="Date: Mar 31, 2005; Distance to the future (AAs): 5.486; model: HI antigenic novelty + mutational load" role="graphics-symbol" aria-roledescription="point" transform="translate(60.01095090344953,278.08888888888885)" d="M5,0A5,5,0,1,1,-5,0A5,5,0,1,1,5,0" fill="#ff9da6" stroke-width="2" opacity="1"/><path aria-label="Date: Sep 30, 2005; Distance to the future (AAs): 3.279; model: HI antigenic novelty + mutational load" role="graphics-symbol" aria-roledescription="point" transform="translate(80.05110421609784,327.1333333333333)" d="M5,0A5,5,0,1,1,-5,0A5,5,0,1,1,5,0" fill="#ff9da6" stroke-width="2" opacity="1"/><path aria-label="Date: Mar 31, 2006; Distance to the future (AAs): 5.414; model: HI antigenic novelty + mutational load" role="graphics-symbol" aria-roledescription="point" transform="translate(99.98174849425078,279.68888888888887)" d="M5,0A5,5,0,1,1,-5,0A5,5,0,1,1,5,0" fill="#ff9da6" stroke-width="2" opacity="1"/><path aria-label="Date: Sep 30, 2006; Distance to the future (AAs): 4.777; model: HI antigenic novelty + mutational load" role="graphics-symbol" aria-roledescription="point" transform="translate(120.02190180689907,293.84444444444443)" d="M5,0A5,5,0,1,1,-5,0A5,5,0,1,1,5,0" fill="#ff9da6" stroke-width="2" opacity="1"/><path aria-label="Date: Mar 31, 2007; Distance to the future (AAs): 5.215; model: HI antigenic novelty + mutational load" role="graphics-symbol" aria-roledescription="point" transform="translate(139.952546085052,284.1111111111111)" d="M5,0A5,5,0,1,1,-5,0A5,5,0,1,1,5,0" fill="#ff9da6" stroke-width="2" opacity="1"/><path aria-label="Date: Sep 30, 2007; Distance to the future (AAs): 4.039; model: HI antigenic novelty + mutational load" role="graphics-symbol" aria-roledescription="point" transform="translate(159.9926993977003,310.24444444444447)" d="M5,0A5,5,0,1,1,-5,0A5,5,0,1,1,5,0" fill="#ff9da6" stroke-width="2" opacity="1"/><path aria-label="Date: Mar 31, 2008; Distance to the future (AAs): 3.324; model: HI antigenic novelty + mutational load" role="graphics-symbol" aria-roledescription="point" transform="translate(180.0328527103486,326.1333333333333)" d="M5,0A5,5,0,1,1,-5,0A5,5,0,1,1,5,0" fill="#ff9da6" stroke-width="2" opacity="1"/><path aria-label="Date: Sep 30, 2008; Distance to the future (AAs): 8.096; model: HI antigenic novelty + mutational load" role="graphics-symbol" aria-roledescription="point" transform="translate(200.0730060229969,220.08888888888887)" d="M5,0A5,5,0,1,1,-5,0A5,5,0,1,1,5,0" fill="#ff9da6" stroke-width="2" opacity="1"/><path aria-label="Date: Mar 31, 2009; Distance to the future (AAs): 4.778; model: HI antigenic novelty + mutational load" role="graphics-symbol" aria-roledescription="point" transform="translate(220.00365030114983,293.82222222222225)" d="M5,0A5,5,0,1,1,-5,0A5,5,0,1,1,5,0" fill="#ff9da6" stroke-width="2" opacity="1"/><path aria-label="Date: Sep 30, 2009; Distance to the future (AAs): 7.511; model: HI antigenic novelty + mutational load" role="graphics-symbol" aria-roledescription="point" transform="translate(240.04380361379813,233.08888888888885)" d="M5,0A5,5,0,1,1,-5,0A5,5,0,1,1,5,0" fill="#ff9da6" stroke-width="2" opacity="1"/><path aria-label="Date: Mar 31, 2010; Distance to the future (AAs): 6.003; model: HI antigenic novelty + mutational load" role="graphics-symbol" aria-roledescription="point" transform="translate(259.9744478919511,266.59999999999997)" d="M5,0A5,5,0,1,1,-5,0A5,5,0,1,1,5,0" fill="#ff9da6" stroke-width="2" opacity="1"/><path aria-label="Date: Sep 30, 2010; Distance to the future (AAs): 6.543; model: HI antigenic novelty + mutational load" role="graphics-symbol" aria-roledescription="point" transform="translate(280.0146012045994,254.60000000000002)" d="M5,0A5,5,0,1,1,-5,0A5,5,0,1,1,5,0" fill="#ff9da6" stroke-width="2" opacity="1"/><path aria-label="Date: Mar 31, 2011; Distance to the future (AAs): 9.152; model: HI antigenic novelty + mutational load" role="graphics-symbol" aria-roledescription="point" transform="translate(299.94524548275234,196.62222222222226)" d="M5,0A5,5,0,1,1,-5,0A5,5,0,1,1,5,0" fill="#ff9da6" stroke-width="2" opacity="1"/><path aria-label="Date: Sep 30, 2011; Distance to the future (AAs): 5.036; model: HI antigenic novelty + mutational load" role="graphics-symbol" aria-roledescription="point" transform="translate(319.9853987954006,288.0888888888889)" d="M5,0A5,5,0,1,1,-5,0A5,5,0,1,1,5,0" fill="#ff9da6" stroke-width="2" opacity="1"/><path aria-label="Date: Mar 31, 2012; Distance to the future (AAs): 6.931; model: HI antigenic novelty + mutational load" role="graphics-symbol" aria-roledescription="point" transform="translate(340.0255521080489,245.97777777777782)" d="M5,0A5,5,0,1,1,-5,0A5,5,0,1,1,5,0" fill="#ff9da6" stroke-width="2" opacity="1"/><path aria-label="Date: Sep 30, 2012; Distance to the future (AAs): 7.323; model: HI antigenic novelty + mutational load" role="graphics-symbol" aria-roledescription="point" transform="translate(360.0657054206972,237.26666666666665)" d="M5,0A5,5,0,1,1,-5,0A5,5,0,1,1,5,0" fill="#ff9da6" stroke-width="2" opacity="1"/><path aria-label="Date: Mar 31, 2013; Distance to the future (AAs): 4.472; model: HI antigenic novelty + mutational load" role="graphics-symbol" aria-roledescription="point" transform="translate(379.99634969885017,300.6222222222222)" d="M5,0A5,5,0,1,1,-5,0A5,5,0,1,1,5,0" fill="#ff9da6" stroke-width="2" opacity="1"/><path aria-label="Date: Sep 30, 2013; Distance to the future (AAs): 5.099; model: HI antigenic novelty + mutational load" role="graphics-symbol" aria-roledescription="point" transform="translate(400.03650301149844,286.6888888888889)" d="M5,0A5,5,0,1,1,-5,0A5,5,0,1,1,5,0" fill="#ff9da6" stroke-width="2" opacity="1"/><path aria-label="Date: Mar 31, 2014; Distance to the future (AAs): 7.172; model: HI antigenic novelty + mutational load" role="graphics-symbol" aria-roledescription="point" transform="translate(419.9671472896514,240.62222222222226)" d="M5,0A5,5,0,1,1,-5,0A5,5,0,1,1,5,0" fill="#ff9da6" stroke-width="2" opacity="1"/><path aria-label="Date: Sep 30, 2014; Distance to the future (AAs): 6.855; model: HI antigenic novelty + mutational load" role="graphics-symbol" aria-roledescription="point" transform="translate(440.00730060229967,247.66666666666666)" d="M5,0A5,5,0,1,1,-5,0A5,5,0,1,1,5,0" fill="#ff9da6" stroke-width="2" opacity="1"/><path aria-label="Date: Sep 30, 2003; Distance to the future (AAs): 7.855; model: mutational load + LBI" role="graphics-symbol" aria-roledescription="point" transform="translate(0,225.44444444444443)" d="M5,0A5,5,0,1,1,-5,0A5,5,0,1,1,5,0" fill="#9d755d" stroke-width="2" opacity="1"/><path aria-label="Date: Mar 31, 2004; Distance to the future (AAs): 5.544; model: mutational load + LBI" role="graphics-symbol" aria-roledescription="point" transform="translate(20.040153312648293,276.79999999999995)" d="M5,0A5,5,0,1,1,-5,0A5,5,0,1,1,5,0" fill="#9d755d" stroke-width="2" opacity="1"/><path aria-label="Date: Sep 30, 2004; Distance to the future (AAs): 4.616; model: mutational load + LBI" role="graphics-symbol" aria-roledescription="point" transform="translate(40.080306625296586,297.4222222222222)" d="M5,0A5,5,0,1,1,-5,0A5,5,0,1,1,5,0" fill="#9d755d" stroke-width="2" opacity="1"/><path aria-label="Date: Mar 31, 2005; Distance to the future (AAs): 4.777; model: mutational load + LBI" role="graphics-symbol" aria-roledescription="point" transform="translate(60.01095090344953,293.84444444444443)" d="M5,0A5,5,0,1,1,-5,0A5,5,0,1,1,5,0" fill="#9d755d" stroke-width="2" opacity="1"/><path aria-label="Date: Sep 30, 2005; Distance to the future (AAs): 3.902; model: mutational load + LBI" role="graphics-symbol" aria-roledescription="point" transform="translate(80.05110421609784,313.2888888888889)" d="M5,0A5,5,0,1,1,-5,0A5,5,0,1,1,5,0" fill="#9d755d" stroke-width="2" opacity="1"/><path aria-label="Date: Mar 31, 2006; Distance to the future (AAs): 5.658; model: mutational load + LBI" role="graphics-symbol" aria-roledescription="point" transform="translate(99.98174849425078,274.26666666666665)" d="M5,0A5,5,0,1,1,-5,0A5,5,0,1,1,5,0" fill="#9d755d" stroke-width="2" opacity="1"/><path aria-label="Date: Sep 30, 2006; Distance to the future (AAs): 3.932; model: mutational load + LBI" role="graphics-symbol" aria-roledescription="point" transform="translate(120.02190180689907,312.6222222222222)" d="M5,0A5,5,0,1,1,-5,0A5,5,0,1,1,5,0" fill="#9d755d" stroke-width="2" opacity="1"/><path aria-label="Date: Mar 31, 2007; Distance to the future (AAs): 3.871; model: mutational load + LBI" role="graphics-symbol" aria-roledescription="point" transform="translate(139.952546085052,313.97777777777776)" d="M5,0A5,5,0,1,1,-5,0A5,5,0,1,1,5,0" fill="#9d755d" stroke-width="2" opacity="1"/><path aria-label="Date: Sep 30, 2007; Distance to the future (AAs): 3.972; model: mutational load + LBI" role="graphics-symbol" aria-roledescription="point" transform="translate(159.9926993977003,311.73333333333335)" d="M5,0A5,5,0,1,1,-5,0A5,5,0,1,1,5,0" fill="#9d755d" stroke-width="2" opacity="1"/><path aria-label="Date: Mar 31, 2008; Distance to the future (AAs): 2.515; model: mutational load + LBI" role="graphics-symbol" aria-roledescription="point" transform="translate(180.0328527103486,344.11111111111114)" d="M5,0A5,5,0,1,1,-5,0A5,5,0,1,1,5,0" fill="#9d755d" stroke-width="2" opacity="1"/><path aria-label="Date: Sep 30, 2008; Distance to the future (AAs): 5.888; model: mutational load + LBI" role="graphics-symbol" aria-roledescription="point" transform="translate(200.0730060229969,269.15555555555557)" d="M5,0A5,5,0,1,1,-5,0A5,5,0,1,1,5,0" fill="#9d755d" stroke-width="2" opacity="1"/><path aria-label="Date: Mar 31, 2009; Distance to the future (AAs): 6.267; model: mutational load + LBI" role="graphics-symbol" aria-roledescription="point" transform="translate(220.00365030114983,260.7333333333333)" d="M5,0A5,5,0,1,1,-5,0A5,5,0,1,1,5,0" fill="#9d755d" stroke-width="2" opacity="1"/><path aria-label="Date: Sep 30, 2009; Distance to the future (AAs): 5.784; model: mutational load + LBI" role="graphics-symbol" aria-roledescription="point" transform="translate(240.04380361379813,271.4666666666667)" d="M5,0A5,5,0,1,1,-5,0A5,5,0,1,1,5,0" fill="#9d755d" stroke-width="2" opacity="1"/><path aria-label="Date: Mar 31, 2010; Distance to the future (AAs): 5.696; model: mutational load + LBI" role="graphics-symbol" aria-roledescription="point" transform="translate(259.9744478919511,273.4222222222222)" d="M5,0A5,5,0,1,1,-5,0A5,5,0,1,1,5,0" fill="#9d755d" stroke-width="2" opacity="1"/><path aria-label="Date: Sep 30, 2010; Distance to the future (AAs): 6.753; model: mutational load + LBI" role="graphics-symbol" aria-roledescription="point" transform="translate(280.0146012045994,249.93333333333334)" d="M5,0A5,5,0,1,1,-5,0A5,5,0,1,1,5,0" fill="#9d755d" stroke-width="2" opacity="1"/><path aria-label="Date: Mar 31, 2011; Distance to the future (AAs): 9.689; model: mutational load + LBI" role="graphics-symbol" aria-roledescription="point" transform="translate(299.94524548275234,184.6888888888889)" d="M5,0A5,5,0,1,1,-5,0A5,5,0,1,1,5,0" fill="#9d755d" stroke-width="2" opacity="1"/><path aria-label="Date: Sep 30, 2011; Distance to the future (AAs): 5.927; model: mutational load + LBI" role="graphics-symbol" aria-roledescription="point" transform="translate(319.9853987954006,268.2888888888889)" d="M5,0A5,5,0,1,1,-5,0A5,5,0,1,1,5,0" fill="#9d755d" stroke-width="2" opacity="1"/><path aria-label="Date: Mar 31, 2012; Distance to the future (AAs): 3.698; model: mutational load + LBI" role="graphics-symbol" aria-roledescription="point" transform="translate(340.0255521080489,317.82222222222225)" d="M5,0A5,5,0,1,1,-5,0A5,5,0,1,1,5,0" fill="#9d755d" stroke-width="2" opacity="1"/><path aria-label="Date: Sep 30, 2012; Distance to the future (AAs): 3.597; model: mutational load + LBI" role="graphics-symbol" aria-roledescription="point" transform="translate(360.0657054206972,320.06666666666666)" d="M5,0A5,5,0,1,1,-5,0A5,5,0,1,1,5,0" fill="#9d755d" stroke-width="2" opacity="1"/><path aria-label="Date: Mar 31, 2013; Distance to the future (AAs): 3.483; model: mutational load + LBI" role="graphics-symbol" aria-roledescription="point" transform="translate(379.99634969885017,322.6)" d="M5,0A5,5,0,1,1,-5,0A5,5,0,1,1,5,0" fill="#9d755d" stroke-width="2" opacity="1"/><path aria-label="Date: Sep 30, 2013; Distance to the future (AAs): 6.536; model: mutational load + LBI" role="graphics-symbol" aria-roledescription="point" transform="translate(400.03650301149844,254.75555555555553)" d="M5,0A5,5,0,1,1,-5,0A5,5,0,1,1,5,0" fill="#9d755d" stroke-width="2" opacity="1"/><path aria-label="Date: Mar 31, 2014; Distance to the future (AAs): 9.077; model: mutational load + LBI" role="graphics-symbol" aria-roledescription="point" transform="translate(419.9671472896514,198.28888888888886)" d="M5,0A5,5,0,1,1,-5,0A5,5,0,1,1,5,0" fill="#9d755d" stroke-width="2" opacity="1"/><path aria-label="Date: Sep 30, 2014; Distance to the future (AAs): 6.177; model: mutational load + LBI" role="graphics-symbol" aria-roledescription="point" transform="translate(440.00730060229967,262.73333333333335)" d="M5,0A5,5,0,1,1,-5,0A5,5,0,1,1,5,0" fill="#9d755d" stroke-width="2" opacity="1"/></g><g class="mark-group role-scope layer_4_layer_0_pathgroup" role="graphics-object" aria-roledescription="group mark container"><g transform="translate(0,0)"><path class="background" aria-hidden="true" d="M0,0h600v400h-600Z"/><g><g class="mark-line role-mark layer_4_layer_0_marks" role="graphics-object" aria-roledescription="line mark container" pointer-events="none"><path aria-label="Date: Mar 31, 2015; Distance to the future (AAs): 4.081; model: HI antigenic novelty + mutational load + LBI" role="graphics-symbol" aria-roledescription="line mark" d="M459.9379448804526,309.3111111111111L479.97809819310095,268.15555555555557L500.0182515057492,253.17777777777778L520.0584048183975,268.8888888888889L539.9890490965504,260.02222222222224L560.0292024091988,298.84444444444443L579.9598466873517,275.0444444444445L600,201.55555555555554" stroke="#bab0ac" stroke-width="2"/></g></g><path class="foreground" aria-hidden="true" d="" display="none"/></g><g transform="translate(0,0)"><path class="background" aria-hidden="true" d="M0,0h600v400h-600Z"/><g><g class="mark-line role-mark layer_4_layer_0_marks" role="graphics-object" aria-roledescription="line mark container" pointer-events="none"><path aria-label="Date: Mar 31, 2015; Distance to the future (AAs): 4.038; model: HI antigenic novelty + mutational load" role="graphics-symbol" aria-roledescription="line mark" d="M459.9379448804526,310.26666666666665L479.97809819310095,268.2L500.0182515057492,254.4888888888889L520.0584048183975,269.8666666666667L539.9890490965504,260.22222222222223L560.0292024091988,299.88888888888886L579.9598466873517,274.48888888888894L600,201.9333333333333" stroke="#ff9da6" stroke-width="2"/></g></g><path class="foreground" aria-hidden="true" d="" display="none"/></g><g transform="translate(0,0)"><path class="background" aria-hidden="true" d="M0,0h600v400h-600Z"/><g><g class="mark-line role-mark layer_4_layer_0_marks" role="graphics-object" aria-roledescription="line mark container" pointer-events="none"><path aria-label="Date: Mar 31, 2015; Distance to the future (AAs): 4.663; model: mutational load + LBI" role="graphics-symbol" aria-roledescription="line mark" d="M459.9379448804526,296.37777777777774L479.97809819310095,239.35555555555555L500.0182515057492,281.5333333333333L520.0584048183975,258.22222222222223L539.9890490965504,216.6888888888889L560.0292024091988,306.5111111111111L579.9598466873517,155.64444444444442L600,76.24444444444443" stroke="#9d755d" stroke-width="2"/></g></g><path class="foreground" aria-hidden="true" d="" display="none"/></g></g><g class="mark-symbol role-mark layer_4_layer_1_marks" role="graphics-object" aria-roledescription="symbol mark container" pointer-events="none"><path aria-label="Date: Mar 31, 2015; Distance to the future (AAs): 4.081; model: HI antigenic novelty + mutational load + LBI" role="graphics-symbol" aria-roledescription="point" transform="translate(459.9379448804526,309.3111111111111)" d="M5,0A5,5,0,1,1,-5,0A5,5,0,1,1,5,0" fill="white" stroke="#bab0ac" stroke-width="2" opacity="1"/><path aria-label="Date: Sep 30, 2015; Distance to the future (AAs): 5.933; model: HI antigenic novelty + mutational load + LBI" role="graphics-symbol" aria-roledescription="point" transform="translate(479.97809819310095,268.15555555555557)" d="M5,0A5,5,0,1,1,-5,0A5,5,0,1,1,5,0" fill="white" stroke="#bab0ac" stroke-width="2" opacity="1"/><path aria-label="Date: Mar 31, 2016; Distance to the future (AAs): 6.607; model: HI antigenic novelty + mutational load + LBI" role="graphics-symbol" aria-roledescription="point" transform="translate(500.0182515057492,253.17777777777778)" d="M5,0A5,5,0,1,1,-5,0A5,5,0,1,1,5,0" fill="white" stroke="#bab0ac" stroke-width="2" opacity="1"/><path aria-label="Date: Sep 30, 2016; Distance to the future (AAs): 5.9; model: HI antigenic novelty + mutational load + LBI" role="graphics-symbol" aria-roledescription="point" transform="translate(520.0584048183975,268.8888888888889)" d="M5,0A5,5,0,1,1,-5,0A5,5,0,1,1,5,0" fill="white" stroke="#bab0ac" stroke-width="2" opacity="1"/><path aria-label="Date: Mar 31, 2017; Distance to the future (AAs): 6.299; model: HI antigenic novelty + mutational load + LBI" role="graphics-symbol" aria-roledescription="point" transform="translate(539.9890490965504,260.02222222222224)" d="M5,0A5,5,0,1,1,-5,0A5,5,0,1,1,5,0" fill="white" stroke="#bab0ac" stroke-width="2" opacity="1"/><path aria-label="Date: Sep 30, 2017; Distance to the future (AAs): 4.552; model: HI antigenic novelty + mutational load + LBI" role="graphics-symbol" aria-roledescription="point" transform="translate(560.0292024091988,298.84444444444443)" d="M5,0A5,5,0,1,1,-5,0A5,5,0,1,1,5,0" fill="white" stroke="#bab0ac" stroke-width="2" opacity="1"/><path aria-label="Date: Mar 31, 2018; Distance to the future (AAs): 5.623; model: HI antigenic novelty + mutational load + LBI" role="graphics-symbol" aria-roledescription="point" transform="translate(579.9598466873517,275.0444444444445)" d="M5,0A5,5,0,1,1,-5,0A5,5,0,1,1,5,0" fill="white" stroke="#bab0ac" stroke-width="2" opacity="1"/><path aria-label="Date: Sep 30, 2018; Distance to the future (AAs): 8.93; model: HI antigenic novelty + mutational load + LBI" role="graphics-symbol" aria-roledescription="point" transform="translate(600,201.55555555555554)" d="M5,0A5,5,0,1,1,-5,0A5,5,0,1,1,5,0" fill="white" stroke="#bab0ac" stroke-width="2" opacity="1"/><path aria-label="Date: Mar 31, 2015; Distance to the future (AAs): 4.038; model: HI antigenic novelty + mutational load" role="graphics-symbol" aria-roledescription="point" transform="translate(459.9379448804526,310.26666666666665)" d="M5,0A5,5,0,1,1,-5,0A5,5,0,1,1,5,0" fill="white" stroke="#ff9da6" stroke-width="2" opacity="1"/><path aria-label="Date: Sep 30, 2015; Distance to the future (AAs): 5.931; model: HI antigenic novelty + mutational load" role="graphics-symbol" aria-roledescription="point" transform="translate(479.97809819310095,268.2)" d="M5,0A5,5,0,1,1,-5,0A5,5,0,1,1,5,0" fill="white" stroke="#ff9da6" stroke-width="2" opacity="1"/><path aria-label="Date: Mar 31, 2016; Distance to the future (AAs): 6.548; model: HI antigenic novelty + mutational load" role="graphics-symbol" aria-roledescription="point" transform="translate(500.0182515057492,254.4888888888889)" d="M5,0A5,5,0,1,1,-5,0A5,5,0,1,1,5,0" fill="white" stroke="#ff9da6" stroke-width="2" opacity="1"/><path aria-label="Date: Sep 30, 2016; Distance to the future (AAs): 5.856; model: HI antigenic novelty + mutational load" role="graphics-symbol" aria-roledescription="point" transform="translate(520.0584048183975,269.8666666666667)" d="M5,0A5,5,0,1,1,-5,0A5,5,0,1,1,5,0" fill="white" stroke="#ff9da6" stroke-width="2" opacity="1"/><path aria-label="Date: Mar 31, 2017; Distance to the future (AAs): 6.29; model: HI antigenic novelty + mutational load" role="graphics-symbol" aria-roledescription="point" transform="translate(539.9890490965504,260.22222222222223)" d="M5,0A5,5,0,1,1,-5,0A5,5,0,1,1,5,0" fill="white" stroke="#ff9da6" stroke-width="2" opacity="1"/><path aria-label="Date: Sep 30, 2017; Distance to the future (AAs): 4.505; model: HI antigenic novelty + mutational load" role="graphics-symbol" aria-roledescription="point" transform="translate(560.0292024091988,299.88888888888886)" d="M5,0A5,5,0,1,1,-5,0A5,5,0,1,1,5,0" fill="white" stroke="#ff9da6" stroke-width="2" opacity="1"/><path aria-label="Date: Mar 31, 2018; Distance to the future (AAs): 5.648; model: HI antigenic novelty + mutational load" role="graphics-symbol" aria-roledescription="point" transform="translate(579.9598466873517,274.48888888888894)" d="M5,0A5,5,0,1,1,-5,0A5,5,0,1,1,5,0" fill="white" stroke="#ff9da6" stroke-width="2" opacity="1"/><path aria-label="Date: Sep 30, 2018; Distance to the future (AAs): 8.913; model: HI antigenic novelty + mutational load" role="graphics-symbol" aria-roledescription="point" transform="translate(600,201.9333333333333)" d="M5,0A5,5,0,1,1,-5,0A5,5,0,1,1,5,0" fill="white" stroke="#ff9da6" stroke-width="2" opacity="1"/><path aria-label="Date: Mar 31, 2015; Distance to the future (AAs): 4.663; model: mutational load + LBI" role="graphics-symbol" aria-roledescription="point" transform="translate(459.9379448804526,296.37777777777774)" d="M5,0A5,5,0,1,1,-5,0A5,5,0,1,1,5,0" fill="white" stroke="#9d755d" stroke-width="2" opacity="1"/><path aria-label="Date: Sep 30, 2015; Distance to the future (AAs): 7.229; model: mutational load + LBI" role="graphics-symbol" aria-roledescription="point" transform="translate(479.97809819310095,239.35555555555555)" d="M5,0A5,5,0,1,1,-5,0A5,5,0,1,1,5,0" fill="white" stroke="#9d755d" stroke-width="2" opacity="1"/><path aria-label="Date: Mar 31, 2016; Distance to the future (AAs): 5.331; model: mutational load + LBI" role="graphics-symbol" aria-roledescription="point" transform="translate(500.0182515057492,281.5333333333333)" d="M5,0A5,5,0,1,1,-5,0A5,5,0,1,1,5,0" fill="white" stroke="#9d755d" stroke-width="2" opacity="1"/><path aria-label="Date: Sep 30, 2016; Distance to the future (AAs): 6.38; model: mutational load + LBI" role="graphics-symbol" aria-roledescription="point" transform="translate(520.0584048183975,258.22222222222223)" d="M5,0A5,5,0,1,1,-5,0A5,5,0,1,1,5,0" fill="white" stroke="#9d755d" stroke-width="2" opacity="1"/><path aria-label="Date: Mar 31, 2017; Distance to the future (AAs): 8.249; model: mutational load + LBI" role="graphics-symbol" aria-roledescription="point" transform="translate(539.9890490965504,216.6888888888889)" d="M5,0A5,5,0,1,1,-5,0A5,5,0,1,1,5,0" fill="white" stroke="#9d755d" stroke-width="2" opacity="1"/><path aria-label="Date: Sep 30, 2017; Distance to the future (AAs): 4.207; model: mutational load + LBI" role="graphics-symbol" aria-roledescription="point" transform="translate(560.0292024091988,306.5111111111111)" d="M5,0A5,5,0,1,1,-5,0A5,5,0,1,1,5,0" fill="white" stroke="#9d755d" stroke-width="2" opacity="1"/><path aria-label="Date: Mar 31, 2018; Distance to the future (AAs): 10.996; model: mutational load + LBI" role="graphics-symbol" aria-roledescription="point" transform="translate(579.9598466873517,155.64444444444442)" d="M5,0A5,5,0,1,1,-5,0A5,5,0,1,1,5,0" fill="white" stroke="#9d755d" stroke-width="2" opacity="1"/><path aria-label="Date: Sep 30, 2018; Distance to the future (AAs): 14.569; model: mutational load + LBI" role="graphics-symbol" aria-roledescription="point" transform="translate(600,76.24444444444443)" d="M5,0A5,5,0,1,1,-5,0A5,5,0,1,1,5,0" fill="white" stroke="#9d755d" stroke-width="2" opacity="1"/></g><g class="mark-group role-legend" role="graphics-symbol" aria-roledescription="legend" aria-label="Symbol legend titled 'model' for fill color and stroke color with 10 values: epitope antigenic novelty, oracle antigenic novelty, HI antigenic novelty, mutational load, DMS mutational effects, ending with HI antigenic novelty + mutational load + LBI"><g transform="translate(620,0)"><path class="background" aria-hidden="true" d="M0,0h289v177h-289Z" pointer-events="none"/><g><g class="mark-group role-legend-entry"><g transform="translate(0,19)"><path class="background" aria-hidden="true" d="M0,0h0v0h0Z" pointer-events="none"/><g><g class="mark-group role-scope model_legend_entries" role="graphics-object" aria-roledescription="group mark container"><g transform="translate(0,0)"><path class="background" aria-hidden="true" d="M0,0h288.0537109375v14h-288.0537109375Z" opacity="1"/><g><g class="mark-symbol role-legend-symbol model_legend_symbols"><path transform="translate(7,7)" d="M5,0A5,5,0,1,1,-5,0A5,5,0,1,1,5,0" fill="#4c78a8" stroke="#4c78a8" stroke-width="1.5" opacity="0.35"/></g><g class="mark-text role-legend-label model_legend_labels"><text text-anchor="start" transform="translate(18,11)" font-family="sans-serif" font-size="14px" fill="#000" opacity="0.35">epitope antigenic novelty</text></g></g><path class="foreground" aria-hidden="true" d="" display="none"/></g><g transform="translate(0,16)"><path class="background" aria-hidden="true" d="M0,0h288.0537109375v14h-288.0537109375Z" opacity="1"/><g><g class="mark-symbol role-legend-symbol model_legend_symbols"><path transform="translate(7,7)" d="M5,0A5,5,0,1,1,-5,0A5,5,0,1,1,5,0" fill="#f58518" stroke="#f58518" stroke-width="1.5" opacity="0.35"/></g><g class="mark-text role-legend-label model_legend_labels"><text text-anchor="start" transform="translate(18,11)" font-family="sans-serif" font-size="14px" fill="#000" opacity="0.35">oracle antigenic novelty</text></g></g><path class="foreground" aria-hidden="true" d="" display="none"/></g><g transform="translate(0,32)"><path class="background" aria-hidden="true" d="M0,0h288.0537109375v14h-288.0537109375Z" opacity="1"/><g><g class="mark-symbol role-legend-symbol model_legend_symbols"><path transform="translate(7,7)" d="M5,0A5,5,0,1,1,-5,0A5,5,0,1,1,5,0" fill="#e45756" stroke="#e45756" stroke-width="1.5" opacity="0.35"/></g><g class="mark-text role-legend-label model_legend_labels"><text text-anchor="start" transform="translate(18,11)" font-family="sans-serif" font-size="14px" fill="#000" opacity="0.35">HI antigenic novelty</text></g></g><path class="foreground" aria-hidden="true" d="" display="none"/></g><g transform="translate(0,48)"><path class="background" aria-hidden="true" d="M0,0h288.0537109375v14h-288.0537109375Z" opacity="1"/><g><g class="mark-symbol role-legend-symbol model_legend_symbols"><path transform="translate(7,7)" d="M5,0A5,5,0,1,1,-5,0A5,5,0,1,1,5,0" fill="#72b7b2" stroke="#72b7b2" stroke-width="1.5" opacity="0.35"/></g><g class="mark-text role-legend-label model_legend_labels"><text text-anchor="start" transform="translate(18,11)" font-family="sans-serif" font-size="14px" fill="#000" opacity="0.35">mutational load</text></g></g><path class="foreground" aria-hidden="true" d="" display="none"/></g><g transform="translate(0,64)"><path class="background" aria-hidden="true" d="M0,0h288.0537109375v14h-288.0537109375Z" opacity="1"/><g><g class="mark-symbol role-legend-symbol model_legend_symbols"><path transform="translate(7,7)" d="M5,0A5,5,0,1,1,-5,0A5,5,0,1,1,5,0" fill="#54a24b" stroke="#54a24b" stroke-width="1.5" opacity="0.35"/></g><g class="mark-text role-legend-label model_legend_labels"><text text-anchor="start" transform="translate(18,11)" font-family="sans-serif" font-size="14px" fill="#000" opacity="0.35">DMS mutational effects</text></g></g><path class="foreground" aria-hidden="true" d="" display="none"/></g><g transform="translate(0,80)"><path class="background" aria-hidden="true" d="M0,0h288.0537109375v14h-288.0537109375Z" opacity="1"/><g><g class="mark-symbol role-legend-symbol model_legend_symbols"><path transform="translate(7,7)" d="M5,0A5,5,0,1,1,-5,0A5,5,0,1,1,5,0" fill="#eeca3b" stroke="#eeca3b" stroke-width="1.5" opacity="0.35"/></g><g class="mark-text role-legend-label model_legend_labels"><text text-anchor="start" transform="translate(18,11)" font-family="sans-serif" font-size="14px" fill="#000" opacity="0.35">LBI</text></g></g><path class="foreground" aria-hidden="true" d="" display="none"/></g><g transform="translate(0,96)"><path class="background" aria-hidden="true" d="M0,0h288.0537109375v14h-288.0537109375Z" opacity="1"/><g><g class="mark-symbol role-legend-symbol model_legend_symbols"><path transform="translate(7,7)" d="M5,0A5,5,0,1,1,-5,0A5,5,0,1,1,5,0" fill="#b279a2" stroke="#b279a2" stroke-width="1.5" opacity="0.35"/></g><g class="mark-text role-legend-label model_legend_labels"><text text-anchor="start" transform="translate(18,11)" font-family="sans-serif" font-size="14px" fill="#000" opacity="0.35">delta frequency</text></g></g><path class="foreground" aria-hidden="true" d="" display="none"/></g><g transform="translate(0,112)"><path class="background" aria-hidden="true" d="M0,0h288.0537109375v14h-288.0537109375Z" opacity="1"/><g><g class="mark-symbol role-legend-symbol model_legend_symbols"><path transform="translate(7,7)" d="M5,0A5,5,0,1,1,-5,0A5,5,0,1,1,5,0" fill="#ff9da6" stroke="#ff9da6" stroke-width="1.5" opacity="1"/></g><g class="mark-text role-legend-label model_legend_labels"><text text-anchor="start" transform="translate(18,11)" font-family="sans-serif" font-size="14px" fill="#000" opacity="1">HI antigenic novelty + mutational load</text></g></g><path class="foreground" aria-hidden="true" d="" display="none"/></g><g transform="translate(0,128)"><path class="background" aria-hidden="true" d="M0,0h288.0537109375v14h-288.0537109375Z" opacity="1"/><g><g class="mark-symbol role-legend-symbol model_legend_symbols"><path transform="translate(7,7)" d="M5,0A5,5,0,1,1,-5,0A5,5,0,1,1,5,0" fill="#9d755d" stroke="#9d755d" stroke-width="1.5" opacity="1"/></g><g class="mark-text role-legend-label model_legend_labels"><text text-anchor="start" transform="translate(18,11)" font-family="sans-serif" font-size="14px" fill="#000" opacity="1">mutational load + LBI</text></g></g><path class="foreground" aria-hidden="true" d="" display="none"/></g><g transform="translate(0,144)"><path class="background" aria-hidden="true" d="M0,0h288.0537109375v14h-288.0537109375Z" opacity="1"/><g><g class="mark-symbol role-legend-symbol model_legend_symbols"><path transform="translate(7,7)" d="M5,0A5,5,0,1,1,-5,0A5,5,0,1,1,5,0" fill="#bab0ac" stroke="#bab0ac" stroke-width="1.5" opacity="1"/></g><g class="mark-text role-legend-label model_legend_labels"><text text-anchor="start" transform="translate(18,11)" font-family="sans-serif" font-size="14px" fill="#000" opacity="1">HI antigenic novelty + mutational load + LBI</text></g></g><path class="foreground" aria-hidden="true" d="" display="none"/></g></g></g><path class="foreground" aria-hidden="true" d="" pointer-events="none" display="none"/></g></g><g class="mark-text role-legend-title" pointer-events="none"><text text-anchor="start" transform="translate(0,11)" font-family="sans-serif" font-size="14px" font-weight="bold" fill="#000" opacity="1">model</text></g></g><path class="foreground" aria-hidden="true" d="" pointer-events="none" display="none"/></g></g></g><path class="foreground" aria-hidden="true" d="" display="none"/></g></g></g></svg>