<svg version="1.1" viewBox="0.0 0.0 960.0 720.0" fill="none" stroke="none" stroke-linecap="square" stroke-miterlimit="10" xmlns:xlink="http://www.w3.org/1999/xlink" xmlns="http://www.w3.org/2000/svg"><clipPath id="ga2489fba5e_0_401.0"><path d="m0 0l960.0 0l0 720.0l-960.0 0l0 -720.0z" clip-rule="nonzero"/></clipPath><g clip-path="url(#ga2489fba5e_0_401.0)"><path fill="#ffffff" d="m0 0l960.0 0l0 720.0l-960.0 0z" fill-rule="evenodd"/><path fill="#000000" fill-opacity="0.0" d="m190.72644 302.83487l0 0c0 -25.726898 19.50206 -46.582672 43.559067 -46.582672l0 0c11.552567 0 22.632004 4.9078064 30.800888 13.643738c8.168915 8.735962 12.758148 20.584442 12.758148 32.938934l0 0c0 25.726898 -19.502045 46.582672 -43.559036 46.582672l0 0c-24.057007 0 -43.559067 -20.855774 -43.559067 -46.582672z" fill-rule="evenodd"/><path stroke="#b7b7b7" stroke-width="2.0" stroke-linejoin="round" stroke-linecap="butt" d="m190.72644 302.83487l0 0c0 -25.726898 19.50206 -46.582672 43.559067 -46.582672l0 0c11.552567 0 22.632004 4.9078064 30.800888 13.643738c8.168915 8.735962 12.758148 20.584442 12.758148 32.938934l0 0c0 25.726898 -19.502045 46.582672 -43.559036 46.582672l0 0c-24.057007 0 -43.559067 -20.855774 -43.559067 -46.582672z" fill-rule="evenodd"/><path fill="#000000" fill-opacity="0.0" d="m201.91388 303.00735l66.33072 0" fill-rule="evenodd"/><path stroke="#4a86e8" stroke-width="12.0" stroke-linejoin="round" stroke-linecap="butt" d="m201.91388 303.00735l66.33072 0" fill-rule="evenodd"/><path fill="#b7b7b7" d="m229.14024 256.97955l4.897629 -9.102356l4.897644 9.102356z" fill-rule="evenodd"/><path stroke="#b7b7b7" stroke-width="1.0" stroke-linejoin="round" stroke-linecap="butt" d="m229.14024 256.97955l4.897629 -9.102356l4.897644 9.102356z" fill-rule="evenodd"/><path fill="#b7b7b7" d="m260.9145 266.46146l9.496063 -2.7244263l-2.535431 10.125977z" fill-rule="evenodd"/><path stroke="#b7b7b7" stroke-width="1.0" stroke-linejoin="round" stroke-linecap="butt" d="m260.9145 266.46146l9.496063 -2.7244263l-2.535431 10.125977z" fill-rule="evenodd"/><path fill="#b7b7b7" d="m277.0859 295.3256l8.48819 5.24411l-8.456696 5.2440796z" fill-rule="evenodd"/><path stroke="#b7b7b7" stroke-width="1.0" stroke-linejoin="round" stroke-linecap="butt" d="m277.0859 295.3256l8.48819 5.24411l-8.456696 5.2440796z" fill-rule="evenodd"/><path fill="#b7b7b7" d="m191.63062 295.3256l-8.48819 5.24411l8.456696 5.2440796z" fill-rule="evenodd"/><path stroke="#b7b7b7" stroke-width="1.0" stroke-linejoin="round" stroke-linecap="butt" d="m191.63062 295.3256l-8.48819 5.24411l8.456696 5.2440796z" fill-rule="evenodd"/><path fill="#b7b7b7" d="m229.14024 348.9848l4.897629 9.102356l4.897644 -9.102356z" fill-rule="evenodd"/><path stroke="#b7b7b7" stroke-width="1.0" stroke-linejoin="round" stroke-linecap="butt" d="m229.14024 348.9848l4.897629 9.102356l4.897644 -9.102356z" fill-rule="evenodd"/><path fill="#b7b7b7" d="m207.15965 266.46146l-9.496063 -2.7244263l2.535431 10.125977z" fill-rule="evenodd"/><path stroke="#b7b7b7" stroke-width="1.0" stroke-linejoin="round" stroke-linecap="butt" d="m207.15965 266.46146l-9.496063 -2.7244263l2.535431 10.125977z" fill-rule="evenodd"/><path fill="#b7b7b7" d="m199.90613 331.03098l-2.535431 10.141724l9.496063 -2.7086487z" fill-rule="evenodd"/><path stroke="#b7b7b7" stroke-width="1.0" stroke-linejoin="round" stroke-linecap="butt" d="m199.90613 331.03098l-2.535431 10.141724l9.496063 -2.7086487z" fill-rule="evenodd"/><path fill="#b7b7b7" d="m268.4943 331.03098l2.535431 10.141724l-9.496063 -2.7086487z" fill-rule="evenodd"/><path stroke="#b7b7b7" stroke-width="1.0" stroke-linejoin="round" stroke-linecap="butt" d="m268.4943 331.03098l2.535431 10.141724l-9.496063 -2.7086487z" fill-rule="evenodd"/><path fill="#b7b7b7" d="m212.71426 343.1331l1.1810913 10.425201l7.795288 -6.330719z" fill-rule="evenodd"/><path stroke="#b7b7b7" stroke-width="1.0" stroke-linejoin="round" stroke-linecap="butt" d="m212.71426 343.1331l1.1810913 10.425201l7.795288 -6.330719z" fill-rule="evenodd"/><path fill="#b7b7b7" d="m256.3011 342.78412l-1.1811066 10.425201l-7.795273 -6.330719z" fill-rule="evenodd"/><path stroke="#b7b7b7" stroke-width="1.0" stroke-linejoin="round" stroke-linecap="butt" d="m256.3011 342.78412l-1.1811066 10.425201l-7.795273 -6.330719z" fill-rule="evenodd"/><path fill="#b7b7b7" d="m212.71426 262.43857l1.1810913 -10.425186l7.795288 6.3307037z" fill-rule="evenodd"/><path stroke="#b7b7b7" stroke-width="1.0" stroke-linejoin="round" stroke-linecap="butt" d="m212.71426 262.43857l1.1810913 -10.425186l7.795288 6.3307037z" fill-rule="evenodd"/><path fill="#b7b7b7" d="m256.3011 262.78754l-1.1811066 -10.425201l-7.795273 6.330719z" fill-rule="evenodd"/><path stroke="#b7b7b7" stroke-width="1.0" stroke-linejoin="round" stroke-linecap="butt" d="m256.3011 262.78754l-1.1811066 -10.425201l-7.795273 6.330719z" fill-rule="evenodd"/><path fill="#000000" fill-opacity="0.0" d="m219.83788 296.85696l0 11.968506" fill-rule="evenodd"/><path stroke="#ff9900" stroke-width="4.0" stroke-linejoin="round" stroke-linecap="butt" d="m219.83788 296.85696l0 11.968506" fill-rule="evenodd"/><path fill="#000000" fill-opacity="0.0" d="m682.0099 70.83487l0 0c0 -25.726902 19.502075 -46.58268 43.559082 -46.58268l0 0c11.552551 0 22.632019 4.9078045 30.800903 13.643753c8.168884 8.735943 12.758118 20.58443 12.758118 32.938927l0 0c0 25.726898 -19.502014 46.582672 -43.55902 46.582672l0 0c-24.057007 0 -43.559082 -20.855774 -43.559082 -46.582672z" fill-rule="evenodd"/><path stroke="#595959" stroke-width="2.0" stroke-linejoin="round" stroke-linecap="butt" d="m682.0099 70.83487l0 0c0 -25.726902 19.502075 -46.58268 43.559082 -46.58268l0 0c11.552551 0 22.632019 4.9078045 30.800903 13.643753c8.168884 8.735943 12.758118 20.58443 12.758118 32.938927l0 0c0 25.726898 -19.502014 46.582672 -43.55902 46.582672l0 0c-24.057007 0 -43.559082 -20.855774 -43.559082 -46.582672z" fill-rule="evenodd"/><path fill="#000000" fill-opacity="0.0" d="m693.1973 71.00735l66.33075 0" fill-rule="evenodd"/><path stroke="#4a86e8" stroke-width="12.0" stroke-linejoin="round" stroke-linecap="butt" d="m693.1973 71.00735l66.33075 0" fill-rule="evenodd"/><path fill="#4a86e8" d="m720.4237 24.979559l4.897644 -9.102364l4.897644 9.102364z" fill-rule="evenodd"/><path fill="#4a86e8" d="m752.19794 34.46144l9.496094 -2.724409l-2.5354614 10.125986z" fill-rule="evenodd"/><path fill="#4a86e8" d="m768.3694 63.325603l8.488159 5.244091l-8.456665 5.244095z" fill-rule="evenodd"/><path fill="#4a86e8" d="m682.91406 63.325603l-8.488159 5.244091l8.456665 5.244095z" fill-rule="evenodd"/><path fill="#4a86e8" d="m720.4237 116.98481l4.897644 9.102356l4.897644 -9.102356z" fill-rule="evenodd"/><path fill="#4a86e8" d="m698.4431 34.46144l-9.496033 -2.724409l2.5354004 10.125986z" fill-rule="evenodd"/><path fill="#4a86e8" d="m691.1896 99.03097l-2.5354004 10.141731l9.496033 -2.7086563z" fill-rule="evenodd"/><path fill="#4a86e8" d="m759.7778 99.03097l2.5354004 10.141731l-9.496033 -2.7086563z" fill-rule="evenodd"/><path fill="#666666" d="m703.99774 111.13308l1.1810913 10.425194l7.795288 -6.3307037z" fill-rule="evenodd"/><path stroke="#666666" stroke-width="1.0" stroke-linejoin="round" stroke-linecap="butt" d="m703.99774 111.13308l1.1810913 10.425194l7.795288 -6.3307037z" fill-rule="evenodd"/><path fill="#666666" d="m747.58453 110.78412l-1.1810913 10.425201l-7.795288 -6.3307114z" fill-rule="evenodd"/><path stroke="#666666" stroke-width="1.0" stroke-linejoin="round" stroke-linecap="butt" d="m747.58453 110.78412l-1.1810913 10.425201l-7.795288 -6.3307114z" fill-rule="evenodd"/><path fill="#666666" d="m703.99774 30.438576l1.1810913 -10.425198l7.795288 6.3307095z" fill-rule="evenodd"/><path stroke="#666666" stroke-width="1.0" stroke-linejoin="round" stroke-linecap="butt" d="m703.99774 30.438576l1.1810913 -10.425198l7.795288 6.3307095z" fill-rule="evenodd"/><path fill="#666666" d="m747.58453 30.787535l-1.1810913 -10.425198l-7.795288 6.3307095z" fill-rule="evenodd"/><path stroke="#666666" stroke-width="1.0" stroke-linejoin="round" stroke-linecap="butt" d="m747.58453 30.787535l-1.1810913 -10.425198l-7.795288 6.3307095z" fill-rule="evenodd"/><path fill="#000000" fill-opacity="0.0" d="m711.12134 64.85696l0 11.968506" fill-rule="evenodd"/><path stroke="#ff9900" stroke-width="4.0" stroke-linejoin="round" stroke-linecap="butt" d="m711.12134 64.85696l0 11.968506" fill-rule="evenodd"/><path fill="#000000" fill-opacity="0.0" d="m682.0099 190.83487l0 0c0 -25.726898 19.502075 -46.582672 43.559082 -46.582672l0 0c11.552551 0 22.632019 4.907791 30.800903 13.643738c8.168884 8.735947 12.758118 20.584442 12.758118 32.938934l0 0c0 25.726898 -19.502014 46.582672 -43.55902 46.582672l0 0c-24.057007 0 -43.559082 -20.855774 -43.559082 -46.582672z" fill-rule="evenodd"/><path stroke="#595959" stroke-width="2.0" stroke-linejoin="round" stroke-linecap="butt" d="m682.0099 190.83487l0 0c0 -25.726898 19.502075 -46.582672 43.559082 -46.582672l0 0c11.552551 0 22.632019 4.907791 30.800903 13.643738c8.168884 8.735947 12.758118 20.584442 12.758118 32.938934l0 0c0 25.726898 -19.502014 46.582672 -43.55902 46.582672l0 0c-24.057007 0 -43.559082 -20.855774 -43.559082 -46.582672z" fill-rule="evenodd"/><path fill="#000000" fill-opacity="0.0" d="m693.1973 191.00735l66.33075 0" fill-rule="evenodd"/><path stroke="#4a86e8" stroke-width="12.0" stroke-linejoin="round" stroke-linecap="butt" d="m693.1973 191.00735l66.33075 0" fill-rule="evenodd"/><path fill="#4a86e8" d="m720.4237 144.97955l4.897644 -9.102356l4.897644 9.102356z" fill-rule="evenodd"/><path fill="#4a86e8" d="m752.19794 154.46144l9.496094 -2.724411l-2.5354614 10.125992z" fill-rule="evenodd"/><path fill="#4a86e8" d="m768.3694 183.3256l8.488159 5.244095l-8.456665 5.244095z" fill-rule="evenodd"/><path fill="#4a86e8" d="m682.91406 183.3256l-8.488159 5.244095l8.456665 5.244095z" fill-rule="evenodd"/><path fill="#4a86e8" d="m720.4237 236.9848l4.897644 9.102371l4.897644 -9.102371z" fill-rule="evenodd"/><path fill="#4a86e8" d="m698.4431 154.46144l-9.496033 -2.724411l2.5354004 10.125992z" fill-rule="evenodd"/><path fill="#4a86e8" d="m691.1896 219.03098l-2.5354004 10.141724l9.496033 -2.708664z" fill-rule="evenodd"/><path fill="#4a86e8" d="m759.7778 219.03098l2.5354004 10.141724l-9.496033 -2.708664z" fill-rule="evenodd"/><path fill="#666666" d="m703.99774 231.13309l1.1810913 10.425186l7.795288 -6.3307037z" fill-rule="evenodd"/><path stroke="#666666" stroke-width="1.0" stroke-linejoin="round" stroke-linecap="butt" d="m703.99774 231.13309l1.1810913 10.425186l7.795288 -6.3307037z" fill-rule="evenodd"/><path fill="#666666" d="m747.58453 230.78412l-1.1810913 10.425201l-7.795288 -6.330719z" fill-rule="evenodd"/><path stroke="#666666" stroke-width="1.0" stroke-linejoin="round" stroke-linecap="butt" d="m747.58453 230.78412l-1.1810913 10.425201l-7.795288 -6.330719z" fill-rule="evenodd"/><path fill="#666666" d="m703.99774 150.43857l1.1810913 -10.425186l7.795288 6.3307037z" fill-rule="evenodd"/><path stroke="#666666" stroke-width="1.0" stroke-linejoin="round" stroke-linecap="butt" d="m703.99774 150.43857l1.1810913 -10.425186l7.795288 6.3307037z" fill-rule="evenodd"/><path fill="#666666" d="m747.58453 150.78754l-1.1810913 -10.425201l-7.795288 6.3307037z" fill-rule="evenodd"/><path stroke="#666666" stroke-width="1.0" stroke-linejoin="round" stroke-linecap="butt" d="m747.58453 150.78754l-1.1810913 -10.425201l-7.795288 6.3307037z" fill-rule="evenodd"/><path fill="#000000" fill-opacity="0.0" d="m711.12134 184.85695l0 11.968506" fill-rule="evenodd"/><path stroke="#ff9900" stroke-width="4.0" stroke-linejoin="round" stroke-linecap="butt" d="m711.12134 184.85695l0 11.968506" fill-rule="evenodd"/><path fill="#000000" fill-opacity="0.0" d="m682.0099 354.86472l0 0c0 -25.726898 19.502075 -46.582672 43.559082 -46.582672l0 0c11.552551 0 22.632019 4.9078064 30.800903 13.643738c8.168884 8.735962 12.758118 20.584442 12.758118 32.938934l0 0c0 25.726898 -19.502014 46.582672 -43.55902 46.582672l0 0c-24.057007 0 -43.559082 -20.855774 -43.559082 -46.582672z" fill-rule="evenodd"/><path stroke="#595959" stroke-width="2.0" stroke-linejoin="round" stroke-linecap="butt" d="m682.0099 354.86472l0 0c0 -25.726898 19.502075 -46.582672 43.559082 -46.582672l0 0c11.552551 0 22.632019 4.9078064 30.800903 13.643738c8.168884 8.735962 12.758118 20.584442 12.758118 32.938934l0 0c0 25.726898 -19.502014 46.582672 -43.55902 46.582672l0 0c-24.057007 0 -43.559082 -20.855774 -43.559082 -46.582672z" fill-rule="evenodd"/><path fill="#000000" fill-opacity="0.0" d="m693.1973 355.0372l66.33075 0" fill-rule="evenodd"/><path stroke="#4a86e8" stroke-width="12.0" stroke-linejoin="round" stroke-linecap="butt" d="m693.1973 355.0372l66.33075 0" fill-rule="evenodd"/><path fill="#4a86e8" d="m720.4237 309.0094l4.897644 -9.102356l4.897644 9.102356z" fill-rule="evenodd"/><path fill="#4a86e8" d="m752.19794 318.4913l9.496094 -2.7244263l-2.5354614 10.125977z" fill-rule="evenodd"/><path fill="#4a86e8" d="m768.3694 347.35544l8.488159 5.24411l-8.456665 5.2440796z" fill-rule="evenodd"/><path fill="#4a86e8" d="m682.91406 347.35544l-8.488159 5.24411l8.456665 5.2440796z" fill-rule="evenodd"/><path fill="#4a86e8" d="m720.4237 401.01465l4.897644 9.102386l4.897644 -9.102386z" fill-rule="evenodd"/><path fill="#4a86e8" d="m698.4431 318.4913l-9.496033 -2.7244263l2.5354004 10.125977z" fill-rule="evenodd"/><path fill="#4a86e8" d="m691.1896 383.06082l-2.5354004 10.141724l9.496033 -2.7086487z" fill-rule="evenodd"/><path fill="#4a86e8" d="m759.7778 383.06082l2.5354004 10.141724l-9.496033 -2.7086487z" fill-rule="evenodd"/><path fill="#666666" d="m703.99774 395.16293l1.1810913 10.425201l7.795288 -6.330719z" fill-rule="evenodd"/><path stroke="#666666" stroke-width="1.0" stroke-linejoin="round" stroke-linecap="butt" d="m703.99774 395.16293l1.1810913 10.425201l7.795288 -6.330719z" fill-rule="evenodd"/><path fill="#666666" d="m747.58453 394.81396l-1.1810913 10.425201l-7.795288 -6.330719z" fill-rule="evenodd"/><path stroke="#666666" stroke-width="1.0" stroke-linejoin="round" stroke-linecap="butt" d="m747.58453 394.81396l-1.1810913 10.425201l-7.795288 -6.330719z" fill-rule="evenodd"/><path fill="#666666" d="m703.99774 314.4684l1.1810913 -10.425171l7.795288 6.3306885z" fill-rule="evenodd"/><path stroke="#666666" stroke-width="1.0" stroke-linejoin="round" stroke-linecap="butt" d="m703.99774 314.4684l1.1810913 -10.425171l7.795288 6.3306885z" fill-rule="evenodd"/><path fill="#666666" d="m747.58453 314.81738l-1.1810913 -10.425201l-7.795288 6.330719z" fill-rule="evenodd"/><path stroke="#666666" stroke-width="1.0" stroke-linejoin="round" stroke-linecap="butt" d="m747.58453 314.81738l-1.1810913 -10.425201l-7.795288 6.330719z" fill-rule="evenodd"/><path fill="#000000" fill-opacity="0.0" d="m711.12134 348.8868l0 11.968506" fill-rule="evenodd"/><path stroke="#ff9900" stroke-width="4.0" stroke-linejoin="round" stroke-linecap="butt" d="m711.12134 348.8868l0 11.968506" fill-rule="evenodd"/><path fill="#000000" fill-opacity="0.0" d="m682.0099 602.805l0 0c0 -25.726868 19.502075 -46.58264 43.559082 -46.58264l0 0c11.552551 0 22.632019 4.907776 30.800903 13.643738c8.168884 8.735962 12.758118 20.584412 12.758118 32.938904l0 0c0 25.726929 -19.502014 46.582703 -43.55902 46.582703l0 0c-24.057007 0 -43.559082 -20.855774 -43.559082 -46.582703z" fill-rule="evenodd"/><path stroke="#595959" stroke-width="2.0" stroke-linejoin="round" stroke-linecap="butt" d="m682.0099 602.805l0 0c0 -25.726868 19.502075 -46.58264 43.559082 -46.58264l0 0c11.552551 0 22.632019 4.907776 30.800903 13.643738c8.168884 8.735962 12.758118 20.584412 12.758118 32.938904l0 0c0 25.726929 -19.502014 46.582703 -43.55902 46.582703l0 0c-24.057007 0 -43.559082 -20.855774 -43.559082 -46.582703z" fill-rule="evenodd"/><path fill="#000000" fill-opacity="0.0" d="m693.1973 602.9775l66.33075 0" fill-rule="evenodd"/><path stroke="#4a86e8" stroke-width="12.0" stroke-linejoin="round" stroke-linecap="butt" d="m693.1973 602.9775l66.33075 0" fill-rule="evenodd"/><path fill="#4a86e8" d="m720.4237 556.9497l4.897644 -9.102356l4.897644 9.102356z" fill-rule="evenodd"/><path fill="#4a86e8" d="m752.19794 566.4316l9.496094 -2.7244263l-2.5354614 10.126038z" fill-rule="evenodd"/><path fill="#4a86e8" d="m768.3694 595.2958l8.488159 5.2440796l-8.456665 5.2440796z" fill-rule="evenodd"/><path fill="#4a86e8" d="m682.91406 595.2958l-8.488159 5.2440796l8.456665 5.2440796z" fill-rule="evenodd"/><path fill="#4a86e8" d="m720.4237 648.95496l4.897644 9.102356l4.897644 -9.102356z" fill-rule="evenodd"/><path fill="#4a86e8" d="m698.4431 566.4316l-9.496033 -2.7244263l2.5354004 10.126038z" fill-rule="evenodd"/><path fill="#4a86e8" d="m691.1896 631.0011l-2.5354004 10.141724l9.496033 -2.7086182z" fill-rule="evenodd"/><path fill="#4a86e8" d="m759.7778 631.0011l2.5354004 10.141724l-9.496033 -2.7086182z" fill-rule="evenodd"/><path fill="#666666" d="m703.99774 643.1032l1.1810913 10.425232l7.795288 -6.3307495z" fill-rule="evenodd"/><path stroke="#666666" stroke-width="1.0" stroke-linejoin="round" stroke-linecap="butt" d="m703.99774 643.1032l1.1810913 10.425232l7.795288 -6.3307495z" fill-rule="evenodd"/><path fill="#666666" d="m747.58453 642.7543l-1.1810913 10.425171l-7.795288 -6.3306885z" fill-rule="evenodd"/><path stroke="#666666" stroke-width="1.0" stroke-linejoin="round" stroke-linecap="butt" d="m747.58453 642.7543l-1.1810913 10.425171l-7.795288 -6.3306885z" fill-rule="evenodd"/><path fill="#666666" d="m703.99774 562.40875l1.1810913 -10.425232l7.795288 6.3306885z" fill-rule="evenodd"/><path stroke="#666666" stroke-width="1.0" stroke-linejoin="round" stroke-linecap="butt" d="m703.99774 562.40875l1.1810913 -10.425232l7.795288 6.3306885z" fill-rule="evenodd"/><path fill="#666666" d="m747.58453 562.7577l-1.1810913 -10.425232l-7.795288 6.3307495z" fill-rule="evenodd"/><path stroke="#666666" stroke-width="1.0" stroke-linejoin="round" stroke-linecap="butt" d="m747.58453 562.7577l-1.1810913 -10.425232l-7.795288 6.3307495z" fill-rule="evenodd"/><path fill="#000000" fill-opacity="0.0" d="m711.12134 596.8271l0 11.968506" fill-rule="evenodd"/><path stroke="#ff9900" stroke-width="4.0" stroke-linejoin="round" stroke-linecap="butt" d="m711.12134 596.8271l0 11.968506" fill-rule="evenodd"/><path fill="#000000" fill-opacity="0.0" d="m436.36816 130.83487l0 0c0 -25.726906 19.502075 -46.58268 43.559082 -46.58268l0 0c11.552551 0 22.631989 4.9078064 30.800903 13.643753c8.168884 8.735947 12.758118 20.584435 12.758118 32.938927l0 0c0 25.726898 -19.502045 46.582672 -43.55902 46.582672l0 0c-24.057007 0 -43.559082 -20.855774 -43.559082 -46.582672z" fill-rule="evenodd"/><path stroke="#b7b7b7" stroke-width="2.0" stroke-linejoin="round" stroke-linecap="butt" d="m436.36816 130.83487l0 0c0 -25.726906 19.502075 -46.58268 43.559082 -46.58268l0 0c11.552551 0 22.631989 4.9078064 30.800903 13.643753c8.168884 8.735947 12.758118 20.584435 12.758118 32.938927l0 0c0 25.726898 -19.502045 46.582672 -43.55902 46.582672l0 0c-24.057007 0 -43.559082 -20.855774 -43.559082 -46.582672z" fill-rule="evenodd"/><path fill="#000000" fill-opacity="0.0" d="m447.5556 131.00735l66.33069 0" fill-rule="evenodd"/><path stroke="#4a86e8" stroke-width="12.0" stroke-linejoin="round" stroke-linecap="butt" d="m447.5556 131.00735l66.33069 0" fill-rule="evenodd"/><path fill="#b7b7b7" d="m474.78198 84.97956l4.8976135 -9.102364l4.897644 9.102364z" fill-rule="evenodd"/><path stroke="#b7b7b7" stroke-width="1.0" stroke-linejoin="round" stroke-linecap="butt" d="m474.78198 84.97956l4.8976135 -9.102364l4.897644 9.102364z" fill-rule="evenodd"/><path fill="#b7b7b7" d="m506.5562 94.46144l9.496094 -2.724411l-2.5354614 10.125984z" fill-rule="evenodd"/><path stroke="#b7b7b7" stroke-width="1.0" stroke-linejoin="round" stroke-linecap="butt" d="m506.5562 94.46144l9.496094 -2.724411l-2.5354614 10.125984z" fill-rule="evenodd"/><path fill="#b7b7b7" d="m522.72766 123.3256l8.488159 5.2441025l-8.456665 5.244095z" fill-rule="evenodd"/><path stroke="#b7b7b7" stroke-width="1.0" stroke-linejoin="round" stroke-linecap="butt" d="m522.72766 123.3256l8.488159 5.2441025l-8.456665 5.244095z" fill-rule="evenodd"/><path fill="#b7b7b7" d="m437.27234 123.3256l-8.48819 5.2441025l8.456696 5.244095z" fill-rule="evenodd"/><path stroke="#b7b7b7" stroke-width="1.0" stroke-linejoin="round" stroke-linecap="butt" d="m437.27234 123.3256l-8.48819 5.2441025l8.456696 5.244095z" fill-rule="evenodd"/><path fill="#b7b7b7" d="m474.78198 176.9848l4.8976135 9.102371l4.897644 -9.102371z" fill-rule="evenodd"/><path stroke="#b7b7b7" stroke-width="1.0" stroke-linejoin="round" stroke-linecap="butt" d="m474.78198 176.9848l4.8976135 9.102371l4.897644 -9.102371z" fill-rule="evenodd"/><path fill="#b7b7b7" d="m452.8014 94.46144l-9.496063 -2.724411l2.535431 10.125984z" fill-rule="evenodd"/><path stroke="#b7b7b7" stroke-width="1.0" stroke-linejoin="round" stroke-linecap="butt" d="m452.8014 94.46144l-9.496063 -2.724411l2.535431 10.125984z" fill-rule="evenodd"/><path fill="#b7b7b7" d="m445.54785 159.03098l-2.535431 10.141724l9.496063 -2.708664z" fill-rule="evenodd"/><path stroke="#b7b7b7" stroke-width="1.0" stroke-linejoin="round" stroke-linecap="butt" d="m445.54785 159.03098l-2.535431 10.141724l9.496063 -2.708664z" fill-rule="evenodd"/><path fill="#b7b7b7" d="m514.13605 159.03098l2.5354004 10.141724l-9.496063 -2.708664z" fill-rule="evenodd"/><path stroke="#b7b7b7" stroke-width="1.0" stroke-linejoin="round" stroke-linecap="butt" d="m514.13605 159.03098l2.5354004 10.141724l-9.496063 -2.708664z" fill-rule="evenodd"/><path fill="#b7b7b7" d="m458.356 171.13309l1.1811218 10.425186l7.7952576 -6.3307037z" fill-rule="evenodd"/><path stroke="#b7b7b7" stroke-width="1.0" stroke-linejoin="round" stroke-linecap="butt" d="m458.356 171.13309l1.1811218 10.425186l7.7952576 -6.3307037z" fill-rule="evenodd"/><path fill="#b7b7b7" d="m501.9428 170.78412l-1.1810913 10.425201l-7.795288 -6.330719z" fill-rule="evenodd"/><path stroke="#b7b7b7" stroke-width="1.0" stroke-linejoin="round" stroke-linecap="butt" d="m501.9428 170.78412l-1.1810913 10.425201l-7.795288 -6.330719z" fill-rule="evenodd"/><path fill="#b7b7b7" d="m458.356 90.438576l1.1811218 -10.425194l7.7952576 6.3307037z" fill-rule="evenodd"/><path stroke="#b7b7b7" stroke-width="1.0" stroke-linejoin="round" stroke-linecap="butt" d="m458.356 90.438576l1.1811218 -10.425194l7.7952576 6.3307037z" fill-rule="evenodd"/><path fill="#b7b7b7" d="m501.9428 90.78754l-1.1810913 -10.425201l-7.795288 6.3307114z" fill-rule="evenodd"/><path stroke="#b7b7b7" stroke-width="1.0" stroke-linejoin="round" stroke-linecap="butt" d="m501.9428 90.78754l-1.1810913 -10.425201l-7.795288 6.3307114z" fill-rule="evenodd"/><path fill="#000000" fill-opacity="0.0" d="m465.4796 124.85696l0 11.968498" fill-rule="evenodd"/><path stroke="#ff9900" stroke-width="4.0" stroke-linejoin="round" stroke-linecap="butt" d="m465.4796 124.85696l0 11.968498" fill-rule="evenodd"/><path fill="#000000" fill-opacity="0.0" d="m436.36816 478.83487l0 0c0 -25.726898 19.502075 -46.582672 43.559082 -46.582672l0 0c11.552551 0 22.631989 4.9078064 30.800903 13.643738c8.168884 8.735962 12.758118 20.584442 12.758118 32.938934l0 0c0 25.726898 -19.502045 46.582672 -43.55902 46.582672l0 0c-24.057007 0 -43.559082 -20.855774 -43.559082 -46.582672z" fill-rule="evenodd"/><path stroke="#b7b7b7" stroke-width="2.0" stroke-linejoin="round" stroke-linecap="butt" d="m436.36816 478.83487l0 0c0 -25.726898 19.502075 -46.582672 43.559082 -46.582672l0 0c11.552551 0 22.631989 4.9078064 30.800903 13.643738c8.168884 8.735962 12.758118 20.584442 12.758118 32.938934l0 0c0 25.726898 -19.502045 46.582672 -43.55902 46.582672l0 0c-24.057007 0 -43.559082 -20.855774 -43.559082 -46.582672z" fill-rule="evenodd"/><path fill="#000000" fill-opacity="0.0" d="m447.5556 479.00735l66.33069 0" fill-rule="evenodd"/><path stroke="#4a86e8" stroke-width="12.0" stroke-linejoin="round" stroke-linecap="butt" d="m447.5556 479.00735l66.33069 0" fill-rule="evenodd"/><path fill="#b7b7b7" d="m474.78198 432.97955l4.8976135 -9.102356l4.897644 9.102356z" fill-rule="evenodd"/><path fill="#b7b7b7" d="m506.5562 442.46146l9.496094 -2.7244263l-2.5354614 10.125977z" fill-rule="evenodd"/><path fill="#b7b7b7" d="m522.72766 471.3256l8.488159 5.24411l-8.456665 5.2440796z" fill-rule="evenodd"/><path fill="#b7b7b7" d="m437.27234 471.3256l-8.48819 5.24411l8.456696 5.2440796z" fill-rule="evenodd"/><path fill="#b7b7b7" d="m474.78198 524.9848l4.8976135 9.102356l4.897644 -9.102356z" fill-rule="evenodd"/><path fill="#b7b7b7" d="m452.8014 442.46146l-9.496063 -2.7244263l2.535431 10.125977z" fill-rule="evenodd"/><path fill="#b7b7b7" d="m445.54785 507.03098l-2.535431 10.141754l9.496063 -2.7086792z" fill-rule="evenodd"/><path fill="#b7b7b7" d="m514.13605 507.03098l2.5354004 10.141754l-9.496063 -2.7086792z" fill-rule="evenodd"/><path fill="#b7b7b7" d="m458.356 519.13306l1.1811218 10.425232l7.7952576 -6.3307495z" fill-rule="evenodd"/><path stroke="#b7b7b7" stroke-width="1.0" stroke-linejoin="round" stroke-linecap="butt" d="m458.356 519.13306l1.1811218 10.425232l7.7952576 -6.3307495z" fill-rule="evenodd"/><path fill="#b7b7b7" d="m501.9428 518.7841l-1.1810913 10.425171l-7.795288 -6.3306885z" fill-rule="evenodd"/><path stroke="#b7b7b7" stroke-width="1.0" stroke-linejoin="round" stroke-linecap="butt" d="m501.9428 518.7841l-1.1810913 10.425171l-7.795288 -6.3306885z" fill-rule="evenodd"/><path fill="#b7b7b7" d="m458.356 438.43857l1.1811218 -10.425201l7.7952576 6.330719z" fill-rule="evenodd"/><path stroke="#b7b7b7" stroke-width="1.0" stroke-linejoin="round" stroke-linecap="butt" d="m458.356 438.43857l1.1811218 -10.425201l7.7952576 6.330719z" fill-rule="evenodd"/><path fill="#b7b7b7" d="m501.9428 438.78754l-1.1810913 -10.425201l-7.795288 6.330719z" fill-rule="evenodd"/><path stroke="#b7b7b7" stroke-width="1.0" stroke-linejoin="round" stroke-linecap="butt" d="m501.9428 438.78754l-1.1810913 -10.425201l-7.795288 6.330719z" fill-rule="evenodd"/><path fill="#000000" fill-opacity="0.0" d="m465.4796 472.85696l0 11.968506" fill-rule="evenodd"/><path stroke="#ff9900" stroke-width="4.0" stroke-linejoin="round" stroke-linecap="butt" d="m465.4796 472.85696l0 11.968506" fill-rule="evenodd"/><path fill="#000000" fill-opacity="0.0" d="m302.17776 268.7743l112.8819 -84.62991" fill-rule="evenodd"/><path stroke="#b7b7b7" stroke-width="4.0" stroke-linejoin="round" stroke-linecap="butt" d="m302.1778 268.7743l93.67932 -70.23334" fill-rule="evenodd"/><path fill="#b7b7b7" stroke="#b7b7b7" stroke-width="4.0" stroke-linecap="butt" d="m399.8203 203.8272l10.560638 -16.17508l-18.48706 5.602585z" fill-rule="evenodd"/><path fill="#000000" fill-opacity="0.0" d="m302.17776 352.14438l112.8819 84.62991" fill-rule="evenodd"/><path stroke="#b7b7b7" stroke-width="4.0" stroke-linejoin="round" stroke-linecap="butt" d="m302.1778 352.1444l93.67932 70.23334" fill-rule="evenodd"/><path fill="#b7b7b7" stroke="#b7b7b7" stroke-width="4.0" stroke-linecap="butt" d="m391.8939 427.664l18.48706 5.6026l-10.560638 -16.17511z" fill-rule="evenodd"/><path fill="#000000" fill-opacity="0.0" d="m546.20764 118.117584l114.677124 -45.41732" fill-rule="evenodd"/><path stroke="#b7b7b7" stroke-width="4.0" stroke-linejoin="round" stroke-linecap="butt" d="m546.20764 118.117584l92.3634 -36.58008" fill-rule="evenodd"/><path fill="#b7b7b7" stroke="#b7b7b7" stroke-width="4.0" stroke-linecap="butt" d="m641.00385 87.68023l14.444214 -12.826775l-19.309814 0.54132843z" fill-rule="evenodd"/><path fill="#000000" fill-opacity="0.0" d="m546.20764 139.38683l114.677124 45.417328" fill-rule="evenodd"/><path stroke="#b7b7b7" stroke-width="4.0" stroke-linejoin="round" stroke-linecap="butt" d="m546.20764 139.38683l92.3634 36.58008" fill-rule="evenodd"/><path fill="#b7b7b7" stroke="#b7b7b7" stroke-width="4.0" stroke-linecap="butt" d="m636.13824 182.10963l19.309814 0.5413208l-14.444214 -12.826767z" fill-rule="evenodd"/><path fill="#000000" fill-opacity="0.0" d="m546.20764 454.11758l114.677124 -79.08661" fill-rule="evenodd"/><path stroke="#b7b7b7" stroke-width="4.0" stroke-linejoin="round" stroke-linecap="butt" d="m546.20764 454.11758l94.91998 -65.46118" fill-rule="evenodd"/><path fill="#b7b7b7" stroke="#b7b7b7" stroke-width="4.0" stroke-linecap="butt" d="m644.87854 394.09537l11.192444 -15.744568l-18.694336 4.866699z" fill-rule="evenodd"/><path fill="#000000" fill-opacity="0.0" d="m546.20764 503.03098l114.677124 79.08658" fill-rule="evenodd"/><path stroke="#b7b7b7" stroke-width="4.0" stroke-linejoin="round" stroke-linecap="butt" d="m546.20764 503.03098l94.91998 65.46115" fill-rule="evenodd"/><path fill="#b7b7b7" stroke="#b7b7b7" stroke-width="4.0" stroke-linecap="butt" d="m637.37665 573.931l18.694336 4.866699l-11.192444 -15.744568z" fill-rule="evenodd"/><path fill="#000000" fill-opacity="0.0" d="m546.8353 476.5697l111.590576 0" fill-rule="evenodd"/><path stroke="#b7b7b7" stroke-width="4.0" stroke-linejoin="round" stroke-linecap="butt" stroke-dasharray="16.0,12.0" d="m546.8353 476.56967l87.590576 0" fill-rule="evenodd"/><path fill="#b7b7b7" stroke="#b7b7b7" stroke-width="4.0" stroke-linecap="butt" d="m634.4259 483.1766l18.152405 -6.6069336l-18.152405 -6.6069336z" fill-rule="evenodd"/><path fill="#000000" fill-opacity="0.0" d="m457.4796 124.85696l0 11.968498" fill-rule="evenodd"/><path stroke="#ff9900" stroke-width="4.0" stroke-linejoin="round" stroke-linecap="butt" d="m457.4796 124.85696l0 11.968498" fill-rule="evenodd"/><path fill="#000000" fill-opacity="0.0" d="m703.12134 64.85696l0 11.968506" fill-rule="evenodd"/><path stroke="#ff9900" stroke-width="4.0" stroke-linejoin="round" stroke-linecap="butt" d="m703.12134 64.85696l0 11.968506" fill-rule="evenodd"/><path fill="#000000" fill-opacity="0.0" d="m703.12134 184.85695l0 11.968506" fill-rule="evenodd"/><path stroke="#ff9900" stroke-width="4.0" stroke-linejoin="round" stroke-linecap="butt" d="m703.12134 184.85695l0 11.968506" fill-rule="evenodd"/><path fill="#000000" fill-opacity="0.0" d="m727.12134 64.85696l0 11.968506" fill-rule="evenodd"/><path stroke="#ff9900" stroke-width="4.0" stroke-linejoin="round" stroke-linecap="butt" d="m727.12134 64.85696l0 11.968506" fill-rule="evenodd"/><path fill="#000000" fill-opacity="0.0" d="m505.4796 472.85696l0 11.968506" fill-rule="evenodd"/><path stroke="#ff9900" stroke-width="4.0" stroke-linejoin="round" stroke-linecap="butt" d="m505.4796 472.85696l0 11.968506" fill-rule="evenodd"/><path fill="#000000" fill-opacity="0.0" d="m682.0099 478.83487l0 0c0 -25.726898 19.502075 -46.582672 43.559082 -46.582672l0 0c11.552551 0 22.632019 4.9078064 30.800903 13.643738c8.168884 8.735962 12.758118 20.584442 12.758118 32.938934l0 0c0 25.726898 -19.502014 46.582672 -43.55902 46.582672l0 0c-24.057007 0 -43.559082 -20.855774 -43.559082 -46.582672z" fill-rule="evenodd"/><path stroke="#b7b7b7" stroke-width="2.0" stroke-linejoin="round" stroke-linecap="butt" d="m682.0099 478.83487l0 0c0 -25.726898 19.502075 -46.582672 43.559082 -46.582672l0 0c11.552551 0 22.632019 4.9078064 30.800903 13.643738c8.168884 8.735962 12.758118 20.584442 12.758118 32.938934l0 0c0 25.726898 -19.502014 46.582672 -43.55902 46.582672l0 0c-24.057007 0 -43.559082 -20.855774 -43.559082 -46.582672z" fill-rule="evenodd"/><path fill="#b7b7b7" d="m720.4237 432.97955l4.897644 -9.102356l4.897644 9.102356z" fill-rule="evenodd"/><path stroke="#b7b7b7" stroke-width="1.0" stroke-linejoin="round" stroke-linecap="butt" d="m720.4237 432.97955l4.897644 -9.102356l4.897644 9.102356z" fill-rule="evenodd"/><path fill="#b7b7b7" d="m752.19794 442.46146l9.496094 -2.7244263l-2.5354614 10.125977z" fill-rule="evenodd"/><path stroke="#b7b7b7" stroke-width="1.0" stroke-linejoin="round" stroke-linecap="butt" d="m752.19794 442.46146l9.496094 -2.7244263l-2.5354614 10.125977z" fill-rule="evenodd"/><path fill="#b7b7b7" d="m768.3694 471.3256l8.488159 5.24411l-8.456665 5.2440796z" fill-rule="evenodd"/><path stroke="#b7b7b7" stroke-width="1.0" stroke-linejoin="round" stroke-linecap="butt" d="m768.3694 471.3256l8.488159 5.24411l-8.456665 5.2440796z" fill-rule="evenodd"/><path fill="#b7b7b7" d="m682.91406 471.3256l-8.488159 5.24411l8.456665 5.2440796z" fill-rule="evenodd"/><path stroke="#b7b7b7" stroke-width="1.0" stroke-linejoin="round" stroke-linecap="butt" d="m682.91406 471.3256l-8.488159 5.24411l8.456665 5.2440796z" fill-rule="evenodd"/><path fill="#b7b7b7" d="m720.4237 524.9848l4.897644 9.102356l4.897644 -9.102356z" fill-rule="evenodd"/><path stroke="#b7b7b7" stroke-width="1.0" stroke-linejoin="round" stroke-linecap="butt" d="m720.4237 524.9848l4.897644 9.102356l4.897644 -9.102356z" fill-rule="evenodd"/><path fill="#b7b7b7" d="m698.4431 442.46146l-9.496033 -2.7244263l2.5354004 10.125977z" fill-rule="evenodd"/><path stroke="#b7b7b7" stroke-width="1.0" stroke-linejoin="round" stroke-linecap="butt" d="m698.4431 442.46146l-9.496033 -2.7244263l2.5354004 10.125977z" fill-rule="evenodd"/><path fill="#b7b7b7" d="m691.1896 507.03098l-2.5354004 10.141754l9.496033 -2.7086792z" fill-rule="evenodd"/><path stroke="#b7b7b7" stroke-width="1.0" stroke-linejoin="round" stroke-linecap="butt" d="m691.1896 507.03098l-2.5354004 10.141754l9.496033 -2.7086792z" fill-rule="evenodd"/><path fill="#b7b7b7" d="m759.7778 507.03098l2.5354004 10.141754l-9.496033 -2.7086792z" fill-rule="evenodd"/><path stroke="#b7b7b7" stroke-width="1.0" stroke-linejoin="round" stroke-linecap="butt" d="m759.7778 507.03098l2.5354004 10.141754l-9.496033 -2.7086792z" fill-rule="evenodd"/><path fill="#b7b7b7" d="m703.99774 519.13306l1.1810913 10.425232l7.795288 -6.3307495z" fill-rule="evenodd"/><path stroke="#b7b7b7" stroke-width="1.0" stroke-linejoin="round" stroke-linecap="butt" d="m703.99774 519.13306l1.1810913 10.425232l7.795288 -6.3307495z" fill-rule="evenodd"/><path fill="#b7b7b7" d="m747.58453 518.7841l-1.1810913 10.425171l-7.795288 -6.3306885z" fill-rule="evenodd"/><path stroke="#b7b7b7" stroke-width="1.0" stroke-linejoin="round" stroke-linecap="butt" d="m747.58453 518.7841l-1.1810913 10.425171l-7.795288 -6.3306885z" fill-rule="evenodd"/><path fill="#b7b7b7" d="m703.99774 438.43857l1.1810913 -10.425201l7.795288 6.330719z" fill-rule="evenodd"/><path stroke="#b7b7b7" stroke-width="1.0" stroke-linejoin="round" stroke-linecap="butt" d="m703.99774 438.43857l1.1810913 -10.425201l7.795288 6.330719z" fill-rule="evenodd"/><path fill="#b7b7b7" d="m747.58453 438.78754l-1.1810913 -10.425201l-7.795288 6.330719z" fill-rule="evenodd"/><path stroke="#b7b7b7" stroke-width="1.0" stroke-linejoin="round" stroke-linecap="butt" d="m747.58453 438.78754l-1.1810913 -10.425201l-7.795288 6.330719z" fill-rule="evenodd"/><path fill="#000000" fill-opacity="0.0" d="m751.12134 348.8868l0 11.968506" fill-rule="evenodd"/><path stroke="#ff9900" stroke-width="4.0" stroke-linejoin="round" stroke-linecap="butt" d="m751.12134 348.8868l0 11.968506" fill-rule="evenodd"/><path fill="#000000" fill-opacity="0.0" d="m751.12134 596.8271l0 11.968506" fill-rule="evenodd"/><path stroke="#ff9900" stroke-width="4.0" stroke-linejoin="round" stroke-linecap="butt" d="m751.12134 596.8271l0 11.968506" fill-rule="evenodd"/><path fill="#000000" fill-opacity="0.0" d="m743.12134 596.8271l0 11.968506" fill-rule="evenodd"/><path stroke="#ff9900" stroke-width="4.0" stroke-linejoin="round" stroke-linecap="butt" d="m743.12134 596.8271l0 11.968506" fill-rule="evenodd"/><path fill="#000000" fill-opacity="0.0" d="m177.91663 673.4567l637.4488 0" fill-rule="evenodd"/><path stroke="#000000" stroke-width="3.0" stroke-linejoin="round" stroke-linecap="butt" d="m177.91663 673.4567l619.4488 0" fill-rule="evenodd"/><path fill="#000000" stroke="#000000" stroke-width="3.0" stroke-linecap="butt" d="m797.3654 678.4119l13.614258 -4.9552l-13.614258 -4.9552z" fill-rule="evenodd"/><path fill="#000000" fill-opacity="0.0" d="m420.50656 670.2445l118.33072 0l0 45.41736l-118.33072 0z" fill-rule="evenodd"/><path fill="#000000" d="m461.36795 702.7508l0.328125 2.0625q-0.984375 0.21875 -1.765625 0.21875q-1.265625 0 -1.96875 -0.40625q-0.703125 -0.40625 -1.0 -1.0625q-0.28125 -0.65625 -0.28125 -2.765625l0 -7.953125l-1.71875 0l0 -1.828125l1.71875 0l0 -3.421875l2.328125 -1.40625l0 4.828125l2.359375 0l0 1.828125l-2.359375 0l0 8.078125q0 1.0 0.125 1.296875q0.125 0.28125 0.40625 0.453125q0.28125 0.171875 0.796875 0.171875q0.390625 0 1.03125 -0.09375zm2.2966003 -14.296875l0 -2.6875l2.34375 0l0 2.6875l-2.34375 0zm0 16.390625l0 -13.828125l2.34375 0l0 13.828125l-2.34375 0zm5.9065247 0l0 -13.828125l2.109375 0l0 1.9375q0.640625 -1.015625 1.71875 -1.625q1.09375 -0.625 2.46875 -0.625q1.53125 0 2.515625 0.640625q0.984375 0.640625 1.390625 1.78125q1.640625 -2.421875 4.265625 -2.421875q2.0625 0 3.15625 1.140625q1.109375 1.140625 1.109375 3.515625l0 9.484375l-2.328125 0l0 -8.703125q0 -1.40625 -0.234375 -2.015625q-0.21875 -0.625 -0.828125 -1.0q-0.59375 -0.390625 -1.390625 -0.390625q-1.46875 0 -2.4375 0.96875q-0.953125 0.96875 -0.953125 3.109375l0 8.03125l-2.34375 0l0 -8.984375q0 -1.5625 -0.578125 -2.34375q-0.5625 -0.78125 -1.875 -0.78125q-0.984375 0 -1.828125 0.53125q-0.828125 0.515625 -1.21875 1.515625q-0.375 1.0 -0.375 2.890625l0 7.171875l-2.34375 0zm31.673615 -4.453125l2.421875 0.296875q-0.578125 2.125 -2.125 3.296875q-1.546875 1.171875 -3.953125 1.171875q-3.03125 0 -4.8125 -1.859375q-1.78125 -1.875 -1.78125 -5.25q0 -3.484375 1.796875 -5.40625q1.796875 -1.9375 4.671875 -1.9375q2.765625 0 4.515625 1.890625q1.765625 1.890625 1.765625 5.3125q0 0.203125 -0.015625 0.625l-10.3125 0q0.140625 2.28125 1.296875 3.5q1.15625 1.203125 2.890625 1.203125q1.28125 0 2.1875 -0.671875q0.921875 -0.6875 1.453125 -2.171875zm-7.6875 -3.78125l7.71875 0q-0.15625 -1.75 -0.890625 -2.625q-1.125 -1.34375 -2.90625 -1.34375q-1.609375 0 -2.71875 1.078125q-1.09375 1.078125 -1.203125 2.890625z" fill-rule="nonzero"/></g></svg>