<svg xmlns="http://www.w3.org/2000/svg" xmlns:xlink="http://www.w3.org/1999/xlink" version="1.1" class="marks" width="410" height="330" viewBox="0 0 410 330"><rect width="410" height="330" fill="white"/><g fill="none" stroke-miterlimit="10" transform="translate(5,23)"><g class="mark-group role-frame root" role="graphics-object" aria-roledescription="group mark container"><g transform="translate(0,0)"><path class="background" aria-hidden="true" d="M0.5,0.5h400v300h-400Z"/><g><g class="mark-group role-axis"><g transform="translate(0.5,300.5)"><path class="background" aria-hidden="true" d="M0,0h0v0h0Z" pointer-events="none"/><g/><path class="foreground" aria-hidden="true" d="" pointer-events="none" display="none"/></g></g><g class="mark-group role-axis"><g transform="translate(0.5,0.5)"><path class="background" aria-hidden="true" d="M0,0h0v0h0Z" pointer-events="none"/><g/><path class="foreground" aria-hidden="true" d="" pointer-events="none" display="none"/></g></g><g class="mark-rule role-mark layer_0_marks" role="graphics-object" aria-roledescription="rule mark container"><line aria-label="timepoint (year-month): Sep 1996; timepoint_other (year-month): Sep 1997; y_position: 0.2581; y_position_other: 0.8462; flow: 0.013" role="graphics-symbol" aria-roledescription="rule mark" transform="translate(100,222.57)" x2="200" y2="-176.42999999999998" stroke="#999999" stroke-width="1.1428571428571428" opacity="0.32380952380952377"/><line aria-label="timepoint (year-month): Sep 1996; timepoint_other (year-month): Sep 1997; y_position: 0.3226; y_position_other: 0.5641; flow: 0.015" role="graphics-symbol" aria-roledescription="rule mark" transform="translate(100,203.22)" x2="200" y2="-72.45000000000002" stroke="#999999" stroke-width="1.2857142857142858" opacity="0.3476190476190476"/><line aria-label="timepoint (year-month): Sep 1996; timepoint_other (year-month): Sep 1997; y_position: 0.3226; y_position_other: 0.8718; flow: 0.013" role="graphics-symbol" aria-roledescription="rule mark" transform="translate(100,203.22)" x2="200" y2="-164.76" stroke="#999999" stroke-width="1.1428571428571428" opacity="0.32380952380952377"/><line aria-label="timepoint (year-month): Sep 1996; timepoint_other (year-month): Sep 1997; y_position: 0.3548; y_position_other: 0.5385; flow: 0.011" role="graphics-symbol" aria-roledescription="rule mark" transform="translate(100,193.56)" x2="200" y2="-55.109999999999985" stroke="#999999" stroke-width="1" opacity="0.3"/><line aria-label="timepoint (year-month): Sep 1996; timepoint_other (year-month): Sep 1997; y_position: 0.3548; y_position_other: 0.9231; flow: 0.015" role="graphics-symbol" aria-roledescription="rule mark" transform="translate(100,193.56)" x2="200" y2="-170.49" stroke="#999999" stroke-width="1.2857142857142858" opacity="0.3476190476190476"/><line aria-label="timepoint (year-month): Sep 1996; timepoint_other (year-month): Sep 1997; y_position: 0.4194; y_position_other: 0.2564; flow: 0.014" role="graphics-symbol" aria-roledescription="rule mark" transform="translate(100,174.18)" x2="200" y2="48.900000000000006" stroke="#999999" stroke-width="1.2142857142857144" opacity="0.33571428571428574"/><line aria-label="timepoint (year-month): Sep 1996; timepoint_other (year-month): Sep 1997; y_position: 0.4194; y_position_other: 0.9231; flow: 0.018" role="graphics-symbol" aria-roledescription="rule mark" transform="translate(100,174.18)" x2="200" y2="-151.11" stroke="#999999" stroke-width="1.5" opacity="0.3833333333333333"/><line aria-label="timepoint (year-month): Sep 1996; timepoint_other (year-month): Sep 1997; y_position: 0.4516; y_position_other: 0.9231; flow: 0.018" role="graphics-symbol" aria-roledescription="rule mark" transform="translate(100,164.52)" x2="200" y2="-141.45000000000002" stroke="#999999" stroke-width="1.5" opacity="0.3833333333333333"/><line aria-label="timepoint (year-month): Sep 1996; timepoint_other (year-month): Sep 1997; y_position: 0.4839; y_position_other: 0.9744; flow: 0.034" role="graphics-symbol" aria-roledescription="rule mark" transform="translate(100,154.83)" x2="200" y2="-147.15000000000003" stroke="#999999" stroke-width="2.6428571428571432" opacity="0.5738095238095239"/><line aria-label="timepoint (year-month): Sep 1996; timepoint_other (year-month): Sep 1997; y_position: 0.5161; y_position_other: 0.4103; flow: 0.019" role="graphics-symbol" aria-roledescription="rule mark" transform="translate(100,145.17)" x2="200" y2="31.74000000000001" stroke="#999999" stroke-width="1.5714285714285716" opacity="0.3952380952380953"/><line aria-label="timepoint (year-month): Sep 1996; timepoint_other (year-month): Sep 1997; y_position: 0.5161; y_position_other: 0.7436; flow: 0.021" role="graphics-symbol" aria-roledescription="rule mark" transform="translate(100,145.17)" x2="200" y2="-68.25" stroke="#999999" stroke-width="1.7142857142857144" opacity="0.4190476190476191"/><line aria-label="timepoint (year-month): Sep 1996; timepoint_other (year-month): Sep 1997; y_position: 0.5484; y_position_other: 0.2308; flow: 0.012" role="graphics-symbol" aria-roledescription="rule mark" transform="translate(100,135.48)" x2="200" y2="95.28" stroke="#999999" stroke-width="1.0714285714285714" opacity="0.3119047619047619"/><line aria-label="timepoint (year-month): Sep 1996; timepoint_other (year-month): Sep 1997; y_position: 0.5484; y_position_other: 0.3077; flow: 0.015" role="graphics-symbol" aria-roledescription="rule mark" transform="translate(100,135.48)" x2="200" y2="72.21000000000001" stroke="#999999" stroke-width="1.2857142857142858" opacity="0.3476190476190476"/><line aria-label="timepoint (year-month): Sep 1996; timepoint_other (year-month): Sep 1997; y_position: 0.5806; y_position_other: 0.8718; flow: 0.018" role="graphics-symbol" aria-roledescription="rule mark" transform="translate(100,125.82)" x2="200" y2="-87.36" stroke="#999999" stroke-width="1.5" opacity="0.3833333333333333"/><line aria-label="timepoint (year-month): Sep 1996; timepoint_other (year-month): Sep 1997; y_position: 0.6129; y_position_other: 0.641; flow: 0.021" role="graphics-symbol" aria-roledescription="rule mark" transform="translate(100,116.13)" x2="200" y2="-8.430000000000007" stroke="#999999" stroke-width="1.7142857142857144" opacity="0.4190476190476191"/><line aria-label="timepoint (year-month): Sep 1996; timepoint_other (year-month): Sep 1997; y_position: 0.6129; y_position_other: 0.8462; flow: 0.032" role="graphics-symbol" aria-roledescription="rule mark" transform="translate(100,116.13)" x2="200" y2="-69.98999999999998" stroke="#999999" stroke-width="2.5000000000000004" opacity="0.55"/><line aria-label="timepoint (year-month): Sep 1996; timepoint_other (year-month): Sep 1997; y_position: 0.6452; y_position_other: 0.4359; flow: 0.016" role="graphics-symbol" aria-roledescription="rule mark" transform="translate(100,106.44)" x2="200" y2="62.79000000000002" stroke="#999999" stroke-width="1.3571428571428572" opacity="0.3595238095238096"/><line aria-label="timepoint (year-month): Sep 1996; timepoint_other (year-month): Sep 1997; y_position: 0.6452; y_position_other: 0.4872; flow: 0.022" role="graphics-symbol" aria-roledescription="rule mark" transform="translate(100,106.44)" x2="200" y2="47.39999999999998" stroke="#999999" stroke-width="1.7857142857142858" opacity="0.430952380952381"/><line aria-label="timepoint (year-month): Sep 1996; timepoint_other (year-month): Sep 1997; y_position: 0.6452; y_position_other: 0.5128; flow: 0.015" role="graphics-symbol" aria-roledescription="rule mark" transform="translate(100,106.44)" x2="200" y2="39.72" stroke="#999999" stroke-width="1.2857142857142858" opacity="0.3476190476190476"/><line aria-label="timepoint (year-month): Sep 1996; timepoint_other (year-month): Sep 1997; y_position: 0.6452; y_position_other: 0.6923; flow: 0.038" role="graphics-symbol" aria-roledescription="rule mark" transform="translate(100,106.44)" x2="200" y2="-14.13000000000001" stroke="#999999" stroke-width="2.928571428571429" opacity="0.6214285714285714"/><line aria-label="timepoint (year-month): Sep 1996; timepoint_other (year-month): Sep 1997; y_position: 0.6774; y_position_other: 0.7179; flow: 0.04" role="graphics-symbol" aria-roledescription="rule mark" transform="translate(100,96.78)" x2="200" y2="-12.149999999999991" stroke="#999999" stroke-width="3.0714285714285716" opacity="0.6452380952380954"/><line aria-label="timepoint (year-month): Sep 1996; timepoint_other (year-month): Sep 1997; y_position: 0.6774; y_position_other: 0.8205; flow: 0.034" role="graphics-symbol" aria-roledescription="rule mark" transform="translate(100,96.78)" x2="200" y2="-42.93000000000001" stroke="#999999" stroke-width="2.6428571428571432" opacity="0.5738095238095239"/><line aria-label="timepoint (year-month): Sep 1996; timepoint_other (year-month): Sep 1997; y_position: 0.7097; y_position_other: 0.9487; flow: 0.053" role="graphics-symbol" aria-roledescription="rule mark" transform="translate(100,87.09)" x2="200" y2="-71.7" stroke="#999999" stroke-width="4" opacity="0.8"/><line aria-label="timepoint (year-month): Sep 1996; timepoint_other (year-month): Sep 1997; y_position: 0.7097; y_position_other: 0.641; flow: 0.014" role="graphics-symbol" aria-roledescription="rule mark" transform="translate(100,87.09)" x2="200" y2="20.609999999999985" stroke="#999999" stroke-width="1.2142857142857144" opacity="0.33571428571428574"/><line aria-label="timepoint (year-month): Sep 1996; timepoint_other (year-month): Sep 1997; y_position: 0.7419; y_position_other: 0.4615; flow: 0.022" role="graphics-symbol" aria-roledescription="rule mark" transform="translate(100,77.42999999999999)" x2="200" y2="84.11999999999999" stroke="#999999" stroke-width="1.7857142857142858" opacity="0.430952380952381"/><line aria-label="timepoint (year-month): Sep 1996; timepoint_other (year-month): Sep 1997; y_position: 0.7419; y_position_other: 0.6154; flow: 0.033" role="graphics-symbol" aria-roledescription="rule mark" transform="translate(100,77.42999999999999)" x2="200" y2="37.95000000000002" stroke="#999999" stroke-width="2.571428571428572" opacity="0.561904761904762"/><line aria-label="timepoint (year-month): Sep 1996; timepoint_other (year-month): Sep 1997; y_position: 0.7419; y_position_other: 0.3846; flow: 0.018" role="graphics-symbol" aria-roledescription="rule mark" transform="translate(100,77.42999999999999)" x2="200" y2="107.18999999999998" stroke="#999999" stroke-width="1.5" opacity="0.3833333333333333"/><line aria-label="timepoint (year-month): Sep 1996; timepoint_other (year-month): Sep 1997; y_position: 0.7742; y_position_other: 0.8974; flow: 0.04" role="graphics-symbol" aria-roledescription="rule mark" transform="translate(100,67.74)" x2="200" y2="-36.95999999999999" stroke="#999999" stroke-width="3.0714285714285716" opacity="0.6452380952380954"/><line aria-label="timepoint (year-month): Sep 1996; timepoint_other (year-month): Sep 1997; y_position: 0.7742; y_position_other: 0.9744; flow: 0.025" role="graphics-symbol" aria-roledescription="rule mark" transform="translate(100,67.74)" x2="200" y2="-60.06000000000001" stroke="#999999" stroke-width="2" opacity="0.46666666666666673"/><line aria-label="timepoint (year-month): Sep 1996; timepoint_other (year-month): Sep 1997; y_position: 0.7742; y_position_other: 0.7436; flow: 0.019" role="graphics-symbol" aria-roledescription="rule mark" transform="translate(100,67.74)" x2="200" y2="9.179999999999993" stroke="#999999" stroke-width="1.5714285714285716" opacity="0.3952380952380953"/><line aria-label="timepoint (year-month): Sep 1996; timepoint_other (year-month): Sep 1997; y_position: 0.8065; y_position_other: 0.7692; flow: 0.038" role="graphics-symbol" aria-roledescription="rule mark" transform="translate(100,58.050000000000004)" x2="200" y2="11.18999999999999" stroke="#999999" stroke-width="2.928571428571429" opacity="0.6214285714285714"/><line aria-label="timepoint (year-month): Sep 1996; timepoint_other (year-month): Sep 1997; y_position: 0.8387; y_position_other: 0.5897; flow: 0.024" role="graphics-symbol" aria-roledescription="rule mark" transform="translate(100,48.39)" x2="200" y2="74.7" stroke="#999999" stroke-width="1.9285714285714288" opacity="0.4547619047619048"/><line aria-label="timepoint (year-month): Sep 1996; timepoint_other (year-month): Sep 1997; y_position: 0.8387; y_position_other: 0.6667; flow: 0.025" role="graphics-symbol" aria-roledescription="rule mark" transform="translate(100,48.39)" x2="200" y2="51.60000000000001" stroke="#999999" stroke-width="2" opacity="0.46666666666666673"/><line aria-label="timepoint (year-month): Sep 1996; timepoint_other (year-month): Sep 1997; y_position: 0.871; y_position_other: 0.3333; flow: 0.013" role="graphics-symbol" aria-roledescription="rule mark" transform="translate(100,38.7)" x2="200" y2="161.31" stroke="#999999" stroke-width="1.1428571428571428" opacity="0.32380952380952377"/><line aria-label="timepoint (year-month): Sep 1996; timepoint_other (year-month): Sep 1997; y_position: 0.9032; y_position_other: 0.359; flow: 0.018" role="graphics-symbol" aria-roledescription="rule mark" transform="translate(100,29.04)" x2="200" y2="163.26000000000002" stroke="#999999" stroke-width="1.5" opacity="0.3833333333333333"/><line aria-label="timepoint (year-month): Sep 1996; timepoint_other (year-month): Sep 1997; y_position: 0.9355; y_position_other: 0.2821; flow: 0.011" role="graphics-symbol" aria-roledescription="rule mark" transform="translate(100,19.35)" x2="200" y2="196.02" stroke="#999999" stroke-width="1" opacity="0.3"/><line aria-label="timepoint (year-month): Sep 1996; timepoint_other (year-month): Sep 1997; y_position: 0.9677; y_position_other: 0.7949; flow: 0.032" role="graphics-symbol" aria-roledescription="rule mark" transform="translate(100,9.689999999999998)" x2="200" y2="51.83999999999999" stroke="#999999" stroke-width="2.5000000000000004" opacity="0.55"/></g><g class="mark-symbol role-mark layer_1_marks" role="graphics-object" aria-roledescription="symbol mark container"><path aria-label="timepoint (year-month): Sep 1996; y_position: 0; frequency: 0.0011" role="graphics-symbol" aria-roledescription="circle" transform="translate(100,300)" d="M1.0439044751500013,0A1.0439044751500013,1.0439044751500013,0,1,1,-1.0439044751500013,0A1.0439044751500013,1.0439044751500013,0,1,1,1.0439044751500013,0" fill="#4c78a8" stroke-width="2" opacity="0.7"/><path aria-label="timepoint (year-month): Sep 1996; y_position: 0.0323; frequency: 0.0011" role="graphics-symbol" aria-roledescription="circle" transform="translate(100,290.31)" d="M1.0439044751500013,0A1.0439044751500013,1.0439044751500013,0,1,1,-1.0439044751500013,0A1.0439044751500013,1.0439044751500013,0,1,1,1.0439044751500013,0" fill="#4c78a8" stroke-width="2" opacity="0.7"/><path aria-label="timepoint (year-month): Sep 1996; y_position: 0.0645; frequency: 0.0021" role="graphics-symbol" aria-roledescription="circle" transform="translate(100,280.65)" d="M1.442361309482166,0A1.442361309482166,1.442361309482166,0,1,1,-1.442361309482166,0A1.442361309482166,1.442361309482166,0,1,1,1.442361309482166,0" fill="#4c78a8" stroke-width="2" opacity="0.7"/><path aria-label="timepoint (year-month): Sep 1996; y_position: 0.0968; frequency: 0.0022" role="graphics-symbol" aria-roledescription="circle" transform="translate(100,270.96)" d="M1.4763038665790995,0A1.4763038665790995,1.4763038665790995,0,1,1,-1.4763038665790995,0A1.4763038665790995,1.4763038665790995,0,1,1,1.4763038665790995,0" fill="#4c78a8" stroke-width="2" opacity="0.7"/><path aria-label="timepoint (year-month): Sep 1996; y_position: 0.129; frequency: 0.0043" role="graphics-symbol" aria-roledescription="circle" transform="translate(100,261.3)" d="M2.063947492928904,0A2.063947492928904,2.063947492928904,0,1,1,-2.063947492928904,0A2.063947492928904,2.063947492928904,0,1,1,2.063947492928904,0" fill="#4c78a8" stroke-width="2" opacity="0.7"/><path aria-label="timepoint (year-month): Sep 1996; y_position: 0.1613; frequency: 0.0025" role="graphics-symbol" aria-roledescription="circle" transform="translate(100,251.61)" d="M1.5737452095661078,0A1.5737452095661078,1.5737452095661078,0,1,1,-1.5737452095661078,0A1.5737452095661078,1.5737452095661078,0,1,1,1.5737452095661078,0" fill="#4c78a8" stroke-width="2" opacity="0.7"/><path aria-label="timepoint (year-month): Sep 1996; y_position: 0.1935; frequency: 0.0081" role="graphics-symbol" aria-roledescription="circle" transform="translate(100,241.95)" d="M2.8327413772189938,0A2.8327413772189938,2.8327413772189938,0,1,1,-2.8327413772189938,0A2.8327413772189938,2.8327413772189938,0,1,1,2.8327413772189938,0" fill="#4c78a8" stroke-width="2" opacity="0.7"/><path aria-label="timepoint (year-month): Sep 1996; y_position: 0.2258; frequency: 0.007" role="graphics-symbol" aria-roledescription="circle" transform="translate(100,232.26)" d="M2.633379417586908,0A2.633379417586908,2.633379417586908,0,1,1,-2.633379417586908,0A2.633379417586908,2.633379417586908,0,1,1,2.633379417586908,0" fill="#4c78a8" stroke-width="2" opacity="0.7"/><path aria-label="timepoint (year-month): Sep 1996; y_position: 0.2581; frequency: 0.0182" role="graphics-symbol" aria-roledescription="circle" transform="translate(100,222.57)" d="M4.246196722729994,0A4.246196722729994,4.246196722729994,0,1,1,-4.246196722729994,0A4.246196722729994,4.246196722729994,0,1,1,4.246196722729994,0" fill="#4c78a8" stroke-width="2" opacity="0.7"/><path aria-label="timepoint (year-month): Sep 1996; y_position: 0.2903; frequency: 0.005" role="graphics-symbol" aria-roledescription="circle" transform="translate(100,212.91)" d="M2.225611819088078,0A2.225611819088078,2.225611819088078,0,1,1,-2.225611819088078,0A2.225611819088078,2.225611819088078,0,1,1,2.225611819088078,0" fill="#4c78a8" stroke-width="2" opacity="0.7"/><path aria-label="timepoint (year-month): Sep 1996; y_position: 0.3226; frequency: 0.0281" role="graphics-symbol" aria-roledescription="circle" transform="translate(100,203.22)" d="M5.276155379371113,0A5.276155379371113,5.276155379371113,0,1,1,-5.276155379371113,0A5.276155379371113,5.276155379371113,0,1,1,5.276155379371113,0" fill="#4c78a8" stroke-width="2" opacity="0.7"/><path aria-label="timepoint (year-month): Sep 1996; y_position: 0.3548; frequency: 0.0312" role="graphics-symbol" aria-roledescription="circle" transform="translate(100,193.56)" d="M5.559576542166746,0A5.559576542166746,5.559576542166746,0,1,1,-5.559576542166746,0A5.559576542166746,5.559576542166746,0,1,1,5.559576542166746,0" fill="#4c78a8" stroke-width="2" opacity="0.7"/><path aria-label="timepoint (year-month): Sep 1996; y_position: 0.3871; frequency: 0.0184" role="graphics-symbol" aria-roledescription="circle" transform="translate(100,183.87)" d="M4.269463728255988,0A4.269463728255988,4.269463728255988,0,1,1,-4.269463728255988,0A4.269463728255988,4.269463728255988,0,1,1,4.269463728255988,0" fill="#4c78a8" stroke-width="2" opacity="0.7"/><path aria-label="timepoint (year-month): Sep 1996; y_position: 0.4194; frequency: 0.0312" role="graphics-symbol" aria-roledescription="circle" transform="translate(100,174.18)" d="M5.559576542166746,0A5.559576542166746,5.559576542166746,0,1,1,-5.559576542166746,0A5.559576542166746,5.559576542166746,0,1,1,5.559576542166746,0" fill="#4c78a8" stroke-width="2" opacity="0.7"/><path aria-label="timepoint (year-month): Sep 1996; y_position: 0.4516; frequency: 0.0184" role="graphics-symbol" aria-roledescription="circle" transform="translate(100,164.52)" d="M4.269463728255988,0A4.269463728255988,4.269463728255988,0,1,1,-4.269463728255988,0A4.269463728255988,4.269463728255988,0,1,1,4.269463728255988,0" fill="#4c78a8" stroke-width="2" opacity="0.7"/><path aria-label="timepoint (year-month): Sep 1996; y_position: 0.4839; frequency: 0.0345" role="graphics-symbol" aria-roledescription="circle" transform="translate(100,154.83)" d="M5.846203981039779,0A5.846203981039779,5.846203981039779,0,1,1,-5.846203981039779,0A5.846203981039779,5.846203981039779,0,1,1,5.846203981039779,0" fill="#4c78a8" stroke-width="2" opacity="0.7"/><path aria-label="timepoint (year-month): Sep 1996; y_position: 0.5161; frequency: 0.0474" role="graphics-symbol" aria-roledescription="circle" transform="translate(100,145.17)" d="M6.8525716886894275,0A6.8525716886894275,6.8525716886894275,0,1,1,-6.8525716886894275,0A6.8525716886894275,6.8525716886894275,0,1,1,6.8525716886894275,0" fill="#4c78a8" stroke-width="2" opacity="0.7"/><path aria-label="timepoint (year-month): Sep 1996; y_position: 0.5484; frequency: 0.0634" role="graphics-symbol" aria-roledescription="circle" transform="translate(100,135.48)" d="M7.92517837340425,0A7.92517837340425,7.92517837340425,0,1,1,-7.92517837340425,0A7.92517837340425,7.92517837340425,0,1,1,7.92517837340425,0" fill="#4c78a8" stroke-width="2" opacity="0.7"/><path aria-label="timepoint (year-month): Sep 1996; y_position: 0.5806; frequency: 0.031" role="graphics-symbol" aria-roledescription="circle" transform="translate(100,125.82)" d="M5.541728738348727,0A5.541728738348727,5.541728738348727,0,1,1,-5.541728738348727,0A5.541728738348727,5.541728738348727,0,1,1,5.541728738348727,0" fill="#4c78a8" stroke-width="2" opacity="0.7"/><path aria-label="timepoint (year-month): Sep 1996; y_position: 0.6129; frequency: 0.0525" role="graphics-symbol" aria-roledescription="circle" transform="translate(100,116.13)" d="M7.21180654741083,0A7.21180654741083,7.21180654741083,0,1,1,-7.21180654741083,0A7.21180654741083,7.21180654741083,0,1,1,7.21180654741083,0" fill="#4c78a8" stroke-width="2" opacity="0.7"/><path aria-label="timepoint (year-month): Sep 1996; y_position: 0.6452; frequency: 0.0911" role="graphics-symbol" aria-roledescription="circle" transform="translate(100,106.44)" d="M9.5,0A9.5,9.5,0,1,1,-9.5,0A9.5,9.5,0,1,1,9.5,0" fill="#4c78a8" stroke-width="2" opacity="0.7"/><path aria-label="timepoint (year-month): Sep 1996; y_position: 0.6774; frequency: 0.0733" role="graphics-symbol" aria-roledescription="circle" transform="translate(100,96.78)" d="M8.521506981128292,0A8.521506981128292,8.521506981128292,0,1,1,-8.521506981128292,0A8.521506981128292,8.521506981128292,0,1,1,8.521506981128292,0" fill="#4c78a8" stroke-width="2" opacity="0.7"/><path aria-label="timepoint (year-month): Sep 1996; y_position: 0.7097; frequency: 0.0763" role="graphics-symbol" aria-roledescription="circle" transform="translate(100,87.09)" d="M8.694141131300835,0A8.694141131300835,8.694141131300835,0,1,1,-8.694141131300835,0A8.694141131300835,8.694141131300835,0,1,1,8.694141131300835,0" fill="#4c78a8" stroke-width="2" opacity="0.7"/><path aria-label="timepoint (year-month): Sep 1996; y_position: 0.7419; frequency: 0.0763" role="graphics-symbol" aria-roledescription="circle" transform="translate(100,77.42999999999999)" d="M8.694141131300835,0A8.694141131300835,8.694141131300835,0,1,1,-8.694141131300835,0A8.694141131300835,8.694141131300835,0,1,1,8.694141131300835,0" fill="#4c78a8" stroke-width="2" opacity="0.7"/><path aria-label="timepoint (year-month): Sep 1996; y_position: 0.7742; frequency: 0.0855" role="graphics-symbol" aria-roledescription="circle" transform="translate(100,67.74)" d="M9.203382545261482,0A9.203382545261482,9.203382545261482,0,1,1,-9.203382545261482,0A9.203382545261482,9.203382545261482,0,1,1,9.203382545261482,0" fill="#4c78a8" stroke-width="2" opacity="0.7"/><path aria-label="timepoint (year-month): Sep 1996; y_position: 0.8065; frequency: 0.0463" role="graphics-symbol" aria-roledescription="circle" transform="translate(100,58.050000000000004)" d="M6.7725919850076375,0A6.7725919850076375,6.7725919850076375,0,1,1,-6.7725919850076375,0A6.7725919850076375,6.7725919850076375,0,1,1,6.7725919850076375,0" fill="#4c78a8" stroke-width="2" opacity="0.7"/><path aria-label="timepoint (year-month): Sep 1996; y_position: 0.8387; frequency: 0.0491" role="graphics-symbol" aria-roledescription="circle" transform="translate(100,48.39)" d="M6.97437287920411,0A6.97437287920411,6.97437287920411,0,1,1,-6.97437287920411,0A6.97437287920411,6.97437287920411,0,1,1,6.97437287920411,0" fill="#4c78a8" stroke-width="2" opacity="0.7"/><path aria-label="timepoint (year-month): Sep 1996; y_position: 0.871; frequency: 0.031" role="graphics-symbol" aria-roledescription="circle" transform="translate(100,38.7)" d="M5.541728738348727,0A5.541728738348727,5.541728738348727,0,1,1,-5.541728738348727,0A5.541728738348727,5.541728738348727,0,1,1,5.541728738348727,0" fill="#4c78a8" stroke-width="2" opacity="0.7"/><path aria-label="timepoint (year-month): Sep 1996; y_position: 0.9032; frequency: 0.0185" role="graphics-symbol" aria-roledescription="circle" transform="translate(100,29.04)" d="M4.281049811235419,0A4.281049811235419,4.281049811235419,0,1,1,-4.281049811235419,0A4.281049811235419,4.281049811235419,0,1,1,4.281049811235419,0" fill="#4c78a8" stroke-width="2" opacity="0.7"/><path aria-label="timepoint (year-month): Sep 1996; y_position: 0.9355; frequency: 0.0112" role="graphics-symbol" aria-roledescription="circle" transform="translate(100,19.35)" d="M3.330990761192919,0A3.330990761192919,3.330990761192919,0,1,1,-3.330990761192919,0A3.330990761192919,3.330990761192919,0,1,1,3.330990761192919,0" fill="#4c78a8" stroke-width="2" opacity="0.7"/><path aria-label="timepoint (year-month): Sep 1996; y_position: 0.9677; frequency: 0.0321" role="graphics-symbol" aria-roledescription="circle" transform="translate(100,9.689999999999998)" d="M5.639192669405645,0A5.639192669405645,5.639192669405645,0,1,1,-5.639192669405645,0A5.639192669405645,5.639192669405645,0,1,1,5.639192669405645,0" fill="#4c78a8" stroke-width="2" opacity="0.7"/><path aria-label="timepoint (year-month): Sep 1997; y_position: 0; frequency: 0.001" role="graphics-symbol" aria-roledescription="circle" transform="translate(300,300)" d="M0.9953238638015814,0A0.9953238638015814,0.9953238638015814,0,1,1,-0.9953238638015814,0A0.9953238638015814,0.9953238638015814,0,1,1,0.9953238638015814,0" fill="#4c78a8" stroke-width="2" opacity="0.7"/><path aria-label="timepoint (year-month): Sep 1997; y_position: 0.0256; frequency: 0.0015" role="graphics-symbol" aria-roledescription="circle" transform="translate(300,292.32)" d="M1.2190177975646472,0A1.2190177975646472,1.2190177975646472,0,1,1,-1.2190177975646472,0A1.2190177975646472,1.2190177975646472,0,1,1,1.2190177975646472,0" fill="#4c78a8" stroke-width="2" opacity="0.7"/><path aria-label="timepoint (year-month): Sep 1997; y_position: 0.0513; frequency: 0.004" role="graphics-symbol" aria-roledescription="circle" transform="translate(300,284.61)" d="M1.9906477276031629,0A1.9906477276031629,1.9906477276031629,0,1,1,-1.9906477276031629,0A1.9906477276031629,1.9906477276031629,0,1,1,1.9906477276031629,0" fill="#4c78a8" stroke-width="2" opacity="0.7"/><path aria-label="timepoint (year-month): Sep 1997; y_position: 0.0769; frequency: 0.004" role="graphics-symbol" aria-roledescription="circle" transform="translate(300,276.93)" d="M1.9906477276031629,0A1.9906477276031629,1.9906477276031629,0,1,1,-1.9906477276031629,0A1.9906477276031629,1.9906477276031629,0,1,1,1.9906477276031629,0" fill="#4c78a8" stroke-width="2" opacity="0.7"/><path aria-label="timepoint (year-month): Sep 1997; y_position: 0.1026; frequency: 0.0091" role="graphics-symbol" aria-roledescription="circle" transform="translate(300,269.21999999999997)" d="M3.0025144968944733,0A3.0025144968944733,3.0025144968944733,0,1,1,-3.0025144968944733,0A3.0025144968944733,3.0025144968944733,0,1,1,3.0025144968944733,0" fill="#4c78a8" stroke-width="2" opacity="0.7"/><path aria-label="timepoint (year-month): Sep 1997; y_position: 0.1282; frequency: 0.0091" role="graphics-symbol" aria-roledescription="circle" transform="translate(300,261.54)" d="M3.0025144968944733,0A3.0025144968944733,3.0025144968944733,0,1,1,-3.0025144968944733,0A3.0025144968944733,3.0025144968944733,0,1,1,3.0025144968944733,0" fill="#4c78a8" stroke-width="2" opacity="0.7"/><path aria-label="timepoint (year-month): Sep 1997; y_position: 0.1538; frequency: 0.0091" role="graphics-symbol" aria-roledescription="circle" transform="translate(300,253.86)" d="M3.0025144968944733,0A3.0025144968944733,3.0025144968944733,0,1,1,-3.0025144968944733,0A3.0025144968944733,3.0025144968944733,0,1,1,3.0025144968944733,0" fill="#4c78a8" stroke-width="2" opacity="0.7"/><path aria-label="timepoint (year-month): Sep 1997; y_position: 0.1795; frequency: 0.0094" role="graphics-symbol" aria-roledescription="circle" transform="translate(300,246.15)" d="M3.051605181247624,0A3.051605181247624,3.051605181247624,0,1,1,-3.051605181247624,0A3.051605181247624,3.051605181247624,0,1,1,3.051605181247624,0" fill="#4c78a8" stroke-width="2" opacity="0.7"/><path aria-label="timepoint (year-month): Sep 1997; y_position: 0.2051; frequency: 0.0104" role="graphics-symbol" aria-roledescription="circle" transform="translate(300,238.46999999999997)" d="M3.2098230132002996,0A3.2098230132002996,3.2098230132002996,0,1,1,-3.2098230132002996,0A3.2098230132002996,3.2098230132002996,0,1,1,3.2098230132002996,0" fill="#4c78a8" stroke-width="2" opacity="0.7"/><path aria-label="timepoint (year-month): Sep 1997; y_position: 0.2308; frequency: 0.0121" role="graphics-symbol" aria-roledescription="circle" transform="translate(300,230.76)" d="M3.462239461045437,0A3.462239461045437,3.462239461045437,0,1,1,-3.462239461045437,0A3.462239461045437,3.462239461045437,0,1,1,3.462239461045437,0" fill="#4c78a8" stroke-width="2" opacity="0.7"/><path aria-label="timepoint (year-month): Sep 1997; y_position: 0.2564; frequency: 0.0136" role="graphics-symbol" aria-roledescription="circle" transform="translate(300,223.08)" d="M3.670573044689284,0A3.670573044689284,3.670573044689284,0,1,1,-3.670573044689284,0A3.670573044689284,3.670573044689284,0,1,1,3.670573044689284,0" fill="#4c78a8" stroke-width="2" opacity="0.7"/><path aria-label="timepoint (year-month): Sep 1997; y_position: 0.2821; frequency: 0.0144" role="graphics-symbol" aria-roledescription="circle" transform="translate(300,215.37)" d="M3.7769885029586585,0A3.7769885029586585,3.7769885029586585,0,1,1,-3.7769885029586585,0A3.7769885029586585,3.7769885029586585,0,1,1,3.7769885029586585,0" fill="#4c78a8" stroke-width="2" opacity="0.7"/><path aria-label="timepoint (year-month): Sep 1997; y_position: 0.3077; frequency: 0.0153" role="graphics-symbol" aria-roledescription="circle" transform="translate(300,207.69)" d="M3.8932306361105176,0A3.8932306361105176,3.8932306361105176,0,1,1,-3.8932306361105176,0A3.8932306361105176,3.8932306361105176,0,1,1,3.8932306361105176,0" fill="#4c78a8" stroke-width="2" opacity="0.7"/><path aria-label="timepoint (year-month): Sep 1997; y_position: 0.3333; frequency: 0.0157" role="graphics-symbol" aria-roledescription="circle" transform="translate(300,200.01000000000002)" d="M3.943794191320164,0A3.943794191320164,3.943794191320164,0,1,1,-3.943794191320164,0A3.943794191320164,3.943794191320164,0,1,1,3.943794191320164,0" fill="#4c78a8" stroke-width="2" opacity="0.7"/><path aria-label="timepoint (year-month): Sep 1997; y_position: 0.359; frequency: 0.0175" role="graphics-symbol" aria-roledescription="circle" transform="translate(300,192.3)" d="M4.163738451491148,0A4.163738451491148,4.163738451491148,0,1,1,-4.163738451491148,0A4.163738451491148,4.163738451491148,0,1,1,4.163738451491148,0" fill="#4c78a8" stroke-width="2" opacity="0.7"/><path aria-label="timepoint (year-month): Sep 1997; y_position: 0.3846; frequency: 0.0175" role="graphics-symbol" aria-roledescription="circle" transform="translate(300,184.61999999999998)" d="M4.163738451491148,0A4.163738451491148,4.163738451491148,0,1,1,-4.163738451491148,0A4.163738451491148,4.163738451491148,0,1,1,4.163738451491148,0" fill="#4c78a8" stroke-width="2" opacity="0.7"/><path aria-label="timepoint (year-month): Sep 1997; y_position: 0.4103; frequency: 0.019" role="graphics-symbol" aria-roledescription="circle" transform="translate(300,176.91)" d="M4.338516138405534,0A4.338516138405534,4.338516138405534,0,1,1,-4.338516138405534,0A4.338516138405534,4.338516138405534,0,1,1,4.338516138405534,0" fill="#4c78a8" stroke-width="2" opacity="0.7"/><path aria-label="timepoint (year-month): Sep 1997; y_position: 0.4359; frequency: 0.022" role="graphics-symbol" aria-roledescription="circle" transform="translate(300,169.23000000000002)" d="M4.668482736903286,0A4.668482736903286,4.668482736903286,0,1,1,-4.668482736903286,0A4.668482736903286,4.668482736903286,0,1,1,4.668482736903286,0" fill="#4c78a8" stroke-width="2" opacity="0.7"/><path aria-label="timepoint (year-month): Sep 1997; y_position: 0.4615; frequency: 0.022" role="graphics-symbol" aria-roledescription="circle" transform="translate(300,161.54999999999998)" d="M4.668482736903286,0A4.668482736903286,4.668482736903286,0,1,1,-4.668482736903286,0A4.668482736903286,4.668482736903286,0,1,1,4.668482736903286,0" fill="#4c78a8" stroke-width="2" opacity="0.7"/><path aria-label="timepoint (year-month): Sep 1997; y_position: 0.4872; frequency: 0.022" role="graphics-symbol" aria-roledescription="circle" transform="translate(300,153.83999999999997)" d="M4.668482736903286,0A4.668482736903286,4.668482736903286,0,1,1,-4.668482736903286,0A4.668482736903286,4.668482736903286,0,1,1,4.668482736903286,0" fill="#4c78a8" stroke-width="2" opacity="0.7"/><path aria-label="timepoint (year-month): Sep 1997; y_position: 0.5128; frequency: 0.022" role="graphics-symbol" aria-roledescription="circle" transform="translate(300,146.16)" d="M4.668482736903286,0A4.668482736903286,4.668482736903286,0,1,1,-4.668482736903286,0A4.668482736903286,4.668482736903286,0,1,1,4.668482736903286,0" fill="#4c78a8" stroke-width="2" opacity="0.7"/><path aria-label="timepoint (year-month): Sep 1997; y_position: 0.5385; frequency: 0.0237" role="graphics-symbol" aria-roledescription="circle" transform="translate(300,138.45000000000002)" d="M4.845499909639246,0A4.845499909639246,4.845499909639246,0,1,1,-4.845499909639246,0A4.845499909639246,4.845499909639246,0,1,1,4.845499909639246,0" fill="#4c78a8" stroke-width="2" opacity="0.7"/><path aria-label="timepoint (year-month): Sep 1997; y_position: 0.5641; frequency: 0.0242" role="graphics-symbol" aria-roledescription="circle" transform="translate(300,130.76999999999998)" d="M4.896346001993772,0A4.896346001993772,4.896346001993772,0,1,1,-4.896346001993772,0A4.896346001993772,4.896346001993772,0,1,1,4.896346001993772,0" fill="#4c78a8" stroke-width="2" opacity="0.7"/><path aria-label="timepoint (year-month): Sep 1997; y_position: 0.5897; frequency: 0.0242" role="graphics-symbol" aria-roledescription="circle" transform="translate(300,123.09)" d="M4.896346001993772,0A4.896346001993772,4.896346001993772,0,1,1,-4.896346001993772,0A4.896346001993772,4.896346001993772,0,1,1,4.896346001993772,0" fill="#4c78a8" stroke-width="2" opacity="0.7"/><path aria-label="timepoint (year-month): Sep 1997; y_position: 0.6154; frequency: 0.0327" role="graphics-symbol" aria-roledescription="circle" transform="translate(300,115.38000000000001)" d="M5.691651405259297,0A5.691651405259297,5.691651405259297,0,1,1,-5.691651405259297,0A5.691651405259297,5.691651405259297,0,1,1,5.691651405259297,0" fill="#4c78a8" stroke-width="2" opacity="0.7"/><path aria-label="timepoint (year-month): Sep 1997; y_position: 0.641; frequency: 0.0346" role="graphics-symbol" aria-roledescription="circle" transform="translate(300,107.69999999999999)" d="M5.854670609633871,0A5.854670609633871,5.854670609633871,0,1,1,-5.854670609633871,0A5.854670609633871,5.854670609633871,0,1,1,5.854670609633871,0" fill="#4c78a8" stroke-width="2" opacity="0.7"/><path aria-label="timepoint (year-month): Sep 1997; y_position: 0.6667; frequency: 0.0346" role="graphics-symbol" aria-roledescription="circle" transform="translate(300,99.99000000000001)" d="M5.854670609633871,0A5.854670609633871,5.854670609633871,0,1,1,-5.854670609633871,0A5.854670609633871,5.854670609633871,0,1,1,5.854670609633871,0" fill="#4c78a8" stroke-width="2" opacity="0.7"/><path aria-label="timepoint (year-month): Sep 1997; y_position: 0.6923; frequency: 0.0385" role="graphics-symbol" aria-roledescription="circle" transform="translate(300,92.30999999999999)" d="M6.175822160922139,0A6.175822160922139,6.175822160922139,0,1,1,-6.175822160922139,0A6.175822160922139,6.175822160922139,0,1,1,6.175822160922139,0" fill="#4c78a8" stroke-width="2" opacity="0.7"/><path aria-label="timepoint (year-month): Sep 1997; y_position: 0.7179; frequency: 0.0398" role="graphics-symbol" aria-roledescription="circle" transform="translate(300,84.63000000000001)" d="M6.279223665019886,0A6.279223665019886,6.279223665019886,0,1,1,-6.279223665019886,0A6.279223665019886,6.279223665019886,0,1,1,6.279223665019886,0" fill="#4c78a8" stroke-width="2" opacity="0.7"/><path aria-label="timepoint (year-month): Sep 1997; y_position: 0.7436; frequency: 0.0398" role="graphics-symbol" aria-roledescription="circle" transform="translate(300,76.91999999999999)" d="M6.279223665019886,0A6.279223665019886,6.279223665019886,0,1,1,-6.279223665019886,0A6.279223665019886,6.279223665019886,0,1,1,6.279223665019886,0" fill="#4c78a8" stroke-width="2" opacity="0.7"/><path aria-label="timepoint (year-month): Sep 1997; y_position: 0.7692; frequency: 0.0404" role="graphics-symbol" aria-roledescription="circle" transform="translate(300,69.24)" d="M6.326377446189685,0A6.326377446189685,6.326377446189685,0,1,1,-6.326377446189685,0A6.326377446189685,6.326377446189685,0,1,1,6.326377446189685,0" fill="#4c78a8" stroke-width="2" opacity="0.7"/><path aria-label="timepoint (year-month): Sep 1997; y_position: 0.7949; frequency: 0.0404" role="graphics-symbol" aria-roledescription="circle" transform="translate(300,61.52999999999999)" d="M6.326377446189685,0A6.326377446189685,6.326377446189685,0,1,1,-6.326377446189685,0A6.326377446189685,6.326377446189685,0,1,1,6.326377446189685,0" fill="#4c78a8" stroke-width="2" opacity="0.7"/><path aria-label="timepoint (year-month): Sep 1997; y_position: 0.8205; frequency: 0.043" role="graphics-symbol" aria-roledescription="circle" transform="translate(300,53.849999999999994)" d="M6.526775048649607,0A6.526775048649607,6.526775048649607,0,1,1,-6.526775048649607,0A6.526775048649607,6.526775048649607,0,1,1,6.526775048649607,0" fill="#4c78a8" stroke-width="2" opacity="0.7"/><path aria-label="timepoint (year-month): Sep 1997; y_position: 0.8462; frequency: 0.0469" role="graphics-symbol" aria-roledescription="circle" transform="translate(300,46.140000000000015)" d="M6.8163336150529945,0A6.8163336150529945,6.8163336150529945,0,1,1,-6.8163336150529945,0A6.8163336150529945,6.8163336150529945,0,1,1,6.8163336150529945,0" fill="#4c78a8" stroke-width="2" opacity="0.7"/><path aria-label="timepoint (year-month): Sep 1997; y_position: 0.8718; frequency: 0.0475" role="graphics-symbol" aria-roledescription="circle" transform="translate(300,38.459999999999994)" d="M6.859796331379902,0A6.859796331379902,6.859796331379902,0,1,1,-6.859796331379902,0A6.859796331379902,6.859796331379902,0,1,1,6.859796331379902,0" fill="#4c78a8" stroke-width="2" opacity="0.7"/><path aria-label="timepoint (year-month): Sep 1997; y_position: 0.8974; frequency: 0.0481" role="graphics-symbol" aria-roledescription="circle" transform="translate(300,30.78000000000001)" d="M6.9029854022969594,0A6.9029854022969594,6.9029854022969594,0,1,1,-6.9029854022969594,0A6.9029854022969594,6.9029854022969594,0,1,1,6.9029854022969594,0" fill="#4c78a8" stroke-width="2" opacity="0.7"/><path aria-label="timepoint (year-month): Sep 1997; y_position: 0.9231; frequency: 0.0512" role="graphics-symbol" aria-roledescription="circle" transform="translate(300,23.06999999999999)" d="M7.121957821081851,0A7.121957821081851,7.121957821081851,0,1,1,-7.121957821081851,0A7.121957821081851,7.121957821081851,0,1,1,7.121957821081851,0" fill="#4c78a8" stroke-width="2" opacity="0.7"/><path aria-label="timepoint (year-month): Sep 1997; y_position: 0.9487; frequency: 0.0535" role="graphics-symbol" aria-roledescription="circle" transform="translate(300,15.390000000000004)" d="M7.280166431554338,0A7.280166431554338,7.280166431554338,0,1,1,-7.280166431554338,0A7.280166431554338,7.280166431554338,0,1,1,7.280166431554338,0" fill="#4c78a8" stroke-width="2" opacity="0.7"/><path aria-label="timepoint (year-month): Sep 1997; y_position: 0.9744; frequency: 0.0625" role="graphics-symbol" aria-roledescription="circle" transform="translate(300,7.679999999999987)" d="M7.868726047830538,0A7.868726047830538,7.868726047830538,0,1,1,-7.868726047830538,0A7.868726047830538,7.868726047830538,0,1,1,7.868726047830538,0" fill="#4c78a8" stroke-width="2" opacity="0.7"/></g><g class="mark-group role-title"><g transform="translate(200,-17.18872604783055)"><path class="background" aria-hidden="true" d="M0,0h0v0h0Z" pointer-events="none"/><g><g class="mark-text role-title-text" role="graphics-symbol" aria-roledescription="title" aria-label="Title text 'Earth mover's distance = 7.6 amino acids'" pointer-events="none"><text text-anchor="middle" transform="translate(0,10)" font-family="sans-serif" font-size="13px" font-weight="bold" fill="#000" opacity="1">Earth mover's distance = 7.6 amino acids</text></g></g><path class="foreground" aria-hidden="true" d="" pointer-events="none" display="none"/></g></g></g><path class="foreground" aria-hidden="true" d="" display="none"/></g></g></g></svg>